<svg xmlns="http://www.w3.org/2000/svg" xmlns:xlink="http://www.w3.org/1999/xlink" width="500" zoomAndPan="magnify" viewBox="0 0 375 374.999991" height="500" preserveAspectRatio="xMidYMid meet" version="1.0"><defs><clipPath id="40fb72a7a9"><path d="M 100.0625 93.976562 L 325 93.976562 L 325 316.625 L 100.0625 316.625 Z M 100.0625 93.976562 " clip-rule="nonzero"/></clipPath><clipPath id="427b29b6ca"><path d="M 117.3125 93.976562 L 307.386719 93.976562 C 311.964844 93.976562 316.351562 95.796875 319.585938 99.03125 C 322.820312 102.265625 324.636719 106.652344 324.636719 111.226562 L 324.636719 299.375 C 324.636719 303.953125 322.820312 308.339844 319.585938 311.574219 C 316.351562 314.808594 311.964844 316.625 307.386719 316.625 L 117.3125 316.625 C 112.738281 316.625 108.351562 314.808594 105.117188 311.574219 C 101.878906 308.339844 100.0625 303.953125 100.0625 299.375 L 100.0625 111.226562 C 100.0625 106.652344 101.878906 102.265625 105.117188 99.03125 C 108.351562 95.796875 112.738281 93.976562 117.3125 93.976562 Z M 117.3125 93.976562 " clip-rule="nonzero"/></clipPath><clipPath id="5ade4d8015"><path d="M 0.0625 0.976562 L 224.679688 0.976562 L 224.679688 223.625 L 0.0625 223.625 Z M 0.0625 0.976562 " clip-rule="nonzero"/></clipPath><clipPath id="f3197bdcee"><path d="M 17.3125 0.976562 L 207.386719 0.976562 C 211.964844 0.976562 216.351562 2.796875 219.585938 6.03125 C 222.820312 9.265625 224.636719 13.652344 224.636719 18.226562 L 224.636719 206.375 C 224.636719 210.953125 222.820312 215.339844 219.585938 218.574219 C 216.351562 221.808594 211.964844 223.625 207.386719 223.625 L 17.3125 223.625 C 12.738281 223.625 8.351562 221.808594 5.117188 218.574219 C 1.878906 215.339844 0.0625 210.953125 0.0625 206.375 L 0.0625 18.226562 C 0.0625 13.652344 1.878906 9.265625 5.117188 6.03125 C 8.351562 2.796875 12.738281 0.976562 17.3125 0.976562 Z M 17.3125 0.976562 " clip-rule="nonzero"/></clipPath><clipPath id="8fc3135c23"><rect x="0" width="225" y="0" height="224"/></clipPath><clipPath id="b787a61809"><path d="M 128.605469 121.558594 L 296.199219 121.558594 L 296.199219 289.148438 L 128.605469 289.148438 Z M 128.605469 121.558594 " clip-rule="nonzero"/></clipPath><clipPath id="6b976becd7"><path d="M 0.363281 0.375 L 225 0.375 L 225 223.023438 L 0.363281 223.023438 Z M 0.363281 0.375 " clip-rule="nonzero"/></clipPath><clipPath id="7a662271f4"><path d="M 17.613281 0.375 L 207.6875 0.375 C 212.261719 0.375 216.648438 2.191406 219.882812 5.425781 C 223.121094 8.660156 224.9375 13.046875 224.9375 17.625 L 224.9375 205.773438 C 224.9375 210.347656 223.121094 214.734375 219.882812 217.96875 C 216.648438 221.203125 212.261719 223.023438 207.6875 223.023438 L 17.613281 223.023438 C 13.035156 223.023438 8.648438 221.203125 5.414062 217.96875 C 2.179688 214.734375 0.363281 210.347656 0.363281 205.773438 L 0.363281 17.625 C 0.363281 13.046875 2.179688 8.660156 5.414062 5.425781 C 8.648438 2.191406 13.035156 0.375 17.613281 0.375 Z M 17.613281 0.375 " clip-rule="nonzero"/></clipPath><clipPath id="5c1734a4d2"><path d="M 0.363281 0.375 L 225 0.375 L 225 223.023438 L 0.363281 223.023438 Z M 0.363281 0.375 " clip-rule="nonzero"/></clipPath><clipPath id="c5453e6bf8"><path d="M 17.613281 0.375 L 207.6875 0.375 C 212.261719 0.375 216.648438 2.191406 219.882812 5.425781 C 223.121094 8.660156 224.9375 13.046875 224.9375 17.625 L 224.9375 205.773438 C 224.9375 210.347656 223.121094 214.734375 219.882812 217.96875 C 216.648438 221.203125 212.261719 223.023438 207.6875 223.023438 L 17.613281 223.023438 C 13.035156 223.023438 8.648438 221.203125 5.414062 217.96875 C 2.179688 214.734375 0.363281 210.347656 0.363281 205.773438 L 0.363281 17.625 C 0.363281 13.046875 2.179688 8.660156 5.414062 5.425781 C 8.648438 2.191406 13.035156 0.375 17.613281 0.375 Z M 17.613281 0.375 " clip-rule="nonzero"/></clipPath><clipPath id="1dbc6f074f"><rect x="0" width="225" y="0" height="224"/></clipPath><clipPath id="21b7aef0ae"><path d="M 28.90625 27.953125 L 196.496094 27.953125 L 196.496094 195.542969 L 28.90625 195.542969 Z M 28.90625 27.953125 " clip-rule="nonzero"/></clipPath><clipPath id="c8e7685c67"><rect x="0" width="326" y="0" height="317"/></clipPath></defs><g transform="matrix(1, 0, 0, 1, 25, 29)"><g clip-path="url(#c8e7685c67)"><g clip-path="url(#40fb72a7a9)"><g clip-path="url(#427b29b6ca)"><g transform="matrix(1, 0, 0, 1, 100, 93)"><g clip-path="url(#8fc3135c23)"><g clip-path="url(#5ade4d8015)"><g clip-path="url(#f3197bdcee)"><path fill="#2a7c7c" d="M 0.0625 0.976562 L 224.449219 0.976562 L 224.449219 223.625 L 0.0625 223.625 Z M 0.0625 0.976562 " fill-opacity="1" fill-rule="nonzero"/></g></g></g></g></g></g><g clip-path="url(#b787a61809)"><path fill="#ffffff" d="M 128.605469 121.558594 L 296.066406 121.558594 L 296.066406 289.015625 L 128.605469 289.015625 Z M 128.605469 121.558594 " fill-opacity="1" fill-rule="nonzero"/></g><g clip-path="url(#6b976becd7)"><g clip-path="url(#7a662271f4)"><g><g clip-path="url(#1dbc6f074f)"><g clip-path="url(#5c1734a4d2)"><g clip-path="url(#c5453e6bf8)"><path fill="#2a7c7c" d="M 0.363281 0.375 L 224.75 0.375 L 224.75 223.023438 L 0.363281 223.023438 Z M 0.363281 0.375 " fill-opacity="1" fill-rule="nonzero"/></g></g></g></g></g></g><g clip-path="url(#21b7aef0ae)"><path fill="#ffffff" d="M 28.90625 27.953125 L 196.363281 27.953125 L 196.363281 195.410156 L 28.90625 195.410156 Z M 28.90625 27.953125 " fill-opacity="1" fill-rule="nonzero"/></g></g></g></svg>