<svg xmlns="http://www.w3.org/2000/svg" xmlns:xlink="http://www.w3.org/1999/xlink" width="40" zoomAndPan="magnify" viewBox="0 0 30 30.000001" height="40" preserveAspectRatio="xMidYMid meet" version="1.0"><defs><clipPath id="7baa79b5b0"><path d="M 0.484375 0 L 29.515625 0 L 29.515625 29.03125 L 0.484375 29.03125 Z M 0.484375 0 " clip-rule="nonzero"/></clipPath><clipPath id="f5066f5fd8"><path d="M 1.933594 0 L 28.066406 0 C 28.867188 0 29.515625 0.648438 29.515625 1.453125 L 29.515625 27.582031 C 29.515625 28.382812 28.867188 29.03125 28.066406 29.03125 L 1.933594 29.03125 C 1.132812 29.03125 0.484375 28.382812 0.484375 27.582031 L 0.484375 1.453125 C 0.484375 0.648438 1.132812 0 1.933594 0 Z M 1.933594 0 " clip-rule="nonzero"/></clipPath><clipPath id="f31ef32af4"><path d="M 0.484375 0 L 29.515625 0 L 29.515625 29.03125 L 0.484375 29.03125 Z M 0.484375 0 " clip-rule="nonzero"/></clipPath><clipPath id="bd8486ee79"><path d="M 1.933594 0 L 28.066406 0 C 28.867188 0 29.515625 0.648438 29.515625 1.453125 L 29.515625 27.582031 C 29.515625 28.382812 28.867188 29.03125 28.066406 29.03125 L 1.933594 29.03125 C 1.132812 29.03125 0.484375 28.382812 0.484375 27.582031 L 0.484375 1.453125 C 0.484375 0.648438 1.132812 0 1.933594 0 Z M 1.933594 0 " clip-rule="nonzero"/></clipPath><clipPath id="d5a4e09184"><rect x="0" width="30" y="0" height="30"/></clipPath><clipPath id="530e063f1c"><path d="M 12.039062 11.554688 L 26.613281 11.554688 L 26.613281 26.128906 L 12.039062 26.128906 Z M 12.039062 11.554688 " clip-rule="nonzero"/></clipPath><clipPath id="5ba03d1f7f"><path d="M 13.546875 11.613281 L 25.160156 11.613281 C 25.964844 11.613281 26.613281 12.261719 26.613281 13.066406 L 26.613281 24.675781 C 26.613281 25.480469 25.964844 26.128906 25.160156 26.128906 L 13.546875 26.128906 C 12.746094 26.128906 12.097656 25.480469 12.097656 24.675781 L 12.097656 13.066406 C 12.097656 12.261719 12.746094 11.613281 13.546875 11.613281 Z M 13.546875 11.613281 " clip-rule="nonzero"/></clipPath><clipPath id="32161e8f7a"><path d="M 0.0976562 0.613281 L 14.613281 0.613281 L 14.613281 15.128906 L 0.0976562 15.128906 Z M 0.0976562 0.613281 " clip-rule="nonzero"/></clipPath><clipPath id="d09cdd50d8"><path d="M 1.546875 0.613281 L 13.160156 0.613281 C 13.964844 0.613281 14.613281 1.261719 14.613281 2.066406 L 14.613281 13.675781 C 14.613281 14.480469 13.964844 15.128906 13.160156 15.128906 L 1.546875 15.128906 C 0.746094 15.128906 0.0976562 14.480469 0.0976562 13.675781 L 0.0976562 2.066406 C 0.0976562 1.261719 0.746094 0.613281 1.546875 0.613281 Z M 1.546875 0.613281 " clip-rule="nonzero"/></clipPath><clipPath id="629179f787"><rect x="0" width="15" y="0" height="16"/></clipPath><clipPath id="ba31aad51d"><path d="M 14.273438 13.789062 L 24.433594 13.789062 L 24.433594 23.953125 L 14.273438 23.953125 Z M 14.273438 13.789062 " clip-rule="nonzero"/></clipPath><clipPath id="d9c1ded74e"><path d="M 3.332031 2.847656 L 17.902344 2.847656 L 17.902344 17.417969 L 3.332031 17.417969 Z M 3.332031 2.847656 " clip-rule="nonzero"/></clipPath><clipPath id="9c52ecad4d"><path d="M 4.839844 2.902344 L 16.453125 2.902344 C 17.253906 2.902344 17.902344 3.554688 17.902344 4.355469 L 17.902344 15.96875 C 17.902344 16.769531 17.253906 17.417969 16.453125 17.417969 L 4.839844 17.417969 C 4.035156 17.417969 3.386719 16.769531 3.386719 15.96875 L 3.386719 4.355469 C 3.386719 3.554688 4.035156 2.902344 4.839844 2.902344 Z M 4.839844 2.902344 " clip-rule="nonzero"/></clipPath><clipPath id="a9664e161c"><path d="M 0.332031 0.847656 L 14.902344 0.847656 L 14.902344 15.417969 L 0.332031 15.417969 Z M 0.332031 0.847656 " clip-rule="nonzero"/></clipPath><clipPath id="712d2b2442"><path d="M 1.839844 0.902344 L 13.453125 0.902344 C 14.253906 0.902344 14.902344 1.554688 14.902344 2.355469 L 14.902344 13.96875 C 14.902344 14.769531 14.253906 15.417969 13.453125 15.417969 L 1.839844 15.417969 C 1.035156 15.417969 0.386719 14.769531 0.386719 13.96875 L 0.386719 2.355469 C 0.386719 1.554688 1.035156 0.902344 1.839844 0.902344 Z M 1.839844 0.902344 " clip-rule="nonzero"/></clipPath><clipPath id="58a3ed8e9b"><rect x="0" width="15" y="0" height="16"/></clipPath><clipPath id="ad6a4c4149"><path d="M 5.566406 5.082031 L 15.726562 5.082031 L 15.726562 15.242188 L 5.566406 15.242188 Z M 5.566406 5.082031 " clip-rule="nonzero"/></clipPath></defs><g clip-path="url(#7baa79b5b0)"><g clip-path="url(#f5066f5fd8)"><g transform="matrix(1, 0, 0, 1, 0, 0.000000000000005692)"><g clip-path="url(#d5a4e09184)"><g clip-path="url(#f31ef32af4)"><g clip-path="url(#bd8486ee79)"><path fill="#1b2a32" d="M 0.484375 0 L 29.515625 0 L 29.515625 29.03125 L 0.484375 29.03125 Z M 0.484375 0 " fill-opacity="1" fill-rule="nonzero"/></g></g></g></g></g></g><g clip-path="url(#530e063f1c)"><g clip-path="url(#5ba03d1f7f)"><g transform="matrix(1, 0, 0, 1, 12, 11)"><g clip-path="url(#629179f787)"><g clip-path="url(#32161e8f7a)"><g clip-path="url(#d09cdd50d8)"><path fill="#ffffff" d="M 0.0976562 0.613281 L 14.613281 0.613281 L 14.613281 15.128906 L 0.0976562 15.128906 Z M 0.0976562 0.613281 " fill-opacity="1" fill-rule="nonzero"/></g></g></g></g></g></g><g clip-path="url(#ba31aad51d)"><path fill="#1b2a32" d="M 14.273438 13.789062 L 24.433594 13.789062 L 24.433594 23.949219 L 14.273438 23.949219 Z M 14.273438 13.789062 " fill-opacity="1" fill-rule="nonzero"/></g><g clip-path="url(#d9c1ded74e)"><g clip-path="url(#9c52ecad4d)"><g transform="matrix(1, 0, 0, 1, 3, 2)"><g clip-path="url(#58a3ed8e9b)"><g clip-path="url(#a9664e161c)"><g clip-path="url(#712d2b2442)"><path fill="#ffffff" d="M 0.386719 0.902344 L 14.902344 0.902344 L 14.902344 15.417969 L 0.386719 15.417969 Z M 0.386719 0.902344 " fill-opacity="1" fill-rule="nonzero"/></g></g></g></g></g></g><g clip-path="url(#ad6a4c4149)"><path fill="#1b2a32" d="M 5.566406 5.082031 L 15.722656 5.082031 L 15.722656 15.242188 L 5.566406 15.242188 Z M 5.566406 5.082031 " fill-opacity="1" fill-rule="nonzero"/></g></svg>