<svg xmlns="http://www.w3.org/2000/svg" xmlns:xlink="http://www.w3.org/1999/xlink" width="500" zoomAndPan="magnify" viewBox="0 0 375 374.999991" height="500" preserveAspectRatio="xMidYMid meet" version="1.0"><defs><clipPath id="1d3e8801d4"><path d="M 23.8125 18.753906 L 351.179688 18.753906 L 351.179688 356.351562 L 23.8125 356.351562 Z M 23.8125 18.753906 " clip-rule="nonzero"/></clipPath><clipPath id="a7414d7aa8"><path d="M 351.179688 78.753906 L 351.179688 296.246094 C 351.179688 312.160156 344.859375 327.421875 333.605469 338.671875 C 322.355469 349.925781 307.09375 356.246094 291.179688 356.246094 L 83.8125 356.246094 C 67.898438 356.246094 52.636719 349.925781 41.386719 338.671875 C 30.132812 327.421875 23.8125 312.160156 23.8125 296.246094 L 23.8125 78.753906 C 23.8125 62.839844 30.132812 47.578125 41.386719 36.328125 C 52.636719 25.074219 67.898438 18.753906 83.8125 18.753906 L 291.179688 18.753906 C 307.09375 18.753906 322.355469 25.074219 333.605469 36.328125 C 344.859375 47.578125 351.179688 62.839844 351.179688 78.753906 Z M 351.179688 78.753906 " clip-rule="nonzero"/></clipPath><clipPath id="e6d1f2f727"><path d="M 0.8125 0.753906 L 328.179688 0.753906 L 328.179688 338.351562 L 0.8125 338.351562 Z M 0.8125 0.753906 " clip-rule="nonzero"/></clipPath><clipPath id="abcb3b968c"><path d="M 328.179688 60.753906 L 328.179688 278.246094 C 328.179688 294.160156 321.859375 309.421875 310.605469 320.671875 C 299.355469 331.925781 284.09375 338.246094 268.179688 338.246094 L 60.8125 338.246094 C 44.898438 338.246094 29.636719 331.925781 18.386719 320.671875 C 7.132812 309.421875 0.8125 294.160156 0.8125 278.246094 L 0.8125 60.753906 C 0.8125 44.839844 7.132812 29.578125 18.386719 18.328125 C 29.636719 7.074219 44.898438 0.753906 60.8125 0.753906 L 268.179688 0.753906 C 284.09375 0.753906 299.355469 7.074219 310.605469 18.328125 C 321.859375 29.578125 328.179688 44.839844 328.179688 60.753906 Z M 328.179688 60.753906 " clip-rule="nonzero"/></clipPath><clipPath id="ef0d71041e"><rect x="0" width="329" y="0" height="339"/></clipPath><clipPath id="0ff7b7291f"><path d="M 85.082031 85.082031 L 254.757812 85.082031 L 254.757812 254.757812 L 85.082031 254.757812 Z M 85.082031 85.082031 " clip-rule="nonzero"/></clipPath><clipPath id="ddece35341"><path d="M 102.332031 85.082031 L 237.507812 85.082031 C 247.03125 85.082031 254.757812 92.804688 254.757812 102.332031 L 254.757812 237.507812 C 254.757812 247.03125 247.03125 254.757812 237.507812 254.757812 L 102.332031 254.757812 C 92.804688 254.757812 85.082031 247.03125 85.082031 237.507812 L 85.082031 102.332031 C 85.082031 92.804688 92.804688 85.082031 102.332031 85.082031 Z M 102.332031 85.082031 " clip-rule="nonzero"/></clipPath><clipPath id="e39c2fdfdc"><path d="M 0.0820312 0.0820312 L 169.757812 0.0820312 L 169.757812 169.757812 L 0.0820312 169.757812 Z M 0.0820312 0.0820312 " clip-rule="nonzero"/></clipPath><clipPath id="39338bf8a5"><path d="M 17.332031 0.0820312 L 152.507812 0.0820312 C 162.03125 0.0820312 169.757812 7.804688 169.757812 17.332031 L 169.757812 152.507812 C 169.757812 162.03125 162.03125 169.757812 152.507812 169.757812 L 17.332031 169.757812 C 7.804688 169.757812 0.0820312 162.03125 0.0820312 152.507812 L 0.0820312 17.332031 C 0.0820312 7.804688 7.804688 0.0820312 17.332031 0.0820312 Z M 17.332031 0.0820312 " clip-rule="nonzero"/></clipPath><clipPath id="10b9be4b6c"><rect x="0" width="170" y="0" height="170"/></clipPath><clipPath id="21bbe8b1fe"><path d="M 0.242188 0.242188 L 169.917969 0.242188 L 169.917969 169.917969 L 0.242188 169.917969 Z M 0.242188 0.242188 " clip-rule="nonzero"/></clipPath><clipPath id="1aff1c7b90"><path d="M 17.492188 0.242188 L 152.667969 0.242188 C 162.195312 0.242188 169.917969 7.96875 169.917969 17.492188 L 169.917969 152.667969 C 169.917969 162.195312 162.195312 169.917969 152.667969 169.917969 L 17.492188 169.917969 C 7.96875 169.917969 0.242188 162.195312 0.242188 152.667969 L 0.242188 17.492188 C 0.242188 7.96875 7.96875 0.242188 17.492188 0.242188 Z M 17.492188 0.242188 " clip-rule="nonzero"/></clipPath><clipPath id="344ce79bd7"><path d="M 0.242188 0.242188 L 169.917969 0.242188 L 169.917969 169.917969 L 0.242188 169.917969 Z M 0.242188 0.242188 " clip-rule="nonzero"/></clipPath><clipPath id="7013ac66d1"><path d="M 17.492188 0.242188 L 152.667969 0.242188 C 162.195312 0.242188 169.917969 7.96875 169.917969 17.492188 L 169.917969 152.667969 C 169.917969 162.195312 162.195312 169.917969 152.667969 169.917969 L 17.492188 169.917969 C 7.96875 169.917969 0.242188 162.195312 0.242188 152.667969 L 0.242188 17.492188 C 0.242188 7.96875 7.96875 0.242188 17.492188 0.242188 Z M 17.492188 0.242188 " clip-rule="nonzero"/></clipPath><clipPath id="bf33df5301"><rect x="0" width="170" y="0" height="170"/></clipPath><clipPath id="ee15a87952"><rect x="0" width="255" y="0" height="255"/></clipPath></defs><g clip-path="url(#1d3e8801d4)"><g clip-path="url(#a7414d7aa8)"><g transform="matrix(1, 0, 0, 1, 23, 18)"><g clip-path="url(#ef0d71041e)"><g clip-path="url(#e6d1f2f727)"><g clip-path="url(#abcb3b968c)"><path fill="#1b2a32" d="M 0.8125 0.753906 L 328.179688 0.753906 L 328.179688 338.351562 L 0.8125 338.351562 Z M 0.8125 0.753906 " fill-opacity="1" fill-rule="nonzero"/></g></g></g></g></g></g><g transform="matrix(1, 0, 0, 1, 60, 60)"><g clip-path="url(#ee15a87952)"><g clip-path="url(#0ff7b7291f)"><g clip-path="url(#ddece35341)"><g transform="matrix(1, 0, 0, 1, 85, 85)"><g clip-path="url(#10b9be4b6c)"><g clip-path="url(#e39c2fdfdc)"><g clip-path="url(#39338bf8a5)"><path fill="#2e9b9b" d="M 0.0820312 0.0820312 L 169.757812 0.0820312 L 169.757812 169.757812 L 0.0820312 169.757812 Z M 0.0820312 0.0820312 " fill-opacity="1" fill-rule="nonzero"/></g></g></g></g></g></g><g clip-path="url(#21bbe8b1fe)"><g clip-path="url(#1aff1c7b90)"><g><g clip-path="url(#bf33df5301)"><g clip-path="url(#344ce79bd7)"><g clip-path="url(#7013ac66d1)"><path fill="#ffffff" d="M 0.242188 0.242188 L 169.917969 0.242188 L 169.917969 169.917969 L 0.242188 169.917969 Z M 0.242188 0.242188 " fill-opacity="1" fill-rule="nonzero"/></g></g></g></g></g></g></g></g></svg>