<svg xmlns="http://www.w3.org/2000/svg" xmlns:xlink="http://www.w3.org/1999/xlink" width="500" zoomAndPan="magnify" viewBox="0 0 375 374.999991" height="500" preserveAspectRatio="xMidYMid meet" version="1.0"><defs><clipPath id="5646f4de0d"><path d="M 17.25 0 L 357.75 0 C 362.324219 0 366.710938 1.816406 369.949219 5.050781 C 373.183594 8.289062 375 12.675781 375 17.25 L 375 357.75 C 375 362.324219 373.183594 366.710938 369.949219 369.949219 C 366.710938 373.183594 362.324219 375 357.75 375 L 17.25 375 C 12.675781 375 8.289062 373.183594 5.050781 369.949219 C 1.816406 366.710938 0 362.324219 0 357.75 L 0 17.25 C 0 12.675781 1.816406 8.289062 5.050781 5.050781 C 8.289062 1.816406 12.675781 0 17.25 0 Z M 17.25 0 " clip-rule="nonzero"/></clipPath><clipPath id="e9dd32fedb"><path d="M 0 0 L 375 0 L 375 375 L 0 375 Z M 0 0 " clip-rule="nonzero"/></clipPath><clipPath id="45db5903e2"><path d="M 17.25 0 L 357.75 0 C 362.324219 0 366.710938 1.816406 369.949219 5.050781 C 373.183594 8.289062 375 12.675781 375 17.25 L 375 357.75 C 375 362.324219 373.183594 366.710938 369.949219 369.949219 C 366.710938 373.183594 362.324219 375 357.75 375 L 17.25 375 C 12.675781 375 8.289062 373.183594 5.050781 369.949219 C 1.816406 366.710938 0 362.324219 0 357.75 L 0 17.25 C 0 12.675781 1.816406 8.289062 5.050781 5.050781 C 8.289062 1.816406 12.675781 0 17.25 0 Z M 17.25 0 " clip-rule="nonzero"/></clipPath><clipPath id="8a3a046dda"><rect x="0" width="375" y="0" height="375"/></clipPath><clipPath id="d2bea9e0a6"><path d="M 187.5 0 C 83.945312 0 0 83.945312 0 187.5 C 0 291.054688 83.945312 375 187.5 375 C 291.054688 375 375 291.054688 375 187.5 C 375 83.945312 291.054688 0 187.5 0 Z M 187.5 0 " clip-rule="nonzero"/></clipPath><clipPath id="7baef791d2"><path d="M 0 0 L 375 0 L 375 375 L 0 375 Z M 0 0 " clip-rule="nonzero"/></clipPath><clipPath id="b2fef1992c"><path d="M 187.5 0 C 83.945312 0 0 83.945312 0 187.5 C 0 291.054688 83.945312 375 187.5 375 C 291.054688 375 375 291.054688 375 187.5 C 375 83.945312 291.054688 0 187.5 0 Z M 187.5 0 " clip-rule="nonzero"/></clipPath><clipPath id="f37dd78fda"><rect x="0" width="375" y="0" height="375"/></clipPath><clipPath id="61eab371c4"><path d="M 85.082031 85.082031 L 254.757812 85.082031 L 254.757812 254.757812 L 85.082031 254.757812 Z M 85.082031 85.082031 " clip-rule="nonzero"/></clipPath><clipPath id="bc5470464e"><path d="M 102.332031 85.082031 L 237.507812 85.082031 C 247.03125 85.082031 254.757812 92.804688 254.757812 102.332031 L 254.757812 237.507812 C 254.757812 247.03125 247.03125 254.757812 237.507812 254.757812 L 102.332031 254.757812 C 92.804688 254.757812 85.082031 247.03125 85.082031 237.507812 L 85.082031 102.332031 C 85.082031 92.804688 92.804688 85.082031 102.332031 85.082031 Z M 102.332031 85.082031 " clip-rule="nonzero"/></clipPath><clipPath id="054930c8cb"><path d="M 0.0820312 0.0820312 L 169.757812 0.0820312 L 169.757812 169.757812 L 0.0820312 169.757812 Z M 0.0820312 0.0820312 " clip-rule="nonzero"/></clipPath><clipPath id="124cc60cb2"><path d="M 17.332031 0.0820312 L 152.507812 0.0820312 C 162.03125 0.0820312 169.757812 7.804688 169.757812 17.332031 L 169.757812 152.507812 C 169.757812 162.03125 162.03125 169.757812 152.507812 169.757812 L 17.332031 169.757812 C 7.804688 169.757812 0.0820312 162.03125 0.0820312 152.507812 L 0.0820312 17.332031 C 0.0820312 7.804688 7.804688 0.0820312 17.332031 0.0820312 Z M 17.332031 0.0820312 " clip-rule="nonzero"/></clipPath><clipPath id="b7dcad6284"><rect x="0" width="170" y="0" height="170"/></clipPath><clipPath id="625cdd1a24"><path d="M 0.242188 0.242188 L 169.917969 0.242188 L 169.917969 169.917969 L 0.242188 169.917969 Z M 0.242188 0.242188 " clip-rule="nonzero"/></clipPath><clipPath id="2c83bb9d18"><path d="M 17.492188 0.242188 L 152.667969 0.242188 C 162.195312 0.242188 169.917969 7.96875 169.917969 17.492188 L 169.917969 152.667969 C 169.917969 162.195312 162.195312 169.917969 152.667969 169.917969 L 17.492188 169.917969 C 7.96875 169.917969 0.242188 162.195312 0.242188 152.667969 L 0.242188 17.492188 C 0.242188 7.96875 7.96875 0.242188 17.492188 0.242188 Z M 17.492188 0.242188 " clip-rule="nonzero"/></clipPath><clipPath id="1c4cf3d9c9"><path d="M 0.242188 0.242188 L 169.917969 0.242188 L 169.917969 169.917969 L 0.242188 169.917969 Z M 0.242188 0.242188 " clip-rule="nonzero"/></clipPath><clipPath id="1035dce9e3"><path d="M 17.492188 0.242188 L 152.667969 0.242188 C 162.195312 0.242188 169.917969 7.96875 169.917969 17.492188 L 169.917969 152.667969 C 169.917969 162.195312 162.195312 169.917969 152.667969 169.917969 L 17.492188 169.917969 C 7.96875 169.917969 0.242188 162.195312 0.242188 152.667969 L 0.242188 17.492188 C 0.242188 7.96875 7.96875 0.242188 17.492188 0.242188 Z M 17.492188 0.242188 " clip-rule="nonzero"/></clipPath><clipPath id="b32a98d91f"><rect x="0" width="170" y="0" height="170"/></clipPath><clipPath id="6e826137fa"><rect x="0" width="255" y="0" height="255"/></clipPath></defs><g clip-path="url(#5646f4de0d)"><g transform="matrix(1, 0, 0, 1, 0, 0)"><g clip-path="url(#8a3a046dda)"><g clip-path="url(#e9dd32fedb)"><g clip-path="url(#45db5903e2)"><rect x="-82.5" width="540" fill="#1b2a32" height="539.999987" y="-82.499998" fill-opacity="1"/></g></g></g></g></g><g clip-path="url(#d2bea9e0a6)"><g transform="matrix(1, 0, 0, 1, 0, 0)"><g clip-path="url(#f37dd78fda)"><g clip-path="url(#7baef791d2)"><g clip-path="url(#b2fef1992c)"><rect x="-82.5" width="540" fill="#1b2a32" height="539.999987" y="-82.499998" fill-opacity="1"/></g></g></g></g></g><g transform="matrix(1, 0, 0, 1, 60, 60)"><g clip-path="url(#6e826137fa)"><g clip-path="url(#61eab371c4)"><g clip-path="url(#bc5470464e)"><g transform="matrix(1, 0, 0, 1, 85, 85)"><g clip-path="url(#b7dcad6284)"><g clip-path="url(#054930c8cb)"><g clip-path="url(#124cc60cb2)"><path fill="#2e9b9b" d="M 0.0820312 0.0820312 L 169.757812 0.0820312 L 169.757812 169.757812 L 0.0820312 169.757812 Z M 0.0820312 0.0820312 " fill-opacity="1" fill-rule="nonzero"/></g></g></g></g></g></g><g clip-path="url(#625cdd1a24)"><g clip-path="url(#2c83bb9d18)"><g><g clip-path="url(#b32a98d91f)"><g clip-path="url(#1c4cf3d9c9)"><g clip-path="url(#1035dce9e3)"><path fill="#ffffff" d="M 0.242188 0.242188 L 169.917969 0.242188 L 169.917969 169.917969 L 0.242188 169.917969 Z M 0.242188 0.242188 " fill-opacity="1" fill-rule="nonzero"/></g></g></g></g></g></g></g></g></svg>