<svg xmlns="http://www.w3.org/2000/svg" xmlns:xlink="http://www.w3.org/1999/xlink" width="500" zoomAndPan="magnify" viewBox="0 0 375 374.999991" height="500" preserveAspectRatio="xMidYMid meet" version="1.0"><defs><clipPath id="ee35e27f52"><path d="M 187.5 0 C 83.945312 0 0 83.945312 0 187.5 C 0 291.054688 83.945312 375 187.5 375 C 291.054688 375 375 291.054688 375 187.5 C 375 83.945312 291.054688 0 187.5 0 Z M 187.5 0 " clip-rule="nonzero"/></clipPath><clipPath id="6f75ece184"><path d="M 0 0 L 375 0 L 375 375 L 0 375 Z M 0 0 " clip-rule="nonzero"/></clipPath><clipPath id="8a90b4ca5b"><path d="M 187.5 0 C 83.945312 0 0 83.945312 0 187.5 C 0 291.054688 83.945312 375 187.5 375 C 291.054688 375 375 291.054688 375 187.5 C 375 83.945312 291.054688 0 187.5 0 Z M 187.5 0 " clip-rule="nonzero"/></clipPath><clipPath id="376bb0d3b1"><rect x="0" width="375" y="0" height="375"/></clipPath></defs><g clip-path="url(#ee35e27f52)"><g transform="matrix(1, 0, 0, 1, 0, 0)"><g clip-path="url(#376bb0d3b1)"><g clip-path="url(#6f75ece184)"><g clip-path="url(#8a90b4ca5b)"><rect x="-82.5" width="540" fill="#1b2a32" height="539.999987" y="-82.499998" fill-opacity="1"/></g></g></g></g></g><path fill="#25a6a6" d="M 65.171875 89.636719 C 65.171875 88.835938 65.210938 88.035156 65.289062 87.238281 C 65.367188 86.441406 65.484375 85.648438 65.640625 84.863281 C 65.796875 84.078125 65.992188 83.300781 66.222656 82.535156 C 66.457031 81.765625 66.726562 81.015625 67.03125 80.273438 C 67.339844 79.53125 67.683594 78.808594 68.058594 78.101562 C 68.4375 77.394531 68.847656 76.710938 69.292969 76.042969 C 69.738281 75.378906 70.214844 74.734375 70.722656 74.117188 C 71.234375 73.496094 71.769531 72.902344 72.335938 72.335938 C 72.902344 71.769531 73.496094 71.234375 74.117188 70.722656 C 74.734375 70.214844 75.378906 69.738281 76.042969 69.292969 C 76.710938 68.847656 77.394531 68.4375 78.101562 68.058594 C 78.808594 67.683594 79.53125 67.339844 80.273438 67.03125 C 81.015625 66.726562 81.765625 66.457031 82.535156 66.222656 C 83.300781 65.992188 84.078125 65.796875 84.863281 65.640625 C 85.648438 65.484375 86.441406 65.367188 87.238281 65.289062 C 88.035156 65.210938 88.835938 65.171875 89.636719 65.171875 L 211.960938 65.171875 C 212.761719 65.171875 213.558594 65.210938 214.359375 65.289062 C 215.15625 65.367188 215.945312 65.484375 216.734375 65.640625 C 217.519531 65.796875 218.296875 65.992188 219.0625 66.222656 C 219.828125 66.457031 220.582031 66.726562 221.320312 67.03125 C 222.0625 67.339844 222.785156 67.683594 223.492188 68.058594 C 224.199219 68.4375 224.886719 68.847656 225.550781 69.292969 C 226.21875 69.738281 226.859375 70.214844 227.480469 70.722656 C 228.101562 71.234375 228.691406 71.769531 229.257812 72.335938 C 229.824219 72.902344 230.363281 73.496094 230.871094 74.117188 C 231.378906 74.734375 231.855469 75.378906 232.300781 76.042969 C 232.746094 76.710938 233.160156 77.394531 233.535156 78.101562 C 233.914062 78.808594 234.257812 79.53125 234.5625 80.273438 C 234.867188 81.015625 235.140625 81.765625 235.371094 82.535156 C 235.605469 83.300781 235.796875 84.078125 235.953125 84.863281 C 236.109375 85.648438 236.226562 86.441406 236.308594 87.238281 C 236.386719 88.035156 236.425781 88.835938 236.425781 89.636719 L 236.425781 138.566406 L 285.355469 138.566406 C 286.15625 138.566406 286.953125 138.605469 287.753906 138.683594 C 288.550781 138.761719 289.339844 138.878906 290.128906 139.035156 C 290.914062 139.191406 291.691406 139.386719 292.457031 139.617188 C 293.222656 139.851562 293.976562 140.121094 294.714844 140.425781 C 295.457031 140.734375 296.179688 141.078125 296.886719 141.453125 C 297.59375 141.832031 298.28125 142.242188 298.945312 142.6875 C 299.613281 143.132812 300.253906 143.609375 300.875 144.117188 C 301.496094 144.628906 302.085938 145.164062 302.652344 145.730469 C 303.21875 146.296875 303.757812 146.890625 304.265625 147.511719 C 304.773438 148.128906 305.25 148.773438 305.695312 149.4375 C 306.140625 150.105469 306.554688 150.789062 306.929688 151.496094 C 307.308594 152.203125 307.652344 152.925781 307.957031 153.667969 C 308.265625 154.410156 308.535156 155.160156 308.765625 155.929688 C 309 156.695312 309.191406 157.472656 309.347656 158.257812 C 309.503906 159.042969 309.621094 159.835938 309.703125 160.632812 C 309.78125 161.429688 309.820312 162.230469 309.820312 163.03125 L 309.820312 285.355469 C 309.820312 286.15625 309.78125 286.953125 309.703125 287.753906 C 309.621094 288.550781 309.503906 289.339844 309.347656 290.128906 C 309.191406 290.914062 309 291.691406 308.765625 292.457031 C 308.535156 293.222656 308.265625 293.976562 307.957031 294.714844 C 307.652344 295.457031 307.308594 296.179688 306.929688 296.886719 C 306.554688 297.59375 306.140625 298.28125 305.695312 298.945312 C 305.25 299.613281 304.773438 300.253906 304.265625 300.875 C 303.757812 301.496094 303.21875 302.085938 302.652344 302.652344 C 302.085938 303.21875 301.496094 303.757812 300.875 304.265625 C 300.253906 304.773438 299.613281 305.25 298.945312 305.695312 C 298.28125 306.140625 297.59375 306.554688 296.886719 306.929688 C 296.179688 307.308594 295.457031 307.652344 294.714844 307.957031 C 293.976562 308.265625 293.222656 308.535156 292.457031 308.765625 C 291.691406 309 290.914062 309.191406 290.128906 309.347656 C 289.339844 309.503906 288.550781 309.621094 287.753906 309.703125 C 286.953125 309.78125 286.15625 309.820312 285.355469 309.820312 L 163.03125 309.820312 C 162.230469 309.820312 161.429688 309.78125 160.632812 309.703125 C 159.835938 309.621094 159.042969 309.503906 158.257812 309.347656 C 157.472656 309.191406 156.695312 309 155.929688 308.765625 C 155.160156 308.535156 154.410156 308.265625 153.667969 307.957031 C 152.925781 307.652344 152.203125 307.308594 151.496094 306.929688 C 150.789062 306.554688 150.105469 306.140625 149.4375 305.695312 C 148.773438 305.25 148.128906 304.773438 147.511719 304.265625 C 146.890625 303.757812 146.296875 303.21875 145.730469 302.652344 C 145.164062 302.085938 144.628906 301.496094 144.117188 300.875 C 143.609375 300.253906 143.132812 299.613281 142.6875 298.945312 C 142.242188 298.28125 141.832031 297.59375 141.453125 296.886719 C 141.078125 296.179688 140.734375 295.457031 140.425781 294.714844 C 140.121094 293.976562 139.851562 293.222656 139.617188 292.457031 C 139.386719 291.691406 139.191406 290.914062 139.035156 290.128906 C 138.878906 289.339844 138.761719 288.550781 138.683594 287.753906 C 138.605469 286.953125 138.566406 286.15625 138.566406 285.355469 L 138.566406 236.425781 L 89.636719 236.425781 C 88.835938 236.425781 88.035156 236.386719 87.238281 236.308594 C 86.441406 236.226562 85.648438 236.109375 84.863281 235.953125 C 84.078125 235.796875 83.300781 235.605469 82.535156 235.371094 C 81.765625 235.140625 81.015625 234.867188 80.273438 234.5625 C 79.53125 234.257812 78.808594 233.914062 78.101562 233.535156 C 77.394531 233.160156 76.710938 232.746094 76.042969 232.300781 C 75.378906 231.855469 74.734375 231.378906 74.117188 230.871094 C 73.496094 230.363281 72.902344 229.824219 72.335938 229.257812 C 71.769531 228.691406 71.234375 228.101562 70.722656 227.480469 C 70.214844 226.859375 69.738281 226.21875 69.292969 225.550781 C 68.847656 224.886719 68.4375 224.199219 68.058594 223.492188 C 67.683594 222.785156 67.339844 222.0625 67.03125 221.320312 C 66.726562 220.582031 66.457031 219.828125 66.222656 219.0625 C 65.992188 218.296875 65.796875 217.519531 65.640625 216.734375 C 65.484375 215.945312 65.367188 215.15625 65.289062 214.359375 C 65.210938 213.558594 65.171875 212.761719 65.171875 211.960938 Z M 163.03125 236.425781 L 163.03125 285.355469 L 285.355469 285.355469 L 285.355469 163.03125 L 236.425781 163.03125 L 236.425781 211.960938 C 236.425781 212.761719 236.386719 213.558594 236.308594 214.359375 C 236.226562 215.15625 236.109375 215.945312 235.953125 216.734375 C 235.796875 217.519531 235.605469 218.296875 235.371094 219.0625 C 235.140625 219.828125 234.867188 220.582031 234.5625 221.320312 C 234.257812 222.0625 233.914062 222.785156 233.535156 223.492188 C 233.160156 224.199219 232.746094 224.886719 232.300781 225.550781 C 231.855469 226.21875 231.378906 226.859375 230.871094 227.480469 C 230.363281 228.101562 229.824219 228.691406 229.257812 229.257812 C 228.691406 229.824219 228.101562 230.363281 227.480469 230.871094 C 226.859375 231.378906 226.21875 231.855469 225.550781 232.300781 C 224.886719 232.746094 224.199219 233.160156 223.492188 233.535156 C 222.785156 233.914062 222.0625 234.257812 221.320312 234.5625 C 220.582031 234.867188 219.828125 235.140625 219.0625 235.371094 C 218.296875 235.605469 217.519531 235.796875 216.734375 235.953125 C 215.945312 236.109375 215.15625 236.226562 214.359375 236.308594 C 213.558594 236.386719 212.761719 236.425781 211.960938 236.425781 Z M 211.960938 211.960938 L 211.960938 89.636719 L 89.636719 89.636719 L 89.636719 211.960938 Z M 211.960938 211.960938 " fill-opacity="1" fill-rule="nonzero"/></svg>