<svg xmlns="http://www.w3.org/2000/svg" xmlns:xlink="http://www.w3.org/1999/xlink" width="500" zoomAndPan="magnify" viewBox="0 0 375 374.999991" height="500" preserveAspectRatio="xMidYMid meet" version="1.0"><defs><clipPath id="0e836e6cca"><path d="M 187.5 0 C 83.945312 0 0 83.945312 0 187.5 C 0 291.054688 83.945312 375 187.5 375 C 291.054688 375 375 291.054688 375 187.5 C 375 83.945312 291.054688 0 187.5 0 Z M 187.5 0 " clip-rule="nonzero"/></clipPath><clipPath id="cd8017ddb8"><path d="M 0 0 L 375 0 L 375 375 L 0 375 Z M 0 0 " clip-rule="nonzero"/></clipPath><clipPath id="bc21661c6f"><path d="M 187.5 0 C 83.945312 0 0 83.945312 0 187.5 C 0 291.054688 83.945312 375 187.5 375 C 291.054688 375 375 291.054688 375 187.5 C 375 83.945312 291.054688 0 187.5 0 Z M 187.5 0 " clip-rule="nonzero"/></clipPath><clipPath id="bf3916660b"><rect x="0" width="375" y="0" height="375"/></clipPath><clipPath id="882eeced0c"><path d="M 67.796875 67.796875 L 202.613281 67.796875 L 202.613281 202.613281 L 67.796875 202.613281 Z M 67.796875 67.796875 " clip-rule="nonzero"/></clipPath><clipPath id="f18513774b"><path d="M 85.046875 67.796875 L 185.363281 67.796875 C 194.890625 67.796875 202.613281 75.519531 202.613281 85.046875 L 202.613281 185.363281 C 202.613281 194.890625 194.890625 202.613281 185.363281 202.613281 L 85.046875 202.613281 C 75.519531 202.613281 67.796875 194.890625 67.796875 185.363281 L 67.796875 85.046875 C 67.796875 75.519531 75.519531 67.796875 85.046875 67.796875 Z M 85.046875 67.796875 " clip-rule="nonzero"/></clipPath><clipPath id="1339f53209"><path d="M 0.796875 0.796875 L 135.613281 0.796875 L 135.613281 135.613281 L 0.796875 135.613281 Z M 0.796875 0.796875 " clip-rule="nonzero"/></clipPath><clipPath id="a41b6118e2"><path d="M 18.046875 0.796875 L 118.363281 0.796875 C 127.890625 0.796875 135.613281 8.519531 135.613281 18.046875 L 135.613281 118.363281 C 135.613281 127.890625 127.890625 135.613281 118.363281 135.613281 L 18.046875 135.613281 C 8.519531 135.613281 0.796875 127.890625 0.796875 118.363281 L 0.796875 18.046875 C 0.796875 8.519531 8.519531 0.796875 18.046875 0.796875 Z M 18.046875 0.796875 " clip-rule="nonzero"/></clipPath><clipPath id="0fdffdfecb"><rect x="0" width="136" y="0" height="136"/></clipPath><clipPath id="ade929d309"><path d="M 0.386719 0.386719 L 135.203125 0.386719 L 135.203125 135.203125 L 0.386719 135.203125 Z M 0.386719 0.386719 " clip-rule="nonzero"/></clipPath><clipPath id="6daceb3566"><path d="M 17.636719 0.386719 L 117.953125 0.386719 C 127.480469 0.386719 135.203125 8.109375 135.203125 17.636719 L 135.203125 117.953125 C 135.203125 127.480469 127.480469 135.203125 117.953125 135.203125 L 17.636719 135.203125 C 8.109375 135.203125 0.386719 127.480469 0.386719 117.953125 L 0.386719 17.636719 C 0.386719 8.109375 8.109375 0.386719 17.636719 0.386719 Z M 17.636719 0.386719 " clip-rule="nonzero"/></clipPath><clipPath id="fd692eb42c"><path d="M 0.386719 0.386719 L 135.203125 0.386719 L 135.203125 135.203125 L 0.386719 135.203125 Z M 0.386719 0.386719 " clip-rule="nonzero"/></clipPath><clipPath id="6ae5e4dc19"><path d="M 17.636719 0.386719 L 117.953125 0.386719 C 127.480469 0.386719 135.203125 8.109375 135.203125 17.636719 L 135.203125 117.953125 C 135.203125 127.480469 127.480469 135.203125 117.953125 135.203125 L 17.636719 135.203125 C 8.109375 135.203125 0.386719 127.480469 0.386719 117.953125 L 0.386719 17.636719 C 0.386719 8.109375 8.109375 0.386719 17.636719 0.386719 Z M 17.636719 0.386719 " clip-rule="nonzero"/></clipPath><clipPath id="89175fd0ab"><rect x="0" width="136" y="0" height="136"/></clipPath><clipPath id="90b78724a6"><rect x="0" width="203" y="0" height="203"/></clipPath></defs><g clip-path="url(#0e836e6cca)"><g transform="matrix(1, 0, 0, 1, 0, 0)"><g clip-path="url(#bf3916660b)"><g clip-path="url(#cd8017ddb8)"><g clip-path="url(#bc21661c6f)"><rect x="-82.5" width="540" fill="#bdbdbd" height="539.999987" y="-82.499998" fill-opacity="1"/></g></g></g></g></g><g transform="matrix(1, 0, 0, 1, 86, 86)"><g clip-path="url(#90b78724a6)"><g clip-path="url(#882eeced0c)"><g clip-path="url(#f18513774b)"><g transform="matrix(1, 0, 0, 1, 67, 67)"><g clip-path="url(#0fdffdfecb)"><g clip-path="url(#1339f53209)"><g clip-path="url(#a41b6118e2)"><path fill="#388f8f" d="M 0.796875 0.796875 L 135.613281 0.796875 L 135.613281 135.613281 L 0.796875 135.613281 Z M 0.796875 0.796875 " fill-opacity="1" fill-rule="nonzero"/></g></g></g></g></g></g><g clip-path="url(#ade929d309)"><g clip-path="url(#6daceb3566)"><g><g clip-path="url(#89175fd0ab)"><g clip-path="url(#fd692eb42c)"><g clip-path="url(#6ae5e4dc19)"><path fill="#276d6d" d="M 0.386719 0.386719 L 135.203125 0.386719 L 135.203125 135.203125 L 0.386719 135.203125 Z M 0.386719 0.386719 " fill-opacity="1" fill-rule="nonzero"/></g></g></g></g></g></g></g></g></svg>