<svg xmlns="http://www.w3.org/2000/svg" xmlns:xlink="http://www.w3.org/1999/xlink" width="500" zoomAndPan="magnify" viewBox="0 0 375 374.999991" height="500" preserveAspectRatio="xMidYMid meet" version="1.0"><path fill="#1c6464" d="M 31.25 62.5 C 31.25 61.476562 31.300781 60.457031 31.402344 59.4375 C 31.5 58.417969 31.652344 57.40625 31.851562 56.402344 C 32.050781 55.398438 32.296875 54.40625 32.59375 53.429688 C 32.894531 52.449219 33.238281 51.488281 33.628906 50.542969 C 34.019531 49.59375 34.457031 48.671875 34.941406 47.769531 C 35.421875 46.867188 35.949219 45.988281 36.515625 45.136719 C 37.085938 44.289062 37.695312 43.464844 38.34375 42.675781 C 38.992188 41.882812 39.679688 41.125 40.402344 40.402344 C 41.125 39.679688 41.882812 38.992188 42.675781 38.34375 C 43.464844 37.695312 44.289062 37.085938 45.136719 36.515625 C 45.988281 35.949219 46.867188 35.421875 47.769531 34.941406 C 48.671875 34.457031 49.59375 34.019531 50.542969 33.628906 C 51.488281 33.238281 52.449219 32.894531 53.429688 32.59375 C 54.40625 32.296875 55.398438 32.050781 56.402344 31.851562 C 57.40625 31.652344 58.417969 31.5 59.4375 31.402344 C 60.457031 31.300781 61.476562 31.25 62.5 31.25 L 218.75 31.25 C 219.773438 31.25 220.792969 31.300781 221.8125 31.402344 C 222.832031 31.5 223.84375 31.652344 224.847656 31.851562 C 225.851562 32.050781 226.84375 32.296875 227.820312 32.59375 C 228.800781 32.894531 229.761719 33.238281 230.707031 33.628906 C 231.65625 34.019531 232.578125 34.457031 233.480469 34.941406 C 234.382812 35.421875 235.261719 35.949219 236.113281 36.515625 C 236.960938 37.085938 237.785156 37.695312 238.574219 38.34375 C 239.367188 38.992188 240.125 39.679688 240.847656 40.402344 C 241.570312 41.125 242.257812 41.882812 242.90625 42.675781 C 243.554688 43.464844 244.164062 44.289062 244.734375 45.136719 C 245.300781 45.988281 245.828125 46.867188 246.308594 47.769531 C 246.792969 48.671875 247.230469 49.59375 247.621094 50.542969 C 248.011719 51.488281 248.355469 52.449219 248.65625 53.429688 C 248.953125 54.40625 249.199219 55.398438 249.398438 56.402344 C 249.597656 57.40625 249.75 58.417969 249.847656 59.4375 C 249.949219 60.457031 250 61.476562 250 62.5 L 250 125 L 312.5 125 C 313.523438 125 314.542969 125.050781 315.5625 125.152344 C 316.582031 125.25 317.59375 125.402344 318.597656 125.601562 C 319.601562 125.800781 320.59375 126.046875 321.570312 126.34375 C 322.550781 126.644531 323.511719 126.988281 324.457031 127.378906 C 325.40625 127.769531 326.328125 128.207031 327.230469 128.691406 C 328.132812 129.171875 329.011719 129.699219 329.863281 130.265625 C 330.710938 130.835938 331.535156 131.445312 332.324219 132.09375 C 333.117188 132.742188 333.875 133.429688 334.597656 134.152344 C 335.320312 134.875 336.007812 135.632812 336.65625 136.425781 C 337.304688 137.214844 337.914062 138.039062 338.484375 138.886719 C 339.050781 139.738281 339.578125 140.617188 340.058594 141.519531 C 340.542969 142.421875 340.980469 143.34375 341.371094 144.292969 C 341.761719 145.238281 342.105469 146.199219 342.40625 147.179688 C 342.703125 148.15625 342.949219 149.148438 343.148438 150.152344 C 343.347656 151.15625 343.5 152.167969 343.597656 153.1875 C 343.699219 154.207031 343.75 155.226562 343.75 156.25 L 343.75 312.5 C 343.75 313.523438 343.699219 314.542969 343.597656 315.5625 C 343.5 316.582031 343.347656 317.59375 343.148438 318.597656 C 342.949219 319.601562 342.703125 320.59375 342.40625 321.570312 C 342.105469 322.550781 341.761719 323.511719 341.371094 324.457031 C 340.980469 325.40625 340.542969 326.328125 340.058594 327.230469 C 339.578125 328.132812 339.050781 329.011719 338.484375 329.863281 C 337.914062 330.710938 337.304688 331.535156 336.65625 332.324219 C 336.007812 333.117188 335.320312 333.875 334.597656 334.597656 C 333.875 335.320312 333.117188 336.007812 332.324219 336.65625 C 331.535156 337.304688 330.710938 337.914062 329.863281 338.484375 C 329.011719 339.050781 328.132812 339.578125 327.230469 340.058594 C 326.328125 340.542969 325.40625 340.980469 324.457031 341.371094 C 323.511719 341.761719 322.550781 342.105469 321.570312 342.40625 C 320.59375 342.703125 319.601562 342.949219 318.597656 343.148438 C 317.59375 343.347656 316.582031 343.5 315.5625 343.597656 C 314.542969 343.699219 313.523438 343.75 312.5 343.75 L 156.25 343.75 C 155.226562 343.75 154.207031 343.699219 153.1875 343.597656 C 152.167969 343.5 151.15625 343.347656 150.152344 343.148438 C 149.148438 342.949219 148.15625 342.703125 147.179688 342.40625 C 146.199219 342.105469 145.238281 341.761719 144.292969 341.371094 C 143.34375 340.980469 142.421875 340.542969 141.519531 340.058594 C 140.617188 339.578125 139.738281 339.050781 138.886719 338.484375 C 138.039062 337.914062 137.214844 337.304688 136.425781 336.65625 C 135.632812 336.007812 134.875 335.320312 134.152344 334.597656 C 133.429688 333.875 132.742188 333.117188 132.09375 332.324219 C 131.445312 331.535156 130.835938 330.710938 130.265625 329.863281 C 129.699219 329.011719 129.171875 328.132812 128.691406 327.230469 C 128.207031 326.328125 127.769531 325.40625 127.378906 324.457031 C 126.988281 323.511719 126.644531 322.550781 126.34375 321.570312 C 126.046875 320.59375 125.800781 319.601562 125.601562 318.597656 C 125.402344 317.59375 125.25 316.582031 125.152344 315.5625 C 125.050781 314.542969 125 313.523438 125 312.5 L 125 250 L 62.5 250 C 61.476562 250 60.457031 249.949219 59.4375 249.847656 C 58.417969 249.75 57.40625 249.597656 56.402344 249.398438 C 55.398438 249.199219 54.40625 248.953125 53.429688 248.65625 C 52.449219 248.355469 51.488281 248.011719 50.542969 247.621094 C 49.59375 247.230469 48.671875 246.792969 47.769531 246.308594 C 46.867188 245.828125 45.988281 245.300781 45.136719 244.734375 C 44.289062 244.164062 43.464844 243.554688 42.675781 242.90625 C 41.882812 242.257812 41.125 241.570312 40.402344 240.847656 C 39.679688 240.125 38.992188 239.367188 38.34375 238.574219 C 37.695312 237.785156 37.085938 236.960938 36.515625 236.113281 C 35.949219 235.261719 35.421875 234.382812 34.941406 233.480469 C 34.457031 232.578125 34.019531 231.65625 33.628906 230.707031 C 33.238281 229.761719 32.894531 228.800781 32.59375 227.820312 C 32.296875 226.84375 32.050781 225.851562 31.851562 224.847656 C 31.652344 223.84375 31.5 222.832031 31.402344 221.8125 C 31.300781 220.792969 31.25 219.773438 31.25 218.75 Z M 156.25 250 L 156.25 312.5 L 312.5 312.5 L 312.5 156.25 L 250 156.25 L 250 218.75 C 250 219.773438 249.949219 220.792969 249.847656 221.8125 C 249.75 222.832031 249.597656 223.84375 249.398438 224.847656 C 249.199219 225.851562 248.953125 226.84375 248.65625 227.820312 C 248.355469 228.800781 248.011719 229.761719 247.621094 230.707031 C 247.230469 231.65625 246.792969 232.578125 246.308594 233.480469 C 245.828125 234.382812 245.300781 235.261719 244.734375 236.113281 C 244.164062 236.960938 243.554688 237.785156 242.90625 238.574219 C 242.257812 239.367188 241.570312 240.125 240.847656 240.847656 C 240.125 241.570312 239.367188 242.257812 238.574219 242.90625 C 237.785156 243.554688 236.960938 244.164062 236.113281 244.734375 C 235.261719 245.300781 234.382812 245.828125 233.480469 246.308594 C 232.578125 246.792969 231.65625 247.230469 230.707031 247.621094 C 229.761719 248.011719 228.800781 248.355469 227.820312 248.65625 C 226.84375 248.953125 225.851562 249.199219 224.847656 249.398438 C 223.84375 249.597656 222.832031 249.75 221.8125 249.847656 C 220.792969 249.949219 219.773438 250 218.75 250 Z M 218.75 218.75 L 218.75 62.5 L 62.5 62.5 L 62.5 218.75 Z M 218.75 218.75 " fill-opacity="1" fill-rule="nonzero"/></svg>