<svg xmlns="http://www.w3.org/2000/svg" xmlns:xlink="http://www.w3.org/1999/xlink" width="40" zoomAndPan="magnify" viewBox="0 0 30 30.000001" height="40" preserveAspectRatio="xMidYMid meet" version="1.0"><defs><clipPath id="320c07baf2"><path d="M 7.355469 6.707031 L 27.296875 6.707031 L 27.296875 26.804688 L 7.355469 26.804688 Z M 7.355469 6.707031 " clip-rule="nonzero"/></clipPath><clipPath id="4fab19e4be"><path d="M 8.804688 6.707031 L 25.847656 6.707031 C 26.230469 6.707031 26.601562 6.859375 26.875 7.132812 C 27.144531 7.402344 27.296875 7.773438 27.296875 8.15625 L 27.296875 25.347656 C 27.296875 25.730469 27.144531 26.101562 26.875 26.371094 C 26.601562 26.644531 26.230469 26.796875 25.847656 26.796875 L 8.804688 26.796875 C 8.421875 26.796875 8.050781 26.644531 7.777344 26.371094 C 7.507812 26.101562 7.355469 25.730469 7.355469 25.347656 L 7.355469 8.15625 C 7.355469 7.773438 7.507812 7.402344 7.777344 7.132812 C 8.050781 6.859375 8.421875 6.707031 8.804688 6.707031 Z M 8.804688 6.707031 " clip-rule="nonzero"/></clipPath><clipPath id="8f2f356496"><path d="M 0.355469 0.707031 L 20.296875 0.707031 L 20.296875 20.804688 L 0.355469 20.804688 Z M 0.355469 0.707031 " clip-rule="nonzero"/></clipPath><clipPath id="5a9fd348c4"><path d="M 1.804688 0.707031 L 18.847656 0.707031 C 19.230469 0.707031 19.601562 0.859375 19.875 1.132812 C 20.144531 1.402344 20.296875 1.773438 20.296875 2.15625 L 20.296875 19.347656 C 20.296875 19.730469 20.144531 20.101562 19.875 20.371094 C 19.601562 20.644531 19.230469 20.796875 18.847656 20.796875 L 1.804688 20.796875 C 1.421875 20.796875 1.050781 20.644531 0.777344 20.371094 C 0.507812 20.101562 0.355469 19.730469 0.355469 19.347656 L 0.355469 2.15625 C 0.355469 1.773438 0.507812 1.402344 0.777344 1.132812 C 1.050781 0.859375 1.421875 0.707031 1.804688 0.707031 Z M 1.804688 0.707031 " clip-rule="nonzero"/></clipPath><clipPath id="ee0643dbe0"><rect x="0" width="21" y="0" height="21"/></clipPath><clipPath id="4c9323f9c2"><path d="M 0.703125 0.234375 L 20.644531 0.234375 L 20.644531 20.335938 L 0.703125 20.335938 Z M 0.703125 0.234375 " clip-rule="nonzero"/></clipPath><clipPath id="1caec0be1b"><path d="M 2.152344 0.234375 L 19.195312 0.234375 C 19.578125 0.234375 19.949219 0.386719 20.222656 0.660156 C 20.492188 0.933594 20.644531 1.300781 20.644531 1.6875 L 20.644531 18.875 C 20.644531 19.257812 20.492188 19.628906 20.222656 19.902344 C 19.949219 20.171875 19.578125 20.328125 19.195312 20.328125 L 2.152344 20.328125 C 1.769531 20.328125 1.398438 20.171875 1.125 19.902344 C 0.855469 19.628906 0.703125 19.257812 0.703125 18.875 L 0.703125 1.6875 C 0.703125 1.300781 0.855469 0.933594 1.125 0.660156 C 1.398438 0.386719 1.769531 0.234375 2.152344 0.234375 Z M 2.152344 0.234375 " clip-rule="nonzero"/></clipPath><clipPath id="0b85de9006"><path d="M 0.703125 0.234375 L 20.644531 0.234375 L 20.644531 20.335938 L 0.703125 20.335938 Z M 0.703125 0.234375 " clip-rule="nonzero"/></clipPath><clipPath id="07c91a33f9"><path d="M 2.152344 0.234375 L 19.195312 0.234375 C 19.578125 0.234375 19.949219 0.386719 20.222656 0.660156 C 20.492188 0.933594 20.644531 1.300781 20.644531 1.6875 L 20.644531 18.875 C 20.644531 19.257812 20.492188 19.628906 20.222656 19.902344 C 19.949219 20.171875 19.578125 20.328125 19.195312 20.328125 L 2.152344 20.328125 C 1.769531 20.328125 1.398438 20.171875 1.125 19.902344 C 0.855469 19.628906 0.703125 19.257812 0.703125 18.875 L 0.703125 1.6875 C 0.703125 1.300781 0.855469 0.933594 1.125 0.660156 C 1.398438 0.386719 1.769531 0.234375 2.152344 0.234375 Z M 2.152344 0.234375 " clip-rule="nonzero"/></clipPath><clipPath id="0e60e8f8fa"><rect x="0" width="21" y="0" height="21"/></clipPath><clipPath id="eb0866210e"><path d="M 3.027344 2.316406 L 18.320312 2.316406 L 18.320312 6.707031 L 3.027344 6.707031 Z M 3.027344 2.316406 " clip-rule="nonzero"/></clipPath><clipPath id="4f03b0f4ae"><path d="M 0.0273438 0.316406 L 15.320312 0.316406 L 15.320312 4.707031 L 0.0273438 4.707031 Z M 0.0273438 0.316406 " clip-rule="nonzero"/></clipPath><clipPath id="9ba5b98f71"><rect x="0" width="16" y="0" height="5"/></clipPath><clipPath id="5651d0a9c5"><path d="M 3.027344 8.125 L 18.320312 8.125 L 18.320312 12.4375 L 3.027344 12.4375 Z M 3.027344 8.125 " clip-rule="nonzero"/></clipPath><clipPath id="b10d2c1358"><path d="M 0.0273438 0.125 L 15.320312 0.125 L 15.320312 4.4375 L 0.0273438 4.4375 Z M 0.0273438 0.125 " clip-rule="nonzero"/></clipPath><clipPath id="3d11a6370a"><rect x="0" width="16" y="0" height="5"/></clipPath><clipPath id="05ebc16d71"><path d="M 3.027344 14.097656 L 13.984375 14.097656 L 13.984375 18.433594 L 3.027344 18.433594 Z M 3.027344 14.097656 " clip-rule="nonzero"/></clipPath><clipPath id="39c1428304"><path d="M 0.0273438 0.0976562 L 10.984375 0.0976562 L 10.984375 4.433594 L 0.0273438 4.433594 Z M 0.0273438 0.0976562 " clip-rule="nonzero"/></clipPath><clipPath id="9b53f90db0"><rect x="0" width="11" y="0" height="5"/></clipPath><clipPath id="aef453eaa7"><path d="M 3.015625 2.558594 L 18.3125 2.558594 L 18.3125 6.945312 L 3.015625 6.945312 Z M 3.015625 2.558594 " clip-rule="nonzero"/></clipPath><clipPath id="912e24d4bf"><path d="M 0.015625 0.558594 L 15.3125 0.558594 L 15.3125 4.945312 L 0.015625 4.945312 Z M 0.015625 0.558594 " clip-rule="nonzero"/></clipPath><clipPath id="fa812d07eb"><rect x="0" width="16" y="0" height="5"/></clipPath><clipPath id="0fa47ac0c6"><path d="M 3.015625 8.367188 L 18.3125 8.367188 L 18.3125 12.675781 L 3.015625 12.675781 Z M 3.015625 8.367188 " clip-rule="nonzero"/></clipPath><clipPath id="ef3e094e6d"><path d="M 0.015625 0.367188 L 15.3125 0.367188 L 15.3125 4.675781 L 0.015625 4.675781 Z M 0.015625 0.367188 " clip-rule="nonzero"/></clipPath><clipPath id="9cb0cd4603"><rect x="0" width="16" y="0" height="5"/></clipPath><clipPath id="dadeeb97e6"><path d="M 3.015625 14.335938 L 13.972656 14.335938 L 13.972656 18.675781 L 3.015625 18.675781 Z M 3.015625 14.335938 " clip-rule="nonzero"/></clipPath><clipPath id="25d7a6c15e"><path d="M 0.015625 0.335938 L 10.972656 0.335938 L 10.972656 4.675781 L 0.015625 4.675781 Z M 0.015625 0.335938 " clip-rule="nonzero"/></clipPath><clipPath id="5d7df7a8b4"><rect x="0" width="11" y="0" height="5"/></clipPath><clipPath id="4f98988a94"><rect x="0" width="28" y="0" height="27"/></clipPath></defs><g transform="matrix(1, 0, 0, 1, 1, 1)"><g clip-path="url(#4f98988a94)"><g clip-path="url(#320c07baf2)"><g clip-path="url(#4fab19e4be)"><g transform="matrix(1, 0, 0, 1, 7, 6)"><g clip-path="url(#ee0643dbe0)"><g clip-path="url(#8f2f356496)"><g clip-path="url(#5a9fd348c4)"><path fill="#024d7c" d="M 0.355469 0.707031 L 20.296875 0.707031 L 20.296875 20.804688 L 0.355469 20.804688 Z M 0.355469 0.707031 " fill-opacity="1" fill-rule="nonzero"/></g></g></g></g></g></g><g clip-path="url(#4c9323f9c2)"><g clip-path="url(#1caec0be1b)"><g transform="matrix(1, 0, 0, 1, 0, 0.000000000000005551)"><g clip-path="url(#0e60e8f8fa)"><g clip-path="url(#0b85de9006)"><g clip-path="url(#07c91a33f9)"><path fill="#009dfd" d="M 0.703125 0.234375 L 20.644531 0.234375 L 20.644531 20.335938 L 0.703125 20.335938 Z M 0.703125 0.234375 " fill-opacity="1" fill-rule="nonzero"/></g></g></g></g></g></g><g clip-path="url(#eb0866210e)"><g transform="matrix(1, 0, 0, 1, 3, 2)"><g clip-path="url(#9ba5b98f71)"><g clip-path="url(#4f03b0f4ae)"><path fill="#ffffff" d="M 0.0273438 0.316406 L 15.316406 0.316406 L 15.316406 4.707031 L 0.0273438 4.707031 Z M 0.0273438 0.316406 " fill-opacity="1" fill-rule="nonzero"/></g></g></g></g><g clip-path="url(#5651d0a9c5)"><g transform="matrix(1, 0, 0, 1, 3, 8)"><g clip-path="url(#3d11a6370a)"><g clip-path="url(#b10d2c1358)"><path fill="#ffffff" d="M 0.0273438 0.125 L 15.316406 0.125 L 15.316406 4.4375 L 0.0273438 4.4375 Z M 0.0273438 0.125 " fill-opacity="1" fill-rule="nonzero"/></g></g></g></g><g clip-path="url(#05ebc16d71)"><g transform="matrix(1, 0, 0, 1, 3, 14)"><g clip-path="url(#9b53f90db0)"><g clip-path="url(#39c1428304)"><path fill="#ffffff" d="M 0.0273438 0.0976562 L 10.992188 0.0976562 L 10.992188 4.433594 L 0.0273438 4.433594 Z M 0.0273438 0.0976562 " fill-opacity="1" fill-rule="nonzero"/></g></g></g></g><g clip-path="url(#aef453eaa7)"><g transform="matrix(1, 0, 0, 1, 3, 2)"><g clip-path="url(#fa812d07eb)"><g clip-path="url(#912e24d4bf)"><path fill="#ffffff" d="M 0.015625 0.558594 L 15.304688 0.558594 L 15.304688 4.945312 L 0.015625 4.945312 Z M 0.015625 0.558594 " fill-opacity="1" fill-rule="nonzero"/></g></g></g></g><g clip-path="url(#0fa47ac0c6)"><g transform="matrix(1, 0, 0, 1, 3, 8)"><g clip-path="url(#9cb0cd4603)"><g clip-path="url(#ef3e094e6d)"><path fill="#ffffff" d="M 0.015625 0.367188 L 15.304688 0.367188 L 15.304688 4.675781 L 0.015625 4.675781 Z M 0.015625 0.367188 " fill-opacity="1" fill-rule="nonzero"/></g></g></g></g><g clip-path="url(#dadeeb97e6)"><g transform="matrix(1, 0, 0, 1, 3, 14)"><g clip-path="url(#5d7df7a8b4)"><g clip-path="url(#25d7a6c15e)"><path fill="#ffffff" d="M 0.015625 0.335938 L 10.980469 0.335938 L 10.980469 4.675781 L 0.015625 4.675781 Z M 0.015625 0.335938 " fill-opacity="1" fill-rule="nonzero"/></g></g></g></g></g></g></svg>