<svg xmlns="http://www.w3.org/2000/svg" xmlns:xlink="http://www.w3.org/1999/xlink" width="40" zoomAndPan="magnify" viewBox="0 0 30 30.000001" height="40" preserveAspectRatio="xMidYMid meet" version="1.0"><defs><clipPath id="e8e11d7171"><path d="M 1.5 1.015625 L 28.355469 1.015625 L 28.355469 27.871094 L 1.5 27.871094 Z M 1.5 1.015625 " clip-rule="nonzero"/></clipPath><clipPath id="05b97afb7f"><path d="M 2 1.015625 L 28 1.015625 L 28 27.871094 L 2 27.871094 Z M 2 1.015625 " clip-rule="nonzero"/></clipPath></defs><g clip-path="url(#e8e11d7171)"><path fill="#ebebeb" d="M 14.996094 23.574219 C 9.988281 23.574219 5.933594 19.515625 5.933594 14.511719 C 5.933594 9.507812 9.988281 5.449219 14.996094 5.449219 C 20 5.449219 24.058594 9.507812 24.058594 14.511719 C 24.058594 19.515625 20 23.574219 14.996094 23.574219 Z M 14.996094 1.015625 C 7.542969 1.015625 1.5 7.058594 1.5 14.511719 C 1.5 21.964844 7.542969 28.007812 14.996094 28.007812 C 22.449219 28.007812 28.492188 21.964844 28.492188 14.511719 C 28.492188 7.058594 22.449219 1.015625 14.996094 1.015625 " fill-opacity="1" fill-rule="nonzero"/></g><g clip-path="url(#05b97afb7f)"><path fill="#1b2a32" d="M 24.730469 16.429688 C 23.832031 21.027344 19.757812 24.484375 14.886719 24.433594 C 9.515625 24.375 5.128906 19.988281 5.074219 14.617188 C 5.019531 9.320312 9.113281 4.96875 14.308594 4.613281 L 14.308594 1.582031 C 7.46875 1.9375 2.03125 7.605469 2.046875 14.542969 C 2.0625 21.640625 7.863281 27.441406 14.960938 27.460938 C 21.277344 27.476562 26.542969 22.972656 27.707031 17 C 27.886719 16.070312 27.164062 15.210938 26.214844 15.210938 C 25.496094 15.210938 24.871094 15.71875 24.730469 16.429688 " fill-opacity="1" fill-rule="nonzero"/></g></svg>