<svg xmlns="http://www.w3.org/2000/svg" xmlns:xlink="http://www.w3.org/1999/xlink" width="500" zoomAndPan="magnify" viewBox="0 0 375 374.999991" height="500" preserveAspectRatio="xMidYMid meet" version="1.0"><defs><filter x="0%" y="0%" width="100%" height="100%" id="afe8757dc6"><feColorMatrix values="0 0 0 0 1 0 0 0 0 1 0 0 0 0 1 0 0 0 1 0" color-interpolation-filters="sRGB"/></filter><clipPath id="af82307d20"><path d="M 171 21.8125 L 206 21.8125 L 206 98 L 171 98 Z M 171 21.8125 " clip-rule="nonzero"/></clipPath><mask id="b6a09fe1d1"><g filter="url(#afe8757dc6)"><rect x="-37.5" width="450" fill="#000000" y="-37.499999" height="449.999989" fill-opacity="0.08"/></g></mask><clipPath id="6ddf69bf2b"><path d="M 1 1 L 57 1 L 57 71.558594 L 1 71.558594 Z M 1 1 " clip-rule="nonzero"/></clipPath><clipPath id="47c0da0a02"><rect x="0" width="58" y="0" height="72"/></clipPath><mask id="071a847d61"><g filter="url(#afe8757dc6)"><rect x="-37.5" width="450" fill="#000000" y="-37.499999" height="449.999989" fill-opacity="0.16"/></g></mask><clipPath id="a257b76a01"><path d="M 0.28125 0.238281 L 71 0.238281 L 71 56 L 0.28125 56 Z M 0.28125 0.238281 " clip-rule="nonzero"/></clipPath><clipPath id="84a3c0ce8d"><rect x="0" width="72" y="0" height="57"/></clipPath><clipPath id="8e9508c24c"><path d="M 277 170 L 353.3125 170 L 353.3125 207 L 277 207 Z M 277 170 " clip-rule="nonzero"/></clipPath><mask id="044de175bc"><g filter="url(#afe8757dc6)"><rect x="-37.5" width="450" fill="#000000" y="-37.499999" height="449.999989" fill-opacity="0.24"/></g></mask><clipPath id="2f800ce9fd"><path d="M 0.199219 1 L 76.3125 1 L 76.3125 36 L 0.199219 36 Z M 0.199219 1 " clip-rule="nonzero"/></clipPath><clipPath id="d630854b37"><rect x="0" width="77" y="0" height="37"/></clipPath><mask id="be58f7434e"><g filter="url(#afe8757dc6)"><rect x="-37.5" width="450" fill="#000000" y="-37.499999" height="449.999989" fill-opacity="0.32"/></g></mask><clipPath id="4de2e39553"><path d="M 0.558594 0.640625 L 71 0.640625 L 71 56 L 0.558594 56 Z M 0.558594 0.640625 " clip-rule="nonzero"/></clipPath><clipPath id="ab53847364"><rect x="0" width="72" y="0" height="57"/></clipPath><mask id="9e5fd0cd5c"><g filter="url(#afe8757dc6)"><rect x="-37.5" width="450" fill="#000000" y="-37.499999" height="449.999989" fill-opacity="0.4"/></g></mask><clipPath id="802590a9a8"><path d="M 0.480469 0.28125 L 56 0.28125 L 56 71 L 0.480469 71 Z M 0.480469 0.28125 " clip-rule="nonzero"/></clipPath><clipPath id="70f07bb3af"><rect x="0" width="57" y="0" height="72"/></clipPath><clipPath id="31ea51e36f"><path d="M 168 277 L 205 277 L 205 353.3125 L 168 353.3125 Z M 168 277 " clip-rule="nonzero"/></clipPath><mask id="aa6538c6d3"><g filter="url(#afe8757dc6)"><rect x="-37.5" width="450" fill="#000000" y="-37.499999" height="449.999989" fill-opacity="0.48"/></g></mask><clipPath id="928b52b8ef"><path d="M 0.480469 0.199219 L 36 0.199219 L 36 76.3125 L 0.480469 76.3125 Z M 0.480469 0.199219 " clip-rule="nonzero"/></clipPath><clipPath id="dd8e265b02"><rect x="0" width="37" y="0" height="77"/></clipPath><mask id="4378401e8c"><g filter="url(#afe8757dc6)"><rect x="-37.5" width="450" fill="#000000" y="-37.499999" height="449.999989" fill-opacity="0.56"/></g></mask><clipPath id="fa7bea20be"><path d="M 0.558594 1 L 56.480469 1 L 56.480469 71.878906 L 0.558594 71.878906 Z M 0.558594 1 " clip-rule="nonzero"/></clipPath><clipPath id="93c8cba67c"><rect x="0" width="57" y="0" height="72"/></clipPath><mask id="032d2b3c15"><g filter="url(#afe8757dc6)"><rect x="-37.5" width="450" fill="#000000" y="-37.499999" height="449.999989" fill-opacity="0.64"/></g></mask><clipPath id="bb9b08d844"><path d="M 1 0.480469 L 71.601562 0.480469 L 71.601562 56 L 1 56 Z M 1 0.480469 " clip-rule="nonzero"/></clipPath><clipPath id="6c47d3c6f5"><rect x="0" width="72" y="0" height="57"/></clipPath><clipPath id="7a822e779a"><path d="M 21.8125 168 L 98 168 L 98 205 L 21.8125 205 Z M 21.8125 168 " clip-rule="nonzero"/></clipPath><mask id="8d9a859aa2"><g filter="url(#afe8757dc6)"><rect x="-37.5" width="450" fill="#000000" y="-37.499999" height="449.999989" fill-opacity="0.72"/></g></mask><clipPath id="025458e7ac"><path d="M 0.8125 0.480469 L 76.921875 0.480469 L 76.921875 36 L 0.8125 36 Z M 0.8125 0.480469 " clip-rule="nonzero"/></clipPath><clipPath id="08e93caf19"><rect x="0" width="77" y="0" height="37"/></clipPath><mask id="7569b0f49f"><g filter="url(#afe8757dc6)"><rect x="-37.5" width="450" fill="#000000" y="-37.499999" height="449.999989" fill-opacity="0.8"/></g></mask><clipPath id="a83de1c58c"><path d="M 0.238281 0.800781 L 71 0.800781 L 71 56.480469 L 0.238281 56.480469 Z M 0.238281 0.800781 " clip-rule="nonzero"/></clipPath><clipPath id="1ad45d5c59"><rect x="0" width="72" y="0" height="57"/></clipPath><mask id="e43de79f7f"><g filter="url(#afe8757dc6)"><rect x="-37.5" width="450" fill="#000000" y="-37.499999" height="449.999989" fill-opacity="0.9"/></g></mask><clipPath id="22e30b121c"><path d="M 1 1 L 56.640625 1 L 56.640625 71.839844 L 1 71.839844 Z M 1 1 " clip-rule="nonzero"/></clipPath><clipPath id="82b2c37226"><rect x="0" width="57" y="0" height="72"/></clipPath></defs><g clip-path="url(#af82307d20)"><path fill="#2a7c7c" d="M 188.378906 97.433594 C 178.828125 97.433594 171.085938 89.691406 171.085938 80.140625 L 171.085938 39.144531 C 171.085938 29.589844 178.828125 21.847656 188.378906 21.847656 C 197.933594 21.847656 205.675781 29.589844 205.675781 39.144531 L 205.675781 80.140625 C 205.675781 89.683594 197.933594 97.433594 188.378906 97.433594 Z M 188.378906 97.433594 " fill-opacity="1" fill-rule="nonzero"/></g><g mask="url(#b6a09fe1d1)"><g transform="matrix(1, 0, 0, 1, 223, 41)"><g clip-path="url(#47c0da0a02)"><g clip-path="url(#6ddf69bf2b)"><path fill="#2a7c7c" d="M 10.316406 68.972656 C 2.050781 64.191406 -0.78125 53.617188 3.996094 45.34375 L 24.503906 9.847656 C 29.28125 1.582031 39.855469 -1.25 48.132812 3.527344 C 56.398438 8.308594 59.230469 18.882812 54.453125 27.15625 L 33.945312 62.652344 C 29.167969 70.917969 18.59375 73.742188 10.316406 68.972656 Z M 10.316406 68.972656 " fill-opacity="1" fill-rule="nonzero"/></g></g></g></g><g mask="url(#071a847d61)"><g transform="matrix(1, 0, 0, 1, 263, 96)"><g clip-path="url(#84a3c0ce8d)"><g clip-path="url(#a257b76a01)"><path fill="#2a7c7c" d="M 2.957031 47.304688 C -1.8125 39.03125 1.03125 28.457031 9.300781 23.683594 L 44.816406 3.207031 C 53.089844 -1.566406 63.664062 1.28125 68.4375 9.546875 C 73.210938 17.824219 70.363281 28.398438 62.09375 33.171875 L 26.578125 53.644531 C 18.304688 58.417969 7.730469 55.582031 2.957031 47.304688 Z M 2.957031 47.304688 " fill-opacity="1" fill-rule="nonzero"/></g></g></g></g><g clip-path="url(#8e9508c24c)"><g mask="url(#044de175bc)"><g transform="matrix(1, 0, 0, 1, 277, 170)"><g clip-path="url(#d630854b37)"><g clip-path="url(#2f800ce9fd)"><path fill="#2a7c7c" d="M 0.546875 18.503906 C 0.554688 8.953125 8.304688 1.21875 17.855469 1.222656 L 58.851562 1.261719 C 68.402344 1.269531 76.140625 9.019531 76.132812 18.570312 C 76.125 28.121094 68.375 35.859375 58.824219 35.851562 L 17.828125 35.8125 C 8.273438 35.804688 0.539062 28.058594 0.546875 18.503906 Z M 0.546875 18.503906 " fill-opacity="1" fill-rule="nonzero"/></g></g></g></g></g><g mask="url(#be58f7434e)"><g transform="matrix(1, 0, 0, 1, 262, 224)"><g clip-path="url(#ab53847364)"><g clip-path="url(#4de2e39553)"><path fill="#2a7c7c" d="M 2.964844 9.433594 C 7.753906 1.167969 18.332031 -1.652344 26.59375 3.136719 L 62.066406 23.679688 C 70.335938 28.464844 73.152344 39.046875 68.363281 47.308594 C 63.578125 55.574219 52.996094 58.390625 44.734375 53.605469 L 9.261719 33.0625 C 1.003906 28.277344 -1.820312 17.703125 2.964844 9.433594 Z M 2.964844 9.433594 " fill-opacity="1" fill-rule="nonzero"/></g></g></g></g><g mask="url(#9e5fd0cd5c)"><g transform="matrix(1, 0, 0, 1, 222, 263)"><g clip-path="url(#70f07bb3af)"><g clip-path="url(#802590a9a8)"><path fill="#2a7c7c" d="M 9.59375 3.046875 C 17.878906 -1.71875 28.445312 1.132812 33.210938 9.417969 L 53.648438 44.945312 C 58.414062 53.230469 55.5625 63.796875 47.277344 68.5625 C 38.996094 73.328125 28.429688 70.472656 23.664062 62.191406 L 3.230469 26.660156 C -1.535156 18.378906 1.320312 7.804688 9.59375 3.046875 Z M 9.59375 3.046875 " fill-opacity="1" fill-rule="nonzero"/></g></g></g></g><g clip-path="url(#31ea51e36f)"><g mask="url(#aa6538c6d3)"><g transform="matrix(1, 0, 0, 1, 168, 277)"><g clip-path="url(#dd8e265b02)"><g clip-path="url(#928b52b8ef)"><path fill="#2a7c7c" d="M 18.386719 0.582031 C 27.941406 0.597656 35.667969 8.363281 35.644531 17.90625 L 35.566406 58.902344 C 35.550781 68.457031 27.789062 76.183594 18.242188 76.160156 C 8.691406 76.148438 0.960938 68.382812 0.984375 58.835938 L 1.066406 17.839844 C 1.078125 8.296875 8.835938 0.566406 18.386719 0.582031 Z M 18.386719 0.582031 " fill-opacity="1" fill-rule="nonzero"/></g></g></g></g></g><g mask="url(#4378401e8c)"><g transform="matrix(1, 0, 0, 1, 94, 261)"><g clip-path="url(#93c8cba67c)"><g clip-path="url(#fa7bea20be)"><path fill="#2a7c7c" d="M 47.472656 3.964844 C 55.734375 8.761719 58.542969 19.339844 53.75 27.601562 L 33.179688 63.058594 C 28.382812 71.320312 17.800781 74.128906 9.542969 69.335938 C 1.28125 64.539062 -1.527344 53.960938 3.265625 45.699219 L 23.835938 10.242188 C 28.625 1.980469 39.210938 -0.828125 47.472656 3.964844 Z M 47.472656 3.964844 " fill-opacity="1" fill-rule="nonzero"/></g></g></g></g><g mask="url(#032d2b3c15)"><g transform="matrix(1, 0, 0, 1, 40, 222)"><g clip-path="url(#6c47d3c6f5)"><g clip-path="url(#bb9b08d844)"><path fill="#2a7c7c" d="M 68.890625 9.566406 C 73.648438 17.847656 70.789062 28.421875 62.5 33.171875 L 26.953125 53.574219 C 18.671875 58.332031 8.097656 55.472656 3.347656 47.183594 C -1.410156 38.902344 1.449219 28.328125 9.738281 23.578125 L 45.292969 3.167969 C 53.566406 -1.585938 64.140625 1.277344 68.890625 9.566406 Z M 68.890625 9.566406 " fill-opacity="1" fill-rule="nonzero"/></g></g></g></g><g clip-path="url(#7a822e779a)"><g mask="url(#8d9a859aa2)"><g transform="matrix(1, 0, 0, 1, 21, 168)"><g clip-path="url(#08e93caf19)"><g clip-path="url(#025458e7ac)"><path fill="#2a7c7c" d="M 76.390625 18.34375 C 76.359375 27.898438 68.597656 35.617188 59.042969 35.589844 L 18.046875 35.472656 C 8.503906 35.449219 0.78125 27.683594 0.8125 18.132812 C 0.839844 8.582031 8.605469 0.859375 18.15625 0.890625 L 59.152344 1.007812 C 68.699219 1.027344 76.417969 8.792969 76.390625 18.34375 Z M 76.390625 18.34375 " fill-opacity="1" fill-rule="nonzero"/></g></g></g></g></g><g mask="url(#7569b0f49f)"><g transform="matrix(1, 0, 0, 1, 42, 94)"><g clip-path="url(#1ad45d5c59)"><g clip-path="url(#a83de1c58c)"><path fill="#2a7c7c" d="M 68.058594 47.4375 C 63.257812 55.691406 52.667969 58.492188 44.414062 53.691406 L 8.980469 33.082031 C 0.726562 28.28125 -2.074219 17.691406 2.726562 9.441406 C 7.527344 1.1875 18.117188 -1.617188 26.367188 3.1875 L 61.804688 23.792969 C 70.058594 28.59375 72.859375 39.183594 68.058594 47.4375 Z M 68.058594 47.4375 " fill-opacity="1" fill-rule="nonzero"/></g></g></g></g><g mask="url(#e43de79f7f)"><g transform="matrix(1, 0, 0, 1, 96, 40)"><g clip-path="url(#82b2c37226)"><g clip-path="url(#22e30b121c)"><path fill="#2a7c7c" d="M 47.488281 68.890625 C 39.199219 73.640625 28.632812 70.765625 23.886719 62.476562 L 3.515625 26.902344 C -1.238281 18.613281 1.636719 8.046875 9.929688 3.300781 C 18.21875 -1.449219 28.785156 1.425781 33.527344 9.71875 L 53.902344 45.292969 C 58.644531 53.574219 55.777344 64.148438 47.488281 68.890625 Z M 47.488281 68.890625 " fill-opacity="1" fill-rule="nonzero"/></g></g></g></g></svg>