<svg xmlns="http://www.w3.org/2000/svg" xmlns:xlink="http://www.w3.org/1999/xlink" width="500" zoomAndPan="magnify" viewBox="0 0 375 374.999991" height="500" preserveAspectRatio="xMidYMid meet" version="1.0"><defs><filter x="0%" y="0%" width="100%" height="100%" id="38d539040a"><feColorMatrix values="0 0 0 0 1 0 0 0 0 1 0 0 0 0 1 0 0 0 1 0" color-interpolation-filters="sRGB"/></filter><clipPath id="c7a5901a3d"><path d="M 156 22.183594 L 223 22.183594 L 223 88 L 156 88 Z M 156 22.183594 " clip-rule="nonzero"/></clipPath><mask id="f2bd52f94c"><g filter="url(#38d539040a)"><rect x="-37.5" width="450" fill="#000000" y="-37.499999" height="449.999989" fill-opacity="0.9"/></g></mask><clipPath id="7a11078a71"><rect x="0" width="67" y="0" height="66"/></clipPath><mask id="56e41a8ac3"><g filter="url(#38d539040a)"><rect x="-37.5" width="450" fill="#000000" y="-37.499999" height="449.999989" fill-opacity="0.9"/></g></mask><clipPath id="6b62521d2e"><rect x="0" width="54" y="0" height="54"/></clipPath><mask id="0a92d2d3da"><g filter="url(#38d539040a)"><rect x="-37.5" width="450" fill="#000000" y="-37.499999" height="449.999989" fill-opacity="0.9"/></g></mask><clipPath id="4252f82561"><rect x="0" width="66" y="0" height="66"/></clipPath><clipPath id="28c8c65103"><path d="M 28.433594 162 L 81 162 L 81 216 L 28.433594 216 Z M 28.433594 162 " clip-rule="nonzero"/></clipPath><mask id="2dcd80c79a"><g filter="url(#38d539040a)"><rect x="-37.5" width="450" fill="#000000" y="-37.499999" height="449.999989" fill-opacity="0.9"/></g></mask><clipPath id="1ad5da933d"><rect x="0" width="53" y="0" height="54"/></clipPath><mask id="65edba9d48"><g filter="url(#38d539040a)"><rect x="-37.5" width="450" fill="#000000" y="-37.499999" height="449.999989" fill-opacity="0.8"/></g></mask><clipPath id="cba2a52b88"><rect x="0" width="58" y="0" height="58"/></clipPath><mask id="0b00849a13"><g filter="url(#38d539040a)"><rect x="-37.5" width="450" fill="#000000" y="-37.499999" height="449.999989" fill-opacity="0.7"/></g></mask><clipPath id="c13a5cb155"><rect x="0" width="66" y="0" height="66"/></clipPath><clipPath id="38b8e34deb"><path d="M 160 295 L 219 295 L 219 352.933594 L 160 352.933594 Z M 160 295 " clip-rule="nonzero"/></clipPath><mask id="e0446ba559"><g filter="url(#38d539040a)"><rect x="-37.5" width="450" fill="#000000" y="-37.499999" height="449.999989" fill-opacity="0.6"/></g></mask><clipPath id="6f403704d4"><rect x="0" width="59" y="0" height="58"/></clipPath><mask id="3eb2568e9e"><g filter="url(#38d539040a)"><rect x="-37.5" width="450" fill="#000000" y="-37.499999" height="449.999989" fill-opacity="0.5"/></g></mask><clipPath id="f099ce6883"><path d="M 0.160156 0.601562 L 41.441406 0.601562 L 41.441406 41.878906 L 0.160156 41.878906 Z M 0.160156 0.601562 " clip-rule="nonzero"/></clipPath><clipPath id="c2d33f3948"><rect x="0" width="42" y="0" height="42"/></clipPath><mask id="874181b5f8"><g filter="url(#38d539040a)"><rect x="-37.5" width="450" fill="#000000" y="-37.499999" height="449.999989" fill-opacity="0.4"/></g></mask><clipPath id="40fdfb455d"><rect x="0" width="40" y="0" height="40"/></clipPath><clipPath id="b70db2c93b"><path d="M 307 172 L 341.183594 172 L 341.183594 207 L 307 207 Z M 307 172 " clip-rule="nonzero"/></clipPath><mask id="c3be87c2f4"><g filter="url(#38d539040a)"><rect x="-37.5" width="450" fill="#000000" y="-37.499999" height="449.999989" fill-opacity="0.3"/></g></mask><clipPath id="74d5ce896f"><rect x="0" width="35" y="0" height="35"/></clipPath><mask id="489c4a3283"><g filter="url(#38d539040a)"><rect x="-37.5" width="450" fill="#000000" y="-37.499999" height="449.999989" fill-opacity="0.2"/></g></mask><clipPath id="680f00e812"><rect x="0" width="24" y="0" height="24"/></clipPath><mask id="4b1a0a5e21"><g filter="url(#38d539040a)"><rect x="-37.5" width="450" fill="#000000" y="-37.499999" height="449.999989" fill-opacity="0.1"/></g></mask><clipPath id="beed73ca70"><path d="M 0.601562 0.519531 L 15 0.519531 L 15 14.679688 L 0.601562 14.679688 Z M 0.601562 0.519531 " clip-rule="nonzero"/></clipPath><clipPath id="e1391c8c43"><rect x="0" width="15" y="0" height="15"/></clipPath></defs><g clip-path="url(#c7a5901a3d)"><g mask="url(#f2bd52f94c)"><g transform="matrix(1, 0, 0, 1, 156, 22)"><g clip-path="url(#7a11078a71)"><path fill="#2a7c7c" d="M 49.53125 16.429688 C 50.0625 16.957031 50.5625 17.511719 51.035156 18.089844 C 51.511719 18.667969 51.957031 19.265625 52.371094 19.886719 C 52.785156 20.507812 53.167969 21.148438 53.523438 21.808594 C 53.875 22.46875 54.195312 23.140625 54.480469 23.832031 C 54.765625 24.523438 55.015625 25.226562 55.234375 25.941406 C 55.449219 26.65625 55.632812 27.378906 55.777344 28.113281 C 55.921875 28.847656 56.03125 29.585938 56.105469 30.328125 C 56.179688 31.070312 56.214844 31.816406 56.214844 32.566406 C 56.214844 33.3125 56.179688 34.058594 56.105469 34.800781 C 56.03125 35.542969 55.921875 36.28125 55.777344 37.015625 C 55.632812 37.75 55.449219 38.472656 55.234375 39.1875 C 55.015625 39.902344 54.765625 40.605469 54.480469 41.296875 C 54.195312 41.988281 53.875 42.660156 53.523438 43.320312 C 53.167969 43.980469 52.785156 44.621094 52.371094 45.242188 C 51.957031 45.863281 51.511719 46.460938 51.035156 47.039062 C 50.5625 47.617188 50.0625 48.171875 49.53125 48.699219 C 49.003906 49.226562 48.453125 49.730469 47.875 50.203125 C 47.296875 50.675781 46.695312 51.121094 46.074219 51.535156 C 45.453125 51.953125 44.8125 52.335938 44.15625 52.6875 C 43.496094 53.039062 42.820312 53.359375 42.128906 53.644531 C 41.441406 53.929688 40.738281 54.183594 40.023438 54.398438 C 39.308594 54.617188 38.582031 54.796875 37.851562 54.945312 C 37.117188 55.089844 36.378906 55.199219 35.636719 55.273438 C 34.890625 55.34375 34.144531 55.382812 33.398438 55.382812 C 32.652344 55.382812 31.90625 55.34375 31.160156 55.273438 C 30.417969 55.199219 29.679688 55.089844 28.945312 54.945312 C 28.214844 54.796875 27.488281 54.617188 26.773438 54.398438 C 26.058594 54.183594 25.355469 53.929688 24.667969 53.644531 C 23.976562 53.359375 23.300781 53.039062 22.640625 52.6875 C 21.984375 52.335938 21.34375 51.953125 20.722656 51.535156 C 20.101562 51.121094 19.5 50.675781 18.921875 50.203125 C 18.34375 49.730469 17.792969 49.226562 17.265625 48.699219 C 16.734375 48.171875 16.234375 47.617188 15.761719 47.039062 C 15.285156 46.460938 14.839844 45.863281 14.425781 45.242188 C 14.011719 44.621094 13.628906 43.980469 13.273438 43.320312 C 12.921875 42.660156 12.605469 41.988281 12.316406 41.296875 C 12.03125 40.605469 11.78125 39.902344 11.5625 39.1875 C 11.347656 38.472656 11.164062 37.75 11.019531 37.015625 C 10.875 36.28125 10.765625 35.542969 10.691406 34.800781 C 10.617188 34.058594 10.582031 33.3125 10.582031 32.5625 C 10.582031 31.816406 10.617188 31.070312 10.691406 30.328125 C 10.765625 29.585938 10.875 28.847656 11.019531 28.113281 C 11.164062 27.378906 11.347656 26.65625 11.5625 25.941406 C 11.78125 25.226562 12.03125 24.523438 12.316406 23.832031 C 12.605469 23.140625 12.921875 22.46875 13.273438 21.808594 C 13.628906 21.148438 14.011719 20.507812 14.425781 19.886719 C 14.839844 19.265625 15.285156 18.667969 15.761719 18.089844 C 16.234375 17.511719 16.734375 16.957031 17.265625 16.429688 C 17.792969 15.902344 18.34375 15.398438 18.921875 14.925781 C 19.5 14.453125 20.101562 14.007812 20.722656 13.59375 C 21.34375 13.175781 21.984375 12.792969 22.640625 12.441406 C 23.300781 12.089844 23.976562 11.769531 24.667969 11.484375 C 25.355469 11.199219 26.058594 10.945312 26.773438 10.730469 C 27.488281 10.511719 28.214844 10.332031 28.945312 10.183594 C 29.679688 10.039062 30.417969 9.929688 31.160156 9.855469 C 31.90625 9.785156 32.652344 9.746094 33.398438 9.746094 C 34.144531 9.746094 34.890625 9.785156 35.636719 9.855469 C 36.378906 9.929688 37.117188 10.039062 37.851562 10.183594 C 38.582031 10.332031 39.308594 10.511719 40.023438 10.730469 C 40.738281 10.945312 41.441406 11.199219 42.128906 11.484375 C 42.820312 11.769531 43.496094 12.089844 44.15625 12.441406 C 44.8125 12.792969 45.453125 13.175781 46.074219 13.59375 C 46.695312 14.007812 47.296875 14.453125 47.875 14.925781 C 48.453125 15.398438 49.003906 15.902344 49.53125 16.429688 Z M 49.53125 16.429688 " fill-opacity="1" fill-rule="nonzero"/></g></g></g></g><g mask="url(#56e41a8ac3)"><g transform="matrix(1, 0, 0, 1, 95, 46)"><g clip-path="url(#6b62521d2e)"><path fill="#2a7c7c" d="M 30.84375 4.136719 C 31.578125 4.261719 32.308594 4.425781 33.027344 4.625 C 33.75 4.820312 34.457031 5.054688 35.15625 5.324219 C 35.851562 5.589844 36.535156 5.890625 37.203125 6.226562 C 37.871094 6.5625 38.523438 6.929688 39.152344 7.328125 C 39.785156 7.726562 40.398438 8.15625 40.988281 8.613281 C 41.574219 9.074219 42.140625 9.558594 42.683594 10.074219 C 43.226562 10.589844 43.742188 11.128906 44.230469 11.695312 C 44.71875 12.257812 45.179688 12.847656 45.609375 13.457031 C 46.042969 14.066406 46.441406 14.699219 46.8125 15.347656 C 47.179688 15.996094 47.515625 16.664062 47.820312 17.34375 C 48.125 18.027344 48.394531 18.722656 48.628906 19.433594 C 48.867188 20.144531 49.066406 20.863281 49.230469 21.589844 C 49.394531 22.320312 49.523438 23.054688 49.617188 23.796875 C 49.710938 24.539062 49.765625 25.28125 49.785156 26.027344 C 49.804688 26.777344 49.785156 27.523438 49.734375 28.269531 C 49.679688 29.011719 49.589844 29.753906 49.460938 30.492188 C 49.335938 31.226562 49.171875 31.957031 48.976562 32.675781 C 48.777344 33.398438 48.542969 34.105469 48.277344 34.804688 C 48.007812 35.5 47.707031 36.183594 47.371094 36.851562 C 47.035156 37.519531 46.667969 38.167969 46.269531 38.800781 C 45.871094 39.433594 45.441406 40.042969 44.984375 40.632812 C 44.523438 41.222656 44.039062 41.789062 43.523438 42.332031 C 43.007812 42.875 42.46875 43.390625 41.902344 43.878906 C 41.339844 44.367188 40.75 44.828125 40.140625 45.257812 C 39.53125 45.691406 38.902344 46.089844 38.25 46.460938 C 37.601562 46.828125 36.933594 47.164062 36.253906 47.46875 C 35.570312 47.773438 34.875 48.042969 34.164062 48.277344 C 33.457031 48.511719 32.734375 48.714844 32.007812 48.878906 C 31.277344 49.042969 30.542969 49.171875 29.800781 49.265625 C 29.058594 49.355469 28.316406 49.414062 27.570312 49.433594 C 26.820312 49.453125 26.074219 49.433594 25.332031 49.378906 C 24.585938 49.328125 23.84375 49.238281 23.109375 49.109375 C 22.371094 48.984375 21.640625 48.820312 20.921875 48.621094 C 20.203125 48.425781 19.492188 48.191406 18.792969 47.921875 C 18.097656 47.65625 17.414062 47.355469 16.746094 47.019531 C 16.078125 46.683594 15.429688 46.316406 14.796875 45.917969 C 14.164062 45.519531 13.554688 45.089844 12.964844 44.632812 C 12.375 44.171875 11.808594 43.6875 11.265625 43.171875 C 10.722656 42.65625 10.207031 42.117188 9.71875 41.550781 C 9.230469 40.988281 8.769531 40.398438 8.339844 39.789062 C 7.910156 39.179688 7.507812 38.546875 7.140625 37.898438 C 6.769531 37.25 6.433594 36.582031 6.128906 35.898438 C 5.824219 35.21875 5.554688 34.523438 5.320312 33.8125 C 5.085938 33.101562 4.882812 32.382812 4.71875 31.65625 C 4.554688 30.925781 4.425781 30.191406 4.332031 29.449219 C 4.242188 28.707031 4.183594 27.964844 4.164062 27.214844 C 4.144531 26.46875 4.164062 25.722656 4.21875 24.976562 C 4.269531 24.234375 4.363281 23.492188 4.488281 22.753906 C 4.613281 22.019531 4.777344 21.289062 4.976562 20.570312 C 5.171875 19.847656 5.40625 19.140625 5.675781 18.441406 C 5.941406 17.746094 6.242188 17.0625 6.578125 16.394531 C 6.914062 15.726562 7.28125 15.078125 7.679688 14.445312 C 8.078125 13.8125 8.507812 13.203125 8.964844 12.613281 C 9.425781 12.023438 9.910156 11.457031 10.425781 10.914062 C 10.941406 10.371094 11.480469 9.855469 12.046875 9.367188 C 12.609375 8.878906 13.199219 8.417969 13.808594 7.988281 C 14.417969 7.554688 15.050781 7.15625 15.699219 6.785156 C 16.347656 6.417969 17.015625 6.082031 17.699219 5.777344 C 18.378906 5.472656 19.078125 5.203125 19.785156 4.96875 C 20.496094 4.734375 21.214844 4.53125 21.941406 4.367188 C 22.671875 4.203125 23.40625 4.074219 24.148438 3.980469 C 24.890625 3.890625 25.632812 3.832031 26.382812 3.8125 C 27.128906 3.792969 27.875 3.8125 28.621094 3.863281 C 29.367188 3.917969 30.105469 4.007812 30.84375 4.136719 Z M 30.84375 4.136719 " fill-opacity="1" fill-rule="nonzero"/></g></g></g><g mask="url(#0a92d2d3da)"><g transform="matrix(1, 0, 0, 1, 40, 89)"><g clip-path="url(#4252f82561)"><path fill="#2a7c7c" d="M 48.773438 16.839844 C 49.300781 17.367188 49.804688 17.921875 50.277344 18.5 C 50.75 19.078125 51.195312 19.675781 51.609375 20.296875 C 52.027344 20.917969 52.410156 21.558594 52.761719 22.21875 C 53.113281 22.878906 53.433594 23.550781 53.71875 24.242188 C 54.003906 24.933594 54.257812 25.636719 54.472656 26.351562 C 54.691406 27.066406 54.871094 27.789062 55.019531 28.523438 C 55.164062 29.257812 55.273438 29.996094 55.347656 30.738281 C 55.417969 31.480469 55.457031 32.226562 55.457031 32.976562 C 55.457031 33.722656 55.417969 34.46875 55.347656 35.210938 C 55.273438 35.957031 55.164062 36.695312 55.019531 37.425781 C 54.871094 38.160156 54.691406 38.882812 54.472656 39.597656 C 54.257812 40.3125 54.003906 41.015625 53.71875 41.707031 C 53.433594 42.398438 53.113281 43.070312 52.761719 43.730469 C 52.410156 44.390625 52.027344 45.03125 51.609375 45.652344 C 51.195312 46.273438 50.75 46.871094 50.277344 47.449219 C 49.804688 48.027344 49.300781 48.582031 48.773438 49.109375 C 48.246094 49.636719 47.691406 50.140625 47.113281 50.613281 C 46.535156 51.085938 45.9375 51.53125 45.316406 51.945312 C 44.695312 52.363281 44.054688 52.746094 43.394531 53.097656 C 42.734375 53.449219 42.0625 53.769531 41.371094 54.054688 C 40.679688 54.339844 39.976562 54.59375 39.261719 54.808594 C 38.546875 55.027344 37.824219 55.207031 37.089844 55.355469 C 36.355469 55.5 35.617188 55.609375 34.875 55.683594 C 34.132812 55.757812 33.386719 55.792969 32.636719 55.792969 C 31.890625 55.792969 31.144531 55.757812 30.402344 55.683594 C 29.660156 55.609375 28.921875 55.5 28.1875 55.355469 C 27.453125 55.207031 26.730469 55.027344 26.015625 54.808594 C 25.300781 54.59375 24.597656 54.339844 23.90625 54.054688 C 23.214844 53.769531 22.542969 53.449219 21.882812 53.097656 C 21.222656 52.746094 20.582031 52.363281 19.960938 51.945312 C 19.339844 51.53125 18.742188 51.085938 18.164062 50.613281 C 17.585938 50.140625 17.03125 49.636719 16.503906 49.109375 C 15.976562 48.582031 15.472656 48.027344 15 47.449219 C 14.527344 46.871094 14.082031 46.273438 13.667969 45.652344 C 13.25 45.03125 12.867188 44.390625 12.515625 43.730469 C 12.164062 43.070312 11.84375 42.398438 11.558594 41.707031 C 11.273438 41.015625 11.019531 40.3125 10.804688 39.597656 C 10.585938 38.882812 10.40625 38.160156 10.257812 37.425781 C 10.113281 36.695312 10.003906 35.957031 9.929688 35.210938 C 9.859375 34.46875 9.820312 33.722656 9.820312 32.976562 C 9.820312 32.226562 9.859375 31.480469 9.929688 30.738281 C 10.003906 29.996094 10.113281 29.257812 10.257812 28.523438 C 10.40625 27.789062 10.585938 27.066406 10.804688 26.351562 C 11.019531 25.636719 11.273438 24.933594 11.558594 24.242188 C 11.84375 23.550781 12.164062 22.878906 12.515625 22.21875 C 12.867188 21.558594 13.25 20.917969 13.667969 20.296875 C 14.082031 19.675781 14.527344 19.078125 15 18.5 C 15.472656 17.921875 15.976562 17.367188 16.503906 16.839844 C 17.03125 16.3125 17.585938 15.8125 18.164062 15.335938 C 18.742188 14.863281 19.339844 14.417969 19.960938 14.003906 C 20.582031 13.585938 21.222656 13.203125 21.882812 12.851562 C 22.542969 12.5 23.214844 12.179688 23.90625 11.894531 C 24.597656 11.609375 25.300781 11.355469 26.015625 11.140625 C 26.730469 10.921875 27.453125 10.742188 28.1875 10.59375 C 28.921875 10.449219 29.660156 10.339844 30.402344 10.265625 C 31.144531 10.195312 31.890625 10.15625 32.636719 10.15625 C 33.386719 10.15625 34.132812 10.195312 34.875 10.265625 C 35.617188 10.339844 36.355469 10.449219 37.089844 10.59375 C 37.824219 10.742188 38.546875 10.921875 39.261719 11.140625 C 39.976562 11.355469 40.679688 11.609375 41.371094 11.894531 C 42.0625 12.179688 42.734375 12.5 43.394531 12.851562 C 44.054688 13.203125 44.695312 13.585938 45.316406 14.003906 C 45.9375 14.417969 46.535156 14.863281 47.113281 15.335938 C 47.691406 15.8125 48.246094 16.3125 48.773438 16.839844 Z M 48.773438 16.839844 " fill-opacity="1" fill-rule="nonzero"/></g></g></g><g clip-path="url(#28c8c65103)"><g mask="url(#2dcd80c79a)"><g transform="matrix(1, 0, 0, 1, 28, 162)"><g clip-path="url(#1ad5da933d)"><path fill="#2a7c7c" d="M 30.183594 4.851562 C 30.921875 4.96875 31.652344 5.125 32.375 5.3125 C 33.097656 5.503906 33.808594 5.730469 34.507812 5.988281 C 35.210938 6.25 35.898438 6.542969 36.570312 6.871094 C 37.242188 7.195312 37.894531 7.554688 38.53125 7.949219 C 39.167969 8.339844 39.78125 8.761719 40.378906 9.214844 C 40.972656 9.664062 41.542969 10.144531 42.09375 10.652344 C 42.640625 11.164062 43.160156 11.695312 43.65625 12.253906 C 44.152344 12.816406 44.621094 13.398438 45.058594 14.003906 C 45.496094 14.609375 45.902344 15.234375 46.28125 15.878906 C 46.65625 16.523438 47 17.1875 47.3125 17.867188 C 47.625 18.546875 47.902344 19.238281 48.144531 19.945312 C 48.390625 20.652344 48.597656 21.367188 48.769531 22.09375 C 48.945312 22.820312 49.082031 23.554688 49.183594 24.296875 C 49.28125 25.035156 49.347656 25.78125 49.375 26.527344 C 49.402344 27.273438 49.394531 28.019531 49.347656 28.765625 C 49.304688 29.511719 49.222656 30.253906 49.105469 30.992188 C 48.984375 31.730469 48.832031 32.460938 48.640625 33.183594 C 48.453125 33.90625 48.226562 34.617188 47.96875 35.316406 C 47.707031 36.019531 47.414062 36.703125 47.085938 37.375 C 46.757812 38.046875 46.398438 38.703125 46.007812 39.339844 C 45.617188 39.976562 45.195312 40.589844 44.742188 41.1875 C 44.289062 41.78125 43.808594 42.351562 43.300781 42.898438 C 42.792969 43.449219 42.257812 43.96875 41.699219 44.464844 C 41.140625 44.960938 40.558594 45.425781 39.953125 45.867188 C 39.347656 46.304688 38.722656 46.710938 38.078125 47.089844 C 37.429688 47.464844 36.769531 47.808594 36.089844 48.121094 C 35.410156 48.433594 34.71875 48.710938 34.011719 48.953125 C 33.304688 49.195312 32.585938 49.40625 31.859375 49.578125 C 31.132812 49.75 30.398438 49.890625 29.660156 49.988281 C 28.917969 50.089844 28.175781 50.15625 27.429688 50.183594 C 26.683594 50.210938 25.9375 50.203125 25.191406 50.15625 C 24.445312 50.113281 23.703125 50.03125 22.964844 49.910156 C 22.226562 49.792969 21.496094 49.640625 20.773438 49.449219 C 20.050781 49.257812 19.339844 49.035156 18.636719 48.773438 C 17.9375 48.515625 17.25 48.222656 16.578125 47.894531 C 15.90625 47.566406 15.253906 47.207031 14.617188 46.816406 C 13.980469 46.425781 13.363281 46.003906 12.769531 45.550781 C 12.175781 45.097656 11.601562 44.617188 11.054688 44.109375 C 10.507812 43.601562 9.984375 43.066406 9.492188 42.507812 C 8.996094 41.949219 8.527344 41.367188 8.089844 40.761719 C 7.652344 40.15625 7.246094 39.53125 6.867188 38.882812 C 6.492188 38.238281 6.148438 37.578125 5.835938 36.898438 C 5.523438 36.21875 5.246094 35.523438 5.003906 34.820312 C 4.757812 34.113281 4.550781 33.394531 4.378906 32.667969 C 4.203125 31.941406 4.066406 31.207031 3.964844 30.46875 C 3.863281 29.726562 3.800781 28.984375 3.773438 28.238281 C 3.746094 27.488281 3.753906 26.742188 3.796875 25.996094 C 3.84375 25.25 3.925781 24.511719 4.042969 23.773438 C 4.160156 23.035156 4.316406 22.304688 4.503906 21.582031 C 4.695312 20.859375 4.921875 20.144531 5.179688 19.445312 C 5.441406 18.746094 5.734375 18.058594 6.0625 17.386719 C 6.390625 16.714844 6.75 16.0625 7.140625 15.425781 C 7.53125 14.789062 7.953125 14.171875 8.40625 13.578125 C 8.859375 12.980469 9.335938 12.410156 9.847656 11.863281 C 10.355469 11.316406 10.886719 10.792969 11.449219 10.296875 C 12.007812 9.804688 12.589844 9.335938 13.195312 8.898438 C 13.800781 8.460938 14.425781 8.050781 15.070312 7.675781 C 15.714844 7.296875 16.378906 6.953125 17.058594 6.644531 C 17.738281 6.332031 18.429688 6.054688 19.136719 5.808594 C 19.84375 5.566406 20.558594 5.359375 21.285156 5.183594 C 22.015625 5.011719 22.746094 4.875 23.488281 4.773438 C 24.226562 4.671875 24.972656 4.609375 25.71875 4.578125 C 26.464844 4.550781 27.210938 4.5625 27.957031 4.605469 C 28.703125 4.652344 29.445312 4.734375 30.183594 4.851562 Z M 30.183594 4.851562 " fill-opacity="1" fill-rule="nonzero"/></g></g></g></g><g mask="url(#65edba9d48)"><g transform="matrix(1, 0, 0, 1, 44, 228)"><g clip-path="url(#cba2a52b88)"><path fill="#2a7c7c" d="M 34.894531 6.851562 C 35.613281 7.054688 36.320312 7.292969 37.015625 7.566406 C 37.710938 7.84375 38.390625 8.148438 39.054688 8.488281 C 39.71875 8.832031 40.367188 9.203125 40.996094 9.609375 C 41.625 10.011719 42.230469 10.445312 42.816406 10.910156 C 43.402344 11.375 43.964844 11.863281 44.503906 12.382812 C 45.039062 12.902344 45.550781 13.449219 46.035156 14.015625 C 46.519531 14.585938 46.972656 15.179688 47.398438 15.792969 C 47.824219 16.40625 48.222656 17.039062 48.585938 17.691406 C 48.949219 18.34375 49.28125 19.015625 49.578125 19.699219 C 49.875 20.382812 50.140625 21.082031 50.367188 21.792969 C 50.597656 22.503906 50.792969 23.226562 50.949219 23.957031 C 51.109375 24.6875 51.230469 25.421875 51.316406 26.164062 C 51.402344 26.90625 51.453125 27.652344 51.46875 28.398438 C 51.480469 29.148438 51.457031 29.894531 51.394531 30.636719 C 51.335938 31.382812 51.238281 32.125 51.105469 32.859375 C 50.972656 33.59375 50.804688 34.320312 50.601562 35.039062 C 50.394531 35.757812 50.15625 36.464844 49.882812 37.160156 C 49.609375 37.855469 49.300781 38.535156 48.960938 39.203125 C 48.621094 39.867188 48.25 40.515625 47.84375 41.140625 C 47.441406 41.769531 47.003906 42.378906 46.542969 42.964844 C 46.078125 43.550781 45.585938 44.113281 45.066406 44.648438 C 44.546875 45.1875 44.003906 45.699219 43.433594 46.183594 C 42.863281 46.667969 42.273438 47.121094 41.660156 47.546875 C 41.046875 47.972656 40.410156 48.367188 39.757812 48.730469 C 39.105469 49.097656 38.4375 49.425781 37.75 49.726562 C 37.066406 50.023438 36.367188 50.285156 35.65625 50.515625 C 34.945312 50.746094 34.226562 50.9375 33.496094 51.097656 C 32.765625 51.257812 32.027344 51.378906 31.285156 51.464844 C 30.542969 51.550781 29.796875 51.601562 29.050781 51.613281 C 28.304688 51.628906 27.558594 51.605469 26.8125 51.542969 C 26.066406 51.484375 25.328125 51.386719 24.59375 51.253906 C 23.855469 51.121094 23.128906 50.953125 22.410156 50.746094 C 21.691406 50.542969 20.984375 50.304688 20.289062 50.03125 C 19.59375 49.757812 18.914062 49.449219 18.25 49.109375 C 17.585938 48.769531 16.9375 48.394531 16.308594 47.992188 C 15.679688 47.585938 15.074219 47.152344 14.488281 46.6875 C 13.902344 46.226562 13.339844 45.734375 12.800781 45.214844 C 12.265625 44.695312 11.753906 44.152344 11.269531 43.582031 C 10.785156 43.011719 10.328125 42.421875 9.902344 41.804688 C 9.476562 41.191406 9.082031 40.558594 8.71875 39.90625 C 8.355469 39.253906 8.023438 38.585938 7.726562 37.898438 C 7.429688 37.214844 7.164062 36.515625 6.933594 35.804688 C 6.707031 35.09375 6.511719 34.371094 6.351562 33.640625 C 6.195312 32.910156 6.070312 32.175781 5.984375 31.433594 C 5.898438 30.691406 5.851562 29.945312 5.835938 29.199219 C 5.824219 28.453125 5.847656 27.707031 5.90625 26.960938 C 5.96875 26.214844 6.066406 25.476562 6.199219 24.738281 C 6.332031 24.003906 6.5 23.277344 6.703125 22.558594 C 6.90625 21.839844 7.148438 21.132812 7.421875 20.4375 C 7.695312 19.742188 8.003906 19.0625 8.34375 18.398438 C 8.683594 17.730469 9.054688 17.085938 9.460938 16.457031 C 9.863281 15.828125 10.296875 15.21875 10.761719 14.632812 C 11.226562 14.046875 11.71875 13.488281 12.238281 12.949219 C 12.757812 12.410156 13.300781 11.902344 13.871094 11.417969 C 14.4375 10.933594 15.03125 10.476562 15.644531 10.050781 C 16.257812 9.625 16.890625 9.230469 17.542969 8.867188 C 18.199219 8.503906 18.867188 8.171875 19.550781 7.875 C 20.238281 7.574219 20.9375 7.3125 21.648438 7.082031 C 22.359375 6.851562 23.078125 6.660156 23.808594 6.5 C 24.539062 6.34375 25.277344 6.21875 26.019531 6.132812 C 26.761719 6.046875 27.503906 5.996094 28.253906 5.984375 C 29 5.972656 29.746094 5.996094 30.492188 6.054688 C 31.234375 6.113281 31.976562 6.210938 32.710938 6.34375 C 33.445312 6.476562 34.175781 6.644531 34.894531 6.851562 Z M 34.894531 6.851562 " fill-opacity="1" fill-rule="nonzero"/></g></g></g><g mask="url(#0b00849a13)"><g transform="matrix(1, 0, 0, 1, 89, 273)"><g clip-path="url(#c13a5cb155)"><path fill="#2a7c7c" d="M 49.121094 17.011719 C 49.648438 17.539062 50.148438 18.09375 50.625 18.671875 C 51.097656 19.25 51.542969 19.847656 51.957031 20.46875 C 52.371094 21.089844 52.757812 21.730469 53.109375 22.390625 C 53.460938 23.050781 53.78125 23.722656 54.066406 24.414062 C 54.351562 25.105469 54.605469 25.808594 54.820312 26.523438 C 55.039062 27.238281 55.21875 27.960938 55.363281 28.695312 C 55.511719 29.429688 55.621094 30.167969 55.695312 30.910156 C 55.765625 31.652344 55.804688 32.398438 55.804688 33.148438 C 55.804688 33.894531 55.765625 34.640625 55.695312 35.382812 C 55.621094 36.125 55.511719 36.863281 55.363281 37.597656 C 55.21875 38.332031 55.039062 39.054688 54.820312 39.769531 C 54.605469 40.484375 54.351562 41.1875 54.066406 41.878906 C 53.78125 42.570312 53.460938 43.242188 53.109375 43.902344 C 52.757812 44.5625 52.371094 45.203125 51.957031 45.824219 C 51.542969 46.445312 51.097656 47.042969 50.625 47.621094 C 50.148438 48.199219 49.648438 48.753906 49.121094 49.28125 C 48.59375 49.808594 48.039062 50.3125 47.460938 50.785156 C 46.882812 51.257812 46.285156 51.703125 45.664062 52.117188 C 45.042969 52.535156 44.402344 52.917969 43.742188 53.269531 C 43.082031 53.621094 42.40625 53.941406 41.71875 54.226562 C 41.027344 54.511719 40.324219 54.765625 39.609375 54.980469 C 38.894531 55.199219 38.171875 55.378906 37.4375 55.527344 C 36.703125 55.671875 35.964844 55.78125 35.222656 55.855469 C 34.476562 55.925781 33.734375 55.964844 32.984375 55.964844 C 32.238281 55.964844 31.492188 55.925781 30.75 55.855469 C 30.003906 55.78125 29.265625 55.671875 28.535156 55.527344 C 27.800781 55.378906 27.078125 55.199219 26.363281 54.980469 C 25.648438 54.765625 24.945312 54.511719 24.253906 54.226562 C 23.5625 53.941406 22.886719 53.621094 22.230469 53.269531 C 21.570312 52.917969 20.929688 52.535156 20.308594 52.117188 C 19.6875 51.703125 19.089844 51.257812 18.511719 50.785156 C 17.933594 50.3125 17.378906 49.808594 16.851562 49.28125 C 16.324219 48.753906 15.820312 48.199219 15.347656 47.621094 C 14.875 47.042969 14.429688 46.445312 14.011719 45.824219 C 13.597656 45.203125 13.214844 44.5625 12.863281 43.902344 C 12.511719 43.242188 12.191406 42.570312 11.90625 41.878906 C 11.617188 41.1875 11.367188 40.484375 11.152344 39.769531 C 10.933594 39.054688 10.753906 38.332031 10.605469 37.597656 C 10.460938 36.863281 10.351562 36.125 10.277344 35.382812 C 10.203125 34.640625 10.167969 33.894531 10.167969 33.148438 C 10.167969 32.398438 10.203125 31.652344 10.277344 30.910156 C 10.351562 30.167969 10.460938 29.429688 10.605469 28.695312 C 10.753906 27.960938 10.933594 27.238281 11.152344 26.523438 C 11.367188 25.808594 11.617188 25.105469 11.90625 24.414062 C 12.191406 23.722656 12.511719 23.050781 12.863281 22.390625 C 13.214844 21.730469 13.597656 21.089844 14.011719 20.46875 C 14.429688 19.847656 14.875 19.25 15.347656 18.671875 C 15.820312 18.09375 16.324219 17.539062 16.851562 17.011719 C 17.378906 16.484375 17.933594 15.980469 18.511719 15.507812 C 19.089844 15.035156 19.6875 14.589844 20.308594 14.175781 C 20.929688 13.757812 21.570312 13.375 22.230469 13.023438 C 22.886719 12.671875 23.5625 12.351562 24.253906 12.066406 C 24.945312 11.78125 25.648438 11.527344 26.363281 11.3125 C 27.078125 11.09375 27.800781 10.914062 28.535156 10.765625 C 29.265625 10.621094 30.003906 10.511719 30.75 10.4375 C 31.492188 10.367188 32.238281 10.328125 32.984375 10.328125 C 33.734375 10.328125 34.476562 10.367188 35.222656 10.4375 C 35.964844 10.511719 36.703125 10.621094 37.4375 10.765625 C 38.171875 10.914062 38.894531 11.09375 39.609375 11.3125 C 40.324219 11.527344 41.027344 11.78125 41.71875 12.066406 C 42.40625 12.351562 43.082031 12.671875 43.742188 13.023438 C 44.402344 13.375 45.042969 13.757812 45.664062 14.175781 C 46.285156 14.589844 46.882812 15.035156 47.460938 15.507812 C 48.039062 15.980469 48.59375 16.484375 49.121094 17.011719 Z M 49.121094 17.011719 " fill-opacity="1" fill-rule="nonzero"/></g></g></g><g clip-path="url(#38b8e34deb)"><g mask="url(#e0446ba559)"><g transform="matrix(1, 0, 0, 1, 160, 295)"><g clip-path="url(#6f403704d4)"><path fill="#2a7c7c" d="M 36.097656 7.398438 C 36.8125 7.617188 37.515625 7.871094 38.203125 8.160156 C 38.894531 8.445312 39.570312 8.769531 40.226562 9.121094 C 40.882812 9.476562 41.523438 9.859375 42.144531 10.277344 C 42.765625 10.695312 43.363281 11.140625 43.9375 11.617188 C 44.515625 12.09375 45.066406 12.59375 45.59375 13.125 C 46.121094 13.65625 46.621094 14.207031 47.09375 14.789062 C 47.566406 15.367188 48.011719 15.96875 48.421875 16.589844 C 48.835938 17.210938 49.21875 17.855469 49.570312 18.515625 C 49.921875 19.171875 50.238281 19.847656 50.523438 20.539062 C 50.804688 21.230469 51.054688 21.933594 51.269531 22.652344 C 51.484375 23.367188 51.664062 24.089844 51.808594 24.824219 C 51.953125 25.558594 52.058594 26.296875 52.132812 27.039062 C 52.203125 27.785156 52.238281 28.53125 52.234375 29.277344 C 52.234375 30.023438 52.195312 30.769531 52.121094 31.511719 C 52.042969 32.257812 51.933594 32.996094 51.785156 33.726562 C 51.636719 34.460938 51.453125 35.183594 51.234375 35.898438 C 51.015625 36.613281 50.761719 37.316406 50.476562 38.003906 C 50.1875 38.695312 49.867188 39.367188 49.511719 40.027344 C 49.160156 40.683594 48.773438 41.324219 48.355469 41.945312 C 47.941406 42.566406 47.492188 43.164062 47.019531 43.738281 C 46.542969 44.316406 46.039062 44.867188 45.511719 45.394531 C 44.980469 45.921875 44.425781 46.421875 43.847656 46.894531 C 43.269531 47.367188 42.667969 47.808594 42.042969 48.222656 C 41.421875 48.636719 40.78125 49.019531 40.121094 49.371094 C 39.460938 49.71875 38.785156 50.039062 38.09375 50.320312 C 37.402344 50.605469 36.699219 50.855469 35.984375 51.070312 C 35.269531 51.285156 34.542969 51.464844 33.808594 51.609375 C 33.078125 51.753906 32.339844 51.859375 31.59375 51.933594 C 30.851562 52.003906 30.105469 52.039062 29.359375 52.035156 C 28.609375 52.035156 27.863281 51.996094 27.121094 51.921875 C 26.378906 51.84375 25.640625 51.734375 24.90625 51.585938 C 24.175781 51.4375 23.449219 51.253906 22.734375 51.035156 C 22.023438 50.816406 21.320312 50.5625 20.628906 50.277344 C 19.941406 49.988281 19.265625 49.667969 18.609375 49.3125 C 17.949219 48.960938 17.3125 48.574219 16.691406 48.15625 C 16.070312 47.738281 15.472656 47.292969 14.894531 46.816406 C 14.320312 46.34375 13.765625 45.839844 13.238281 45.308594 C 12.714844 44.78125 12.214844 44.226562 11.742188 43.648438 C 11.269531 43.066406 10.824219 42.46875 10.410156 41.84375 C 9.996094 41.222656 9.617188 40.582031 9.265625 39.921875 C 8.914062 39.261719 8.597656 38.585938 8.3125 37.894531 C 8.027344 37.203125 7.777344 36.5 7.5625 35.785156 C 7.347656 35.066406 7.167969 34.34375 7.027344 33.609375 C 6.882812 32.878906 6.773438 32.136719 6.703125 31.394531 C 6.632812 30.652344 6.597656 29.90625 6.597656 29.15625 C 6.601562 28.410156 6.640625 27.664062 6.714844 26.921875 C 6.789062 26.179688 6.902344 25.441406 7.050781 24.707031 C 7.195312 23.972656 7.378906 23.25 7.597656 22.535156 C 7.816406 21.820312 8.070312 21.121094 8.359375 20.429688 C 8.648438 19.742188 8.96875 19.066406 9.320312 18.40625 C 9.675781 17.75 10.0625 17.109375 10.476562 16.492188 C 10.894531 15.871094 11.339844 15.273438 11.816406 14.695312 C 12.292969 14.117188 12.792969 13.566406 13.324219 13.039062 C 13.855469 12.511719 14.410156 12.011719 14.988281 11.539062 C 15.566406 11.066406 16.167969 10.625 16.789062 10.210938 C 17.414062 9.796875 18.054688 9.414062 18.714844 9.066406 C 19.375 8.714844 20.050781 8.398438 20.742188 8.113281 C 21.429688 7.828125 22.136719 7.578125 22.851562 7.363281 C 23.566406 7.148438 24.292969 6.96875 25.023438 6.824219 C 25.757812 6.683594 26.496094 6.574219 27.238281 6.503906 C 27.984375 6.433594 28.730469 6.398438 29.476562 6.398438 C 30.222656 6.402344 30.96875 6.441406 31.714844 6.515625 C 32.457031 6.589844 33.195312 6.703125 33.925781 6.847656 C 34.660156 6.996094 35.382812 7.179688 36.097656 7.398438 Z M 36.097656 7.398438 " fill-opacity="1" fill-rule="nonzero"/></g></g></g></g><g mask="url(#3eb2568e9e)"><g transform="matrix(1, 0, 0, 1, 236, 285)"><g clip-path="url(#c2d33f3948)"><g clip-path="url(#f099ce6883)"><path fill="#2a7c7c" d="M 41.132812 21.148438 C 41.132812 21.8125 41.097656 22.476562 41.035156 23.140625 C 40.96875 23.800781 40.871094 24.457031 40.742188 25.113281 C 40.609375 25.765625 40.449219 26.410156 40.257812 27.046875 C 40.0625 27.683594 39.839844 28.308594 39.585938 28.921875 C 39.328125 29.539062 39.046875 30.136719 38.730469 30.726562 C 38.417969 31.3125 38.078125 31.882812 37.707031 32.433594 C 37.335938 32.988281 36.941406 33.523438 36.519531 34.035156 C 36.097656 34.550781 35.652344 35.042969 35.179688 35.515625 C 34.710938 35.984375 34.21875 36.429688 33.703125 36.851562 C 33.1875 37.277344 32.65625 37.671875 32.101562 38.042969 C 31.546875 38.410156 30.976562 38.753906 30.390625 39.066406 C 29.804688 39.378906 29.203125 39.664062 28.589844 39.917969 C 27.972656 40.171875 27.347656 40.398438 26.710938 40.589844 C 26.074219 40.785156 25.429688 40.945312 24.777344 41.074219 C 24.125 41.203125 23.46875 41.300781 22.804688 41.367188 C 22.144531 41.433594 21.480469 41.464844 20.8125 41.464844 C 20.148438 41.464844 19.484375 41.433594 18.820312 41.367188 C 18.160156 41.300781 17.503906 41.203125 16.847656 41.074219 C 16.195312 40.945312 15.550781 40.785156 14.914062 40.589844 C 14.277344 40.398438 13.652344 40.171875 13.039062 39.917969 C 12.421875 39.664062 11.824219 39.378906 11.234375 39.066406 C 10.648438 38.753906 10.078125 38.410156 9.527344 38.042969 C 8.972656 37.671875 8.4375 37.277344 7.925781 36.851562 C 7.410156 36.429688 6.917969 35.984375 6.445312 35.515625 C 5.976562 35.042969 5.53125 34.550781 5.109375 34.035156 C 4.683594 33.523438 4.289062 32.988281 3.917969 32.433594 C 3.550781 31.882812 3.207031 31.3125 2.894531 30.726562 C 2.582031 30.136719 2.296875 29.539062 2.042969 28.921875 C 1.789062 28.308594 1.5625 27.683594 1.371094 27.046875 C 1.175781 26.410156 1.015625 25.765625 0.886719 25.113281 C 0.757812 24.457031 0.660156 23.800781 0.59375 23.140625 C 0.527344 22.476562 0.496094 21.8125 0.496094 21.148438 C 0.496094 20.480469 0.527344 19.820312 0.59375 19.15625 C 0.660156 18.492188 0.757812 17.835938 0.886719 17.183594 C 1.015625 16.53125 1.175781 15.886719 1.371094 15.25 C 1.5625 14.613281 1.789062 13.988281 2.042969 13.371094 C 2.296875 12.757812 2.582031 12.15625 2.894531 11.570312 C 3.207031 10.984375 3.550781 10.414062 3.917969 9.859375 C 4.289062 9.304688 4.683594 8.773438 5.109375 8.257812 C 5.53125 7.742188 5.976562 7.25 6.445312 6.78125 C 6.917969 6.308594 7.410156 5.863281 7.925781 5.441406 C 8.4375 5.019531 8.972656 4.625 9.527344 4.253906 C 10.078125 3.882812 10.648438 3.542969 11.234375 3.230469 C 11.824219 2.914062 12.421875 2.632812 13.039062 2.375 C 13.652344 2.121094 14.277344 1.898438 14.914062 1.703125 C 15.550781 1.511719 16.195312 1.351562 16.847656 1.21875 C 17.503906 1.089844 18.160156 0.992188 18.820312 0.929688 C 19.484375 0.863281 20.148438 0.828125 20.8125 0.828125 C 21.480469 0.828125 22.144531 0.863281 22.804688 0.929688 C 23.46875 0.992188 24.125 1.089844 24.777344 1.21875 C 25.429688 1.351562 26.074219 1.511719 26.710938 1.703125 C 27.347656 1.898438 27.972656 2.121094 28.589844 2.375 C 29.203125 2.632812 29.804688 2.914062 30.390625 3.230469 C 30.976562 3.542969 31.546875 3.882812 32.101562 4.253906 C 32.65625 4.625 33.1875 5.019531 33.703125 5.441406 C 34.21875 5.863281 34.710938 6.308594 35.179688 6.78125 C 35.652344 7.25 36.097656 7.742188 36.519531 8.257812 C 36.941406 8.773438 37.335938 9.304688 37.707031 9.859375 C 38.078125 10.414062 38.417969 10.984375 38.730469 11.570312 C 39.046875 12.15625 39.328125 12.757812 39.585938 13.371094 C 39.839844 13.988281 40.0625 14.613281 40.257812 15.25 C 40.449219 15.886719 40.609375 16.53125 40.742188 17.183594 C 40.871094 17.835938 40.96875 18.492188 41.035156 19.15625 C 41.097656 19.820312 41.132812 20.480469 41.132812 21.148438 Z M 41.132812 21.148438 " fill-opacity="1" fill-rule="nonzero"/></g></g></g></g><g mask="url(#874181b5f8)"><g transform="matrix(1, 0, 0, 1, 286, 237)"><g clip-path="url(#40fdfb455d)"><path fill="#2a7c7c" d="M 38.601562 19.03125 C 38.628906 19.636719 38.625 20.238281 38.589844 20.84375 C 38.554688 21.445312 38.492188 22.046875 38.398438 22.644531 C 38.308594 23.242188 38.183594 23.835938 38.035156 24.421875 C 37.882812 25.007812 37.703125 25.582031 37.496094 26.152344 C 37.289062 26.71875 37.054688 27.277344 36.792969 27.820312 C 36.527344 28.367188 36.242188 28.898438 35.925781 29.414062 C 35.613281 29.929688 35.273438 30.429688 34.910156 30.914062 C 34.546875 31.398438 34.160156 31.863281 33.75 32.308594 C 33.339844 32.753906 32.910156 33.179688 32.460938 33.582031 C 32.007812 33.984375 31.539062 34.363281 31.050781 34.722656 C 30.5625 35.078125 30.058594 35.410156 29.535156 35.71875 C 29.015625 36.027344 28.480469 36.308594 27.933594 36.5625 C 27.382812 36.816406 26.824219 37.042969 26.253906 37.246094 C 25.683594 37.445312 25.101562 37.617188 24.515625 37.757812 C 23.925781 37.902344 23.332031 38.015625 22.734375 38.101562 C 22.136719 38.183594 21.535156 38.238281 20.929688 38.265625 C 20.324219 38.292969 19.722656 38.289062 19.117188 38.253906 C 18.511719 38.21875 17.914062 38.15625 17.3125 38.0625 C 16.714844 37.96875 16.125 37.847656 15.539062 37.699219 C 14.953125 37.546875 14.375 37.367188 13.808594 37.160156 C 13.238281 36.953125 12.683594 36.71875 12.136719 36.453125 C 11.59375 36.191406 11.0625 35.902344 10.546875 35.589844 C 10.027344 35.273438 9.527344 34.9375 9.046875 34.574219 C 8.5625 34.207031 8.097656 33.824219 7.652344 33.414062 C 7.207031 33.003906 6.78125 32.574219 6.378906 32.121094 C 5.976562 31.671875 5.59375 31.203125 5.238281 30.714844 C 4.882812 30.226562 4.550781 29.722656 4.242188 29.199219 C 3.933594 28.679688 3.652344 28.144531 3.398438 27.59375 C 3.144531 27.046875 2.914062 26.488281 2.714844 25.917969 C 2.515625 25.34375 2.34375 24.765625 2.203125 24.179688 C 2.058594 23.589844 1.945312 22.996094 1.859375 22.398438 C 1.773438 21.800781 1.71875 21.199219 1.695312 20.59375 C 1.667969 19.988281 1.671875 19.382812 1.707031 18.78125 C 1.742188 18.175781 1.804688 17.574219 1.898438 16.976562 C 1.988281 16.378906 2.113281 15.789062 2.261719 15.203125 C 2.414062 14.617188 2.59375 14.039062 2.800781 13.472656 C 3.007812 12.902344 3.242188 12.347656 3.503906 11.800781 C 3.769531 11.257812 4.054688 10.726562 4.371094 10.207031 C 4.683594 9.691406 5.023438 9.191406 5.386719 8.707031 C 5.75 8.226562 6.136719 7.761719 6.546875 7.316406 C 6.957031 6.871094 7.386719 6.445312 7.835938 6.042969 C 8.289062 5.640625 8.757812 5.257812 9.246094 4.902344 C 9.734375 4.546875 10.238281 4.210938 10.761719 3.90625 C 11.28125 3.597656 11.816406 3.316406 12.363281 3.0625 C 12.914062 2.808594 13.472656 2.578125 14.042969 2.378906 C 14.613281 2.179688 15.195312 2.007812 15.78125 1.863281 C 16.371094 1.722656 16.964844 1.609375 17.5625 1.523438 C 18.160156 1.4375 18.761719 1.382812 19.367188 1.359375 C 19.972656 1.332031 20.574219 1.335938 21.179688 1.371094 C 21.785156 1.402344 22.382812 1.46875 22.980469 1.558594 C 23.578125 1.652344 24.171875 1.773438 24.757812 1.925781 C 25.34375 2.078125 25.921875 2.257812 26.488281 2.464844 C 27.054688 2.671875 27.613281 2.90625 28.160156 3.167969 C 28.703125 3.429688 29.234375 3.71875 29.75 4.035156 C 30.269531 4.347656 30.769531 4.6875 31.25 5.050781 C 31.734375 5.414062 32.199219 5.800781 32.644531 6.210938 C 33.089844 6.621094 33.515625 7.050781 33.917969 7.5 C 34.320312 7.953125 34.699219 8.421875 35.058594 8.910156 C 35.414062 9.398438 35.746094 9.902344 36.054688 10.421875 C 36.363281 10.945312 36.644531 11.480469 36.898438 12.027344 C 37.152344 12.578125 37.378906 13.136719 37.582031 13.707031 C 37.78125 14.277344 37.953125 14.859375 38.09375 15.445312 C 38.238281 16.03125 38.351562 16.625 38.4375 17.226562 C 38.519531 17.824219 38.578125 18.425781 38.601562 19.03125 Z M 38.601562 19.03125 " fill-opacity="1" fill-rule="nonzero"/></g></g></g><g clip-path="url(#b70db2c93b)"><g mask="url(#c3be87c2f4)"><g transform="matrix(1, 0, 0, 1, 307, 172)"><g clip-path="url(#74d5ce896f)"><path fill="#2a7c7c" d="M 18.195312 1.691406 C 19.222656 1.753906 20.234375 1.917969 21.230469 2.179688 C 22.230469 2.445312 23.191406 2.804688 24.117188 3.257812 C 25.042969 3.707031 25.917969 4.246094 26.738281 4.871094 C 27.554688 5.496094 28.308594 6.195312 28.988281 6.96875 C 29.671875 7.742188 30.273438 8.574219 30.792969 9.464844 C 31.308594 10.355469 31.738281 11.289062 32.070312 12.265625 C 32.40625 13.242188 32.640625 14.238281 32.78125 15.261719 C 32.917969 16.28125 32.957031 17.308594 32.890625 18.335938 C 32.828125 19.367188 32.664062 20.378906 32.398438 21.375 C 32.136719 22.375 31.777344 23.335938 31.324219 24.261719 C 30.871094 25.1875 30.332031 26.058594 29.707031 26.878906 C 29.082031 27.699219 28.382812 28.453125 27.609375 29.132812 C 26.839844 29.816406 26.007812 30.417969 25.113281 30.9375 C 24.222656 31.453125 23.289062 31.878906 22.316406 32.214844 C 21.339844 32.550781 20.339844 32.785156 19.320312 32.925781 C 18.296875 33.0625 17.273438 33.097656 16.242188 33.035156 C 15.214844 32.972656 14.203125 32.808594 13.203125 32.542969 C 12.207031 32.28125 11.246094 31.921875 10.320312 31.46875 C 9.394531 31.015625 8.519531 30.476562 7.699219 29.851562 C 6.878906 29.226562 6.128906 28.527344 5.445312 27.753906 C 4.765625 26.980469 4.164062 26.148438 3.644531 25.257812 C 3.125 24.367188 2.699219 23.433594 2.367188 22.460938 C 2.03125 21.484375 1.792969 20.484375 1.65625 19.464844 C 1.519531 18.441406 1.480469 17.417969 1.546875 16.386719 C 1.609375 15.359375 1.773438 14.34375 2.039062 13.347656 C 2.300781 12.351562 2.660156 11.390625 3.113281 10.464844 C 3.566406 9.539062 4.105469 8.664062 4.730469 7.84375 C 5.355469 7.023438 6.050781 6.273438 6.824219 5.589844 C 7.597656 4.910156 8.429688 4.308594 9.320312 3.789062 C 10.214844 3.269531 11.144531 2.84375 12.121094 2.507812 C 13.097656 2.175781 14.09375 1.9375 15.117188 1.800781 C 16.140625 1.664062 17.164062 1.625 18.195312 1.691406 Z M 18.195312 1.691406 " fill-opacity="1" fill-rule="nonzero"/></g></g></g></g><g mask="url(#489c4a3283)"><g transform="matrix(1, 0, 0, 1, 294, 110)"><g clip-path="url(#680f00e812)"><path fill="#2a7c7c" d="M 13.929688 2.90625 C 14.527344 3.023438 15.105469 3.195312 15.664062 3.425781 C 16.226562 3.65625 16.757812 3.9375 17.265625 4.273438 C 17.769531 4.605469 18.238281 4.988281 18.667969 5.414062 C 19.101562 5.84375 19.484375 6.308594 19.824219 6.808594 C 20.164062 7.3125 20.449219 7.84375 20.683594 8.402344 C 20.917969 8.960938 21.097656 9.539062 21.214844 10.132812 C 21.335938 10.726562 21.398438 11.328125 21.402344 11.933594 C 21.402344 12.539062 21.347656 13.140625 21.230469 13.738281 C 21.117188 14.332031 20.941406 14.910156 20.714844 15.472656 C 20.484375 16.03125 20.203125 16.566406 19.867188 17.070312 C 19.53125 17.578125 19.152344 18.046875 18.722656 18.476562 C 18.296875 18.90625 17.832031 19.292969 17.328125 19.628906 C 16.828125 19.96875 16.296875 20.257812 15.734375 20.492188 C 15.175781 20.726562 14.601562 20.902344 14.003906 21.023438 C 13.410156 21.144531 12.8125 21.207031 12.203125 21.207031 C 11.597656 21.210938 10.996094 21.152344 10.402344 21.039062 C 9.808594 20.921875 9.230469 20.75 8.667969 20.519531 C 8.105469 20.289062 7.574219 20.007812 7.066406 19.671875 C 6.5625 19.339844 6.09375 18.957031 5.664062 18.53125 C 5.234375 18.101562 4.847656 17.636719 4.507812 17.136719 C 4.171875 16.632812 3.882812 16.101562 3.648438 15.542969 C 3.414062 14.984375 3.238281 14.40625 3.117188 13.8125 C 2.996094 13.21875 2.933594 12.617188 2.929688 12.011719 C 2.929688 11.40625 2.984375 10.804688 3.101562 10.207031 C 3.21875 9.613281 3.390625 9.035156 3.621094 8.472656 C 3.847656 7.914062 4.132812 7.378906 4.464844 6.875 C 4.800781 6.367188 5.183594 5.898438 5.609375 5.46875 C 6.035156 5.039062 6.5 4.65625 7.003906 4.316406 C 7.507812 3.976562 8.039062 3.691406 8.597656 3.457031 C 9.15625 3.222656 9.734375 3.042969 10.328125 2.921875 C 10.921875 2.800781 11.519531 2.738281 12.128906 2.738281 C 12.734375 2.734375 13.335938 2.792969 13.929688 2.90625 Z M 13.929688 2.90625 " fill-opacity="1" fill-rule="nonzero"/></g></g></g><g mask="url(#4b1a0a5e21)"><g transform="matrix(1, 0, 0, 1, 249, 65)"><g clip-path="url(#e1391c8c43)"><g clip-path="url(#beed73ca70)"><path fill="#2a7c7c" d="M 13.8125 11.089844 C 11.898438 14.402344 7.664062 15.539062 4.351562 13.625 C 1.039062 11.710938 -0.0976562 7.476562 1.816406 4.164062 C 3.726562 0.851562 7.964844 -0.285156 11.277344 1.628906 C 14.589844 3.539062 15.726562 7.777344 13.8125 11.089844 Z M 13.8125 11.089844 " fill-opacity="1" fill-rule="nonzero"/></g></g></g></g></svg>