<svg xmlns="http://www.w3.org/2000/svg" xmlns:xlink="http://www.w3.org/1999/xlink" width="40" zoomAndPan="magnify" viewBox="0 0 30 30.000001" height="40" preserveAspectRatio="xMidYMid meet" version="1.0"><defs><filter x="0%" y="0%" width="100%" height="100%" id="53f55ae8ea"><feColorMatrix values="0 0 0 0 1 0 0 0 0 1 0 0 0 0 1 0 0 0 1 0" color-interpolation-filters="sRGB"/></filter><clipPath id="a3321795f1"><path d="M 2.546875 2.0625 L 27.222656 2.0625 L 27.222656 26.738281 L 2.546875 26.738281 Z M 2.546875 2.0625 " clip-rule="nonzero"/></clipPath><mask id="8607e77fee"><g filter="url(#53f55ae8ea)"><rect x="-3" width="36" fill="#000000" y="-3" height="36.000001" fill-opacity="0.2"/></g></mask><clipPath id="085c5ab4a9"><path d="M 0.804688 0.554688 L 25.195312 0.554688 L 25.195312 24.738281 L 0.804688 24.738281 Z M 0.804688 0.554688 " clip-rule="nonzero"/></clipPath><clipPath id="083b586b05"><rect x="0" width="26" y="0" height="25"/></clipPath><clipPath id="ccccf0a321"><path d="M 13 2.0625 L 27.222656 2.0625 L 27.222656 16 L 13 16 Z M 13 2.0625 " clip-rule="nonzero"/></clipPath></defs><g clip-path="url(#a3321795f1)"><g mask="url(#8607e77fee)"><g transform="matrix(1, 0, 0, 1, 2, 2)"><g clip-path="url(#083b586b05)"><g clip-path="url(#085c5ab4a9)"><path fill="#024d7c" d="M 13 2.949219 C 12.351562 2.949219 11.707031 3.011719 11.074219 3.136719 C 10.4375 3.261719 9.820312 3.449219 9.222656 3.699219 C 8.621094 3.945312 8.054688 4.25 7.515625 4.609375 C 6.976562 4.972656 6.476562 5.378906 6.019531 5.839844 C 5.558594 6.296875 5.152344 6.796875 4.792969 7.335938 C 4.429688 7.875 4.128906 8.441406 3.878906 9.039062 C 3.632812 9.640625 3.445312 10.257812 3.316406 10.890625 C 3.191406 11.527344 3.128906 12.171875 3.128906 12.816406 C 3.128906 13.464844 3.191406 14.109375 3.316406 14.742188 C 3.445312 15.378906 3.632812 15.996094 3.878906 16.59375 C 4.128906 17.195312 4.429688 17.761719 4.792969 18.300781 C 5.152344 18.839844 5.558594 19.339844 6.019531 19.796875 C 6.476562 20.257812 6.976562 20.664062 7.515625 21.023438 C 8.054688 21.386719 8.621094 21.6875 9.222656 21.9375 C 9.820312 22.183594 10.4375 22.371094 11.074219 22.5 C 11.707031 22.625 12.351562 22.6875 13 22.6875 C 13.644531 22.6875 14.289062 22.625 14.925781 22.5 C 15.558594 22.371094 16.175781 22.183594 16.777344 21.9375 C 17.375 21.6875 17.941406 21.386719 18.480469 21.023438 C 19.019531 20.664062 19.519531 20.257812 19.976562 19.796875 C 20.4375 19.339844 20.84375 18.839844 21.207031 18.300781 C 21.566406 17.761719 21.871094 17.195312 22.117188 16.59375 C 22.367188 15.996094 22.554688 15.378906 22.679688 14.742188 C 22.804688 14.109375 22.867188 13.464844 22.867188 12.816406 C 22.867188 12.171875 22.804688 11.527344 22.679688 10.890625 C 22.554688 10.257812 22.367188 9.640625 22.117188 9.039062 C 21.871094 8.441406 21.566406 7.875 21.207031 7.335938 C 20.84375 6.796875 20.4375 6.296875 19.976562 5.839844 C 19.519531 5.378906 19.019531 4.972656 18.480469 4.609375 C 17.941406 4.25 17.375 3.945312 16.777344 3.699219 C 16.175781 3.449219 15.558594 3.261719 14.925781 3.136719 C 14.289062 3.011719 13.644531 2.949219 13 2.949219 Z M 0.851562 12.816406 C 0.851562 12.019531 0.925781 11.230469 1.082031 10.449219 C 1.238281 9.664062 1.46875 8.90625 1.773438 8.167969 C 2.078125 7.433594 2.453125 6.730469 2.898438 6.070312 C 3.339844 5.40625 3.84375 4.792969 4.40625 4.226562 C 4.972656 3.664062 5.585938 3.160156 6.25 2.71875 C 6.914062 2.273438 7.613281 1.898438 8.347656 1.59375 C 9.085938 1.289062 9.847656 1.058594 10.628906 0.902344 C 11.410156 0.746094 12.199219 0.667969 13 0.667969 C 13.796875 0.667969 14.585938 0.746094 15.367188 0.902344 C 16.152344 1.058594 16.910156 1.289062 17.648438 1.59375 C 18.382812 1.898438 19.085938 2.273438 19.746094 2.71875 C 20.410156 3.160156 21.023438 3.664062 21.589844 4.226562 C 22.152344 4.792969 22.65625 5.40625 23.097656 6.070312 C 23.542969 6.730469 23.917969 7.433594 24.222656 8.167969 C 24.527344 8.90625 24.757812 9.664062 24.914062 10.449219 C 25.070312 11.230469 25.148438 12.019531 25.148438 12.816406 C 25.148438 13.617188 25.070312 14.40625 24.914062 15.1875 C 24.757812 15.96875 24.527344 16.730469 24.222656 17.46875 C 23.917969 18.203125 23.542969 18.902344 23.097656 19.566406 C 22.65625 20.230469 22.152344 20.84375 21.589844 21.410156 C 21.023438 21.972656 20.410156 22.476562 19.746094 22.917969 C 19.085938 23.363281 18.382812 23.738281 17.648438 24.042969 C 16.910156 24.347656 16.152344 24.578125 15.367188 24.734375 C 14.585938 24.890625 13.796875 24.964844 13 24.964844 C 12.199219 24.964844 11.410156 24.890625 10.628906 24.734375 C 9.847656 24.578125 9.085938 24.347656 8.347656 24.042969 C 7.613281 23.738281 6.914062 23.363281 6.25 22.917969 C 5.585938 22.476562 4.972656 21.972656 4.40625 21.410156 C 3.84375 20.84375 3.339844 20.230469 2.898438 19.566406 C 2.453125 18.902344 2.078125 18.203125 1.773438 17.46875 C 1.46875 16.730469 1.238281 15.96875 1.082031 15.1875 C 0.925781 14.40625 0.851562 13.617188 0.851562 12.816406 Z M 0.851562 12.816406 " fill-opacity="1" fill-rule="evenodd"/></g></g></g></g></g><g clip-path="url(#ccccf0a321)"><path fill="#024d7c" d="M 13.859375 3.808594 C 13.859375 3.65625 13.886719 3.511719 13.945312 3.371094 C 14.003906 3.234375 14.085938 3.109375 14.191406 3.003906 C 14.300781 2.898438 14.421875 2.8125 14.5625 2.757812 C 14.703125 2.699219 14.847656 2.667969 15 2.667969 C 15.796875 2.667969 16.585938 2.746094 17.367188 2.902344 C 18.152344 3.058594 18.910156 3.289062 19.648438 3.59375 C 20.382812 3.898438 21.085938 4.273438 21.746094 4.71875 C 22.410156 5.160156 23.023438 5.664062 23.589844 6.226562 C 24.152344 6.792969 24.65625 7.40625 25.097656 8.070312 C 25.542969 8.730469 25.917969 9.433594 26.222656 10.167969 C 26.527344 10.90625 26.757812 11.664062 26.914062 12.449219 C 27.070312 13.230469 27.148438 14.019531 27.148438 14.816406 C 27.148438 14.96875 27.117188 15.113281 27.058594 15.253906 C 27.003906 15.394531 26.917969 15.515625 26.8125 15.625 C 26.707031 15.730469 26.582031 15.8125 26.445312 15.871094 C 26.304688 15.929688 26.160156 15.957031 26.007812 15.957031 C 25.855469 15.957031 25.710938 15.929688 25.570312 15.871094 C 25.433594 15.8125 25.308594 15.730469 25.203125 15.625 C 25.09375 15.515625 25.011719 15.394531 24.957031 15.253906 C 24.898438 15.113281 24.867188 14.96875 24.867188 14.816406 C 24.867188 14.171875 24.804688 13.527344 24.679688 12.890625 C 24.554688 12.257812 24.367188 11.640625 24.117188 11.039062 C 23.871094 10.441406 23.566406 9.875 23.207031 9.335938 C 22.84375 8.796875 22.4375 8.296875 21.976562 7.839844 C 21.519531 7.378906 21.019531 6.972656 20.480469 6.609375 C 19.941406 6.25 19.375 5.945312 18.777344 5.699219 C 18.175781 5.449219 17.558594 5.261719 16.925781 5.136719 C 16.289062 5.011719 15.644531 4.949219 15 4.949219 C 14.847656 4.949219 14.703125 4.917969 14.5625 4.859375 C 14.421875 4.804688 14.300781 4.722656 14.191406 4.613281 C 14.085938 4.507812 14.003906 4.382812 13.945312 4.246094 C 13.886719 4.105469 13.859375 3.960938 13.859375 3.808594 Z M 13.859375 3.808594 " fill-opacity="1" fill-rule="evenodd"/></g></svg>