<svg xmlns="http://www.w3.org/2000/svg" xmlns:xlink="http://www.w3.org/1999/xlink" width="1920" zoomAndPan="magnify" viewBox="0 0 1440 412.499988" height="550" preserveAspectRatio="xMidYMid meet" version="1.0"><defs><g/><clipPath id="e85b257cfb"><rect x="0" width="1014" y="0" height="218"/></clipPath></defs><g transform="matrix(1, 0, 0, 1, 345, 97)"><g clip-path="url(#e85b257cfb)"><g fill="#243746" fill-opacity="1"><g transform="translate(0.642879, 175.645477)"><g><path d="M 37.09375 0 L 11.890625 0 L 11.890625 -133.484375 L 53.53125 -133.484375 L 81.171875 -30.4375 L 108.640625 -133.484375 L 150.640625 -133.484375 L 150.640625 0 L 125.4375 0 L 125.4375 -114.59375 L 93.59375 0 L 68.9375 0 L 37.09375 -113.890625 Z M 37.09375 0 "/></g></g></g><g fill="#243746" fill-opacity="1"><g transform="translate(163.165561, 175.645477)"><g><path d="M 56.6875 1.921875 C 46.65625 1.921875 37.875 -0.265625 30.34375 -4.640625 C 22.820312 -9.015625 16.988281 -14.988281 12.84375 -22.5625 C 8.707031 -30.144531 6.640625 -38.78125 6.640625 -48.46875 C 6.640625 -54.875 7.628906 -61.164062 9.609375 -67.34375 C 11.597656 -73.53125 14.632812 -79.101562 18.71875 -84.0625 C 22.800781 -89.019531 27.929688 -92.957031 34.109375 -95.875 C 40.296875 -98.789062 47.585938 -100.25 55.984375 -100.25 C 62.285156 -100.25 68.378906 -99.253906 74.265625 -97.265625 C 80.160156 -95.285156 85.4375 -92.222656 90.09375 -88.078125 C 94.757812 -83.941406 98.460938 -78.664062 101.203125 -72.25 C 103.953125 -65.84375 105.328125 -58.207031 105.328125 -49.34375 L 105.328125 -44.265625 L 31.140625 -44.265625 C 31.367188 -42.160156 31.832031 -40.085938 32.53125 -38.046875 C 33.238281 -36.003906 34 -34.226562 34.8125 -32.71875 C 37.144531 -28.164062 40.265625 -24.632812 44.171875 -22.125 C 48.078125 -19.625 52.539062 -18.375 57.5625 -18.375 C 63.15625 -18.375 67.847656 -19.832031 71.640625 -22.75 C 75.429688 -25.664062 78.085938 -29.101562 79.609375 -33.0625 L 103.75 -33.0625 C 101.882812 -26.769531 98.910156 -20.96875 94.828125 -15.65625 C 90.742188 -10.351562 85.550781 -6.097656 79.25 -2.890625 C 72.957031 0.316406 65.4375 1.921875 56.6875 1.921875 Z M 32.1875 -61.9375 L 81.171875 -61.9375 C 81.054688 -63.21875 80.734375 -64.671875 80.203125 -66.296875 C 79.679688 -67.929688 78.78125 -69.507812 77.5 -71.03125 C 75.289062 -74.53125 72.347656 -77.15625 68.671875 -78.90625 C 64.992188 -80.65625 61 -81.53125 56.6875 -81.53125 C 52.375 -81.53125 48.4375 -80.65625 44.875 -78.90625 C 41.320312 -77.15625 38.378906 -74.53125 36.046875 -71.03125 C 34.753906 -69.507812 33.847656 -67.929688 33.328125 -66.296875 C 32.804688 -64.671875 32.425781 -63.21875 32.1875 -61.9375 Z M 32.1875 -61.9375 "/></g></g></g><g fill="#243746" fill-opacity="1"><g transform="translate(275.129506, 175.645477)"><g><path d="M 34.296875 0 L 10.671875 0 L 10.671875 -98.15625 L 34.296875 -98.15625 L 34.296875 -86.421875 C 38.023438 -91.554688 42.191406 -95.144531 46.796875 -97.1875 C 51.398438 -99.226562 56.5625 -100.25 62.28125 -100.25 L 65.078125 -100.25 L 65.078125 -77.5 L 59.65625 -77.5 C 55.6875 -77.5 52.273438 -76.972656 49.421875 -75.921875 C 46.566406 -74.878906 44.144531 -73.425781 42.15625 -71.5625 C 39.59375 -68.988281 37.640625 -65.628906 36.296875 -61.484375 C 34.960938 -57.347656 34.296875 -52.015625 34.296875 -45.484375 Z M 34.296875 0 "/></g></g></g><g fill="#243746" fill-opacity="1"><g transform="translate(342.132917, 175.645477)"><g><path d="M 55.8125 37.265625 C 49.164062 37.265625 42.601562 36.359375 36.125 34.546875 C 29.65625 32.742188 24.085938 29.507812 19.421875 24.84375 C 14.753906 20.175781 11.722656 13.644531 10.328125 5.25 L 34.109375 5.25 C 35.628906 10.03125 38.164062 13.5 41.71875 15.65625 C 45.28125 17.8125 49.921875 18.890625 55.640625 18.890625 C 63.679688 18.890625 69.476562 17.050781 73.03125 13.375 C 76.59375 9.707031 78.375 5.015625 78.375 -0.703125 L 78.375 -14.515625 C 74.414062 -8.921875 70.21875 -5.128906 65.78125 -3.140625 C 61.351562 -1.160156 56.222656 -0.171875 50.390625 -0.171875 C 41.867188 -0.171875 34.367188 -2.328125 27.890625 -6.640625 C 21.421875 -10.960938 16.378906 -16.851562 12.765625 -24.3125 C 9.148438 -31.78125 7.34375 -40.296875 7.34375 -49.859375 C 7.34375 -59.660156 9.148438 -68.347656 12.765625 -75.921875 C 16.378906 -83.503906 21.421875 -89.453125 27.890625 -93.765625 C 34.367188 -98.085938 41.867188 -100.25 50.390625 -100.25 C 56.222656 -100.25 61.351562 -99.195312 65.78125 -97.09375 C 70.21875 -95 74.414062 -91.210938 78.375 -85.734375 L 78.375 -98.15625 L 102 -98.15625 L 102 -6.296875 C 102 4.898438 99.957031 13.675781 95.875 20.03125 C 91.789062 26.382812 86.25 30.84375 79.25 33.40625 C 72.25 35.976562 64.4375 37.265625 55.8125 37.265625 Z M 55.984375 -20.46875 C 61.003906 -20.46875 65.40625 -21.75 69.1875 -24.3125 C 72.976562 -26.882812 75.953125 -30.414062 78.109375 -34.90625 C 80.273438 -39.394531 81.359375 -44.5 81.359375 -50.21875 C 81.359375 -55.925781 80.273438 -61.023438 78.109375 -65.515625 C 75.953125 -70.003906 72.976562 -73.53125 69.1875 -76.09375 C 65.40625 -78.664062 61.003906 -79.953125 55.984375 -79.953125 C 50.972656 -79.953125 46.597656 -78.640625 42.859375 -76.015625 C 39.128906 -73.390625 36.242188 -69.832031 34.203125 -65.34375 C 32.160156 -60.851562 31.140625 -55.8125 31.140625 -50.21875 C 31.140625 -44.613281 32.160156 -39.566406 34.203125 -35.078125 C 36.242188 -30.585938 39.128906 -27.03125 42.859375 -24.40625 C 46.597656 -21.78125 50.972656 -20.46875 55.984375 -20.46875 Z M 55.984375 -20.46875 "/></g></g></g><g fill="#243746" fill-opacity="1"><g transform="translate(454.796678, 175.645477)"><g><path d="M 22.5625 -109 C 18.601562 -109 15.191406 -110.222656 12.328125 -112.671875 C 9.472656 -115.117188 8.046875 -118.382812 8.046875 -122.46875 C 8.046875 -126.4375 9.472656 -129.671875 12.328125 -132.171875 C 15.191406 -134.679688 18.601562 -135.9375 22.5625 -135.9375 C 26.53125 -135.9375 29.941406 -134.679688 32.796875 -132.171875 C 35.660156 -129.671875 37.09375 -126.4375 37.09375 -122.46875 C 37.09375 -118.382812 35.660156 -115.117188 32.796875 -112.671875 C 29.941406 -110.222656 26.53125 -109 22.5625 -109 Z M 34.296875 0 L 10.671875 0 L 10.671875 -98.15625 L 34.296875 -98.15625 Z M 34.296875 0 "/></g></g></g><g fill="#243746" fill-opacity="1"><g transform="translate(499.932136, 175.645477)"><g><path d="M 42.6875 0 L 18.890625 0 L 18.890625 -79.25 L 4.03125 -79.25 L 4.03125 -98.15625 L 18.890625 -98.15625 L 18.890625 -108.125 C 18.890625 -116.289062 21.191406 -122.554688 25.796875 -126.921875 C 30.410156 -131.296875 37.148438 -133.484375 46.015625 -133.484375 L 60.703125 -133.484375 L 60.703125 -114.765625 L 51.609375 -114.765625 C 49.046875 -114.765625 46.914062 -114.035156 45.21875 -112.578125 C 43.53125 -111.117188 42.6875 -108.523438 42.6875 -104.796875 L 42.6875 -98.15625 L 60.703125 -98.15625 L 60.703125 -79.25 L 42.6875 -79.25 Z M 42.6875 0 "/></g></g></g><g fill="#243746" fill-opacity="1"><g transform="translate(564.311405, 175.645477)"><g><path d="M 28.515625 35.34375 L 12.25 35.34375 L 12.25 15.390625 L 22.921875 15.390625 C 25.953125 15.390625 28.457031 14.953125 30.4375 14.078125 C 32.425781 13.203125 34.117188 10.957031 35.515625 7.34375 L 38.140625 0.34375 L 1.921875 -98.15625 L 27.46875 -98.15625 L 50.390625 -26.0625 L 71.03125 -98.15625 L 96.40625 -98.15625 L 58.265625 11.546875 C 55.222656 20.296875 51.515625 26.445312 47.140625 30 C 42.773438 33.5625 36.566406 35.34375 28.515625 35.34375 Z M 28.515625 35.34375 "/></g></g></g><g fill="#243746" fill-opacity="1"><g transform="translate(663.154603, 175.645477)"><g><path d="M 37.09375 0 L 11.890625 0 L 11.890625 -133.484375 L 69.453125 -133.484375 C 77.847656 -133.484375 85.222656 -132.113281 91.578125 -129.375 C 97.941406 -126.632812 102.898438 -122.378906 106.453125 -116.609375 C 110.015625 -110.835938 111.796875 -103.34375 111.796875 -94.125 C 111.796875 -85.613281 110.015625 -78.296875 106.453125 -72.171875 C 102.898438 -66.046875 97.941406 -61.378906 91.578125 -58.171875 C 85.222656 -54.960938 77.847656 -53.359375 69.453125 -53.359375 L 37.09375 -53.359375 Z M 37.09375 -110.921875 L 37.09375 -75.40625 L 65.953125 -75.40625 C 72.722656 -75.40625 77.882812 -76.921875 81.4375 -79.953125 C 85 -82.984375 86.78125 -87.414062 86.78125 -93.25 C 86.78125 -98.96875 84.972656 -103.34375 81.359375 -106.375 C 77.742188 -109.40625 72.609375 -110.921875 65.953125 -110.921875 Z M 37.09375 -110.921875 "/></g></g></g><g fill="#243746" fill-opacity="1"><g transform="translate(779.667094, 175.645477)"><g><path d="M 50.734375 0 L 11.890625 0 L 11.890625 -133.484375 L 50.734375 -133.484375 C 73.359375 -133.484375 90.648438 -127.707031 102.609375 -116.15625 C 114.566406 -104.613281 120.546875 -88.113281 120.546875 -66.65625 C 120.546875 -45.3125 114.535156 -28.863281 102.515625 -17.3125 C 90.503906 -5.769531 73.242188 0 50.734375 0 Z M 37.09375 -110.921875 L 37.09375 -22.5625 L 50.390625 -22.5625 C 59.253906 -22.5625 67.066406 -23.929688 73.828125 -26.671875 C 80.597656 -29.421875 85.875 -34.03125 89.65625 -40.5 C 93.445312 -46.976562 95.34375 -55.695312 95.34375 -66.65625 C 95.34375 -77.039062 93.476562 -85.46875 89.75 -91.9375 C 86.019531 -98.40625 80.800781 -103.1875 74.09375 -106.28125 C 67.382812 -109.375 59.539062 -110.921875 50.5625 -110.921875 Z M 37.09375 -110.921875 "/></g></g></g><g fill="#243746" fill-opacity="1"><g transform="translate(907.02608, 175.645477)"><g><path d="M 37.09375 0 L 11.890625 0 L 11.890625 -133.484375 L 100.953125 -133.484375 L 100.953125 -110.921875 L 37.09375 -110.921875 L 37.09375 -78.03125 L 94.296875 -78.03125 L 94.296875 -55.640625 L 37.09375 -55.640625 Z M 37.09375 0 "/></g></g></g></g></g><path fill="#2a7c7c" d="M 90.148438 123.082031 C 90.148438 122.40625 90.183594 121.726562 90.25 121.050781 C 90.316406 120.375 90.414062 119.707031 90.546875 119.039062 C 90.679688 118.375 90.84375 117.714844 91.042969 117.066406 C 91.238281 116.417969 91.46875 115.777344 91.726562 115.152344 C 91.988281 114.523438 92.277344 113.910156 92.597656 113.3125 C 92.917969 112.714844 93.265625 112.132812 93.640625 111.566406 C 94.019531 111.003906 94.421875 110.460938 94.855469 109.933594 C 95.285156 109.410156 95.738281 108.90625 96.21875 108.425781 C 96.699219 107.945312 97.203125 107.492188 97.726562 107.0625 C 98.25 106.628906 98.796875 106.226562 99.359375 105.847656 C 99.925781 105.472656 100.507812 105.125 101.105469 104.804688 C 101.703125 104.484375 102.316406 104.195312 102.945312 103.933594 C 103.570312 103.675781 104.210938 103.445312 104.859375 103.25 C 105.507812 103.050781 106.167969 102.886719 106.832031 102.753906 C 107.5 102.621094 108.167969 102.523438 108.84375 102.457031 C 109.519531 102.390625 110.199219 102.355469 110.875 102.355469 L 214.515625 102.355469 C 215.195312 102.355469 215.871094 102.390625 216.546875 102.457031 C 217.222656 102.523438 217.894531 102.621094 218.558594 102.753906 C 219.226562 102.886719 219.882812 103.050781 220.53125 103.25 C 221.183594 103.445312 221.820312 103.675781 222.449219 103.933594 C 223.074219 104.195312 223.6875 104.484375 224.285156 104.804688 C 224.886719 105.125 225.46875 105.472656 226.03125 105.847656 C 226.597656 106.226562 227.140625 106.628906 227.664062 107.0625 C 228.191406 107.492188 228.691406 107.945312 229.171875 108.425781 C 229.652344 108.90625 230.109375 109.410156 230.539062 109.933594 C 230.96875 110.460938 231.375 111.003906 231.75 111.566406 C 232.128906 112.132812 232.476562 112.714844 232.796875 113.3125 C 233.117188 113.910156 233.40625 114.523438 233.664062 115.152344 C 233.925781 115.777344 234.152344 116.417969 234.351562 117.066406 C 234.546875 117.714844 234.710938 118.375 234.84375 119.039062 C 234.976562 119.707031 235.078125 120.375 235.144531 121.050781 C 235.210938 121.726562 235.242188 122.40625 235.242188 123.082031 L 235.242188 164.539062 L 276.699219 164.539062 C 277.378906 164.539062 278.054688 164.574219 278.730469 164.640625 C 279.40625 164.707031 280.078125 164.804688 280.742188 164.9375 C 281.410156 165.070312 282.066406 165.234375 282.714844 165.433594 C 283.367188 165.628906 284.003906 165.859375 284.632812 166.117188 C 285.257812 166.378906 285.871094 166.667969 286.46875 166.988281 C 287.070312 167.308594 287.652344 167.65625 288.214844 168.03125 C 288.78125 168.410156 289.324219 168.8125 289.847656 169.246094 C 290.375 169.675781 290.875 170.128906 291.355469 170.609375 C 291.835938 171.089844 292.292969 171.59375 292.722656 172.117188 C 293.152344 172.640625 293.554688 173.1875 293.933594 173.75 C 294.3125 174.316406 294.660156 174.898438 294.980469 175.496094 C 295.300781 176.09375 295.589844 176.707031 295.847656 177.335938 C 296.109375 177.960938 296.335938 178.601562 296.535156 179.25 C 296.730469 179.898438 296.894531 180.558594 297.027344 181.222656 C 297.160156 181.890625 297.261719 182.558594 297.328125 183.234375 C 297.394531 183.910156 297.425781 184.589844 297.425781 185.265625 L 297.425781 288.90625 C 297.425781 289.585938 297.394531 290.261719 297.328125 290.9375 C 297.261719 291.613281 297.160156 292.285156 297.027344 292.949219 C 296.894531 293.617188 296.730469 294.273438 296.535156 294.921875 C 296.335938 295.574219 296.109375 296.210938 295.847656 296.839844 C 295.589844 297.464844 295.300781 298.078125 294.980469 298.675781 C 294.660156 299.277344 294.3125 299.859375 293.933594 300.421875 C 293.554688 300.988281 293.152344 301.53125 292.722656 302.054688 C 292.292969 302.582031 291.835938 303.082031 291.355469 303.5625 C 290.875 304.042969 290.375 304.5 289.847656 304.929688 C 289.324219 305.359375 288.78125 305.765625 288.214844 306.140625 C 287.652344 306.519531 287.070312 306.867188 286.46875 307.1875 C 285.871094 307.507812 285.257812 307.796875 284.632812 308.054688 C 284.003906 308.316406 283.367188 308.542969 282.714844 308.742188 C 282.066406 308.9375 281.410156 309.101562 280.742188 309.234375 C 280.078125 309.367188 279.40625 309.46875 278.730469 309.535156 C 278.054688 309.601562 277.378906 309.632812 276.699219 309.632812 L 173.058594 309.632812 C 172.382812 309.632812 171.703125 309.601562 171.027344 309.535156 C 170.351562 309.46875 169.683594 309.367188 169.015625 309.234375 C 168.351562 309.101562 167.691406 308.9375 167.042969 308.742188 C 166.394531 308.542969 165.753906 308.316406 165.128906 308.054688 C 164.5 307.796875 163.886719 307.507812 163.289062 307.1875 C 162.691406 306.867188 162.109375 306.519531 161.542969 306.140625 C 160.980469 305.765625 160.433594 305.359375 159.910156 304.929688 C 159.386719 304.5 158.882812 304.042969 158.402344 303.5625 C 157.921875 303.082031 157.46875 302.582031 157.039062 302.054688 C 156.605469 301.53125 156.203125 300.988281 155.824219 300.421875 C 155.449219 299.859375 155.101562 299.277344 154.78125 298.675781 C 154.460938 298.078125 154.171875 297.464844 153.910156 296.839844 C 153.648438 296.210938 153.421875 295.574219 153.226562 294.921875 C 153.027344 294.273438 152.863281 293.617188 152.730469 292.949219 C 152.597656 292.285156 152.5 291.613281 152.433594 290.9375 C 152.367188 290.261719 152.332031 289.585938 152.332031 288.90625 L 152.332031 247.449219 L 110.875 247.449219 C 110.199219 247.449219 109.519531 247.417969 108.84375 247.351562 C 108.167969 247.285156 107.5 247.183594 106.832031 247.050781 C 106.167969 246.921875 105.507812 246.753906 104.859375 246.558594 C 104.210938 246.359375 103.570312 246.132812 102.945312 245.871094 C 102.316406 245.613281 101.703125 245.324219 101.105469 245.003906 C 100.507812 244.683594 99.925781 244.335938 99.359375 243.957031 C 98.796875 243.582031 98.25 243.175781 97.726562 242.746094 C 97.203125 242.316406 96.699219 241.859375 96.21875 241.378906 C 95.738281 240.898438 95.285156 240.398438 94.855469 239.871094 C 94.421875 239.347656 94.019531 238.804688 93.640625 238.238281 C 93.265625 237.675781 92.917969 237.09375 92.597656 236.492188 C 92.277344 235.894531 91.988281 235.28125 91.726562 234.65625 C 91.46875 234.027344 91.238281 233.390625 91.042969 232.738281 C 90.84375 232.089844 90.679688 231.433594 90.546875 230.765625 C 90.414062 230.101562 90.316406 229.429688 90.25 228.753906 C 90.183594 228.078125 90.148438 227.402344 90.148438 226.722656 Z M 173.058594 247.449219 L 173.058594 288.90625 L 276.699219 288.90625 L 276.699219 185.265625 L 235.242188 185.265625 L 235.242188 226.722656 C 235.242188 227.402344 235.210938 228.078125 235.144531 228.753906 C 235.078125 229.429688 234.976562 230.101562 234.84375 230.765625 C 234.710938 231.433594 234.546875 232.089844 234.351562 232.738281 C 234.152344 233.390625 233.925781 234.027344 233.664062 234.65625 C 233.40625 235.28125 233.117188 235.894531 232.796875 236.492188 C 232.476562 237.09375 232.128906 237.675781 231.75 238.238281 C 231.375 238.804688 230.96875 239.347656 230.539062 239.871094 C 230.109375 240.398438 229.652344 240.898438 229.171875 241.378906 C 228.691406 241.859375 228.191406 242.316406 227.664062 242.746094 C 227.140625 243.175781 226.597656 243.582031 226.03125 243.957031 C 225.46875 244.335938 224.886719 244.683594 224.285156 245.003906 C 223.6875 245.324219 223.074219 245.613281 222.449219 245.871094 C 221.820312 246.132812 221.183594 246.359375 220.53125 246.558594 C 219.882812 246.753906 219.226562 246.921875 218.558594 247.050781 C 217.894531 247.183594 217.222656 247.285156 216.546875 247.351562 C 215.871094 247.417969 215.195312 247.449219 214.515625 247.449219 Z M 214.515625 226.722656 L 214.515625 123.082031 L 110.875 123.082031 L 110.875 226.722656 Z M 214.515625 226.722656 " fill-opacity="1" fill-rule="nonzero"/></svg>