<svg xmlns="http://www.w3.org/2000/svg" xmlns:xlink="http://www.w3.org/1999/xlink" width="500" zoomAndPan="magnify" viewBox="0 0 375 374.999991" height="500" preserveAspectRatio="xMidYMid meet" version="1.0"><defs><clipPath id="5323f1d2f1"><path d="M 86.167969 90.039062 L 298.273438 90.039062 L 298.273438 300.5 L 86.167969 300.5 Z M 86.167969 90.039062 " clip-rule="nonzero"/></clipPath><clipPath id="6e90f28b78"><path d="M 103.417969 90.039062 L 280.828125 90.039062 C 290.355469 90.039062 298.078125 97.761719 298.078125 107.289062 L 298.078125 283.25 C 298.078125 292.777344 290.355469 300.5 280.828125 300.5 L 103.417969 300.5 C 93.890625 300.5 86.167969 292.777344 86.167969 283.25 L 86.167969 107.289062 C 86.167969 97.761719 93.890625 90.039062 103.417969 90.039062 Z M 103.417969 90.039062 " clip-rule="nonzero"/></clipPath><clipPath id="cbe91ed46e"><path d="M 0.167969 0.0390625 L 212.238281 0.0390625 L 212.238281 210.5 L 0.167969 210.5 Z M 0.167969 0.0390625 " clip-rule="nonzero"/></clipPath><clipPath id="289a6d490f"><path d="M 17.417969 0.0390625 L 194.828125 0.0390625 C 204.355469 0.0390625 212.078125 7.761719 212.078125 17.289062 L 212.078125 193.25 C 212.078125 202.777344 204.355469 210.5 194.828125 210.5 L 17.417969 210.5 C 7.890625 210.5 0.167969 202.777344 0.167969 193.25 L 0.167969 17.289062 C 0.167969 7.761719 7.890625 0.0390625 17.417969 0.0390625 Z M 17.417969 0.0390625 " clip-rule="nonzero"/></clipPath><clipPath id="7761338b8d"><rect x="0" width="213" y="0" height="211"/></clipPath><clipPath id="0048b8165b"><path d="M 116.742188 119.890625 L 267.5 119.890625 L 267.5 270.648438 L 116.742188 270.648438 Z M 116.742188 119.890625 " clip-rule="nonzero"/></clipPath><clipPath id="8d01c0b620"><path d="M 0.921875 0.5 L 213 0.5 L 213 210.960938 L 0.921875 210.960938 Z M 0.921875 0.5 " clip-rule="nonzero"/></clipPath><clipPath id="d915d35b65"><path d="M 18.171875 0.5 L 195.582031 0.5 C 205.109375 0.5 212.832031 8.222656 212.832031 17.75 L 212.832031 193.710938 C 212.832031 203.238281 205.109375 210.960938 195.582031 210.960938 L 18.171875 210.960938 C 8.644531 210.960938 0.921875 203.238281 0.921875 193.710938 L 0.921875 17.75 C 0.921875 8.222656 8.644531 0.5 18.171875 0.5 Z M 18.171875 0.5 " clip-rule="nonzero"/></clipPath><clipPath id="a826447b3b"><path d="M 0.921875 0.5 L 213 0.5 L 213 210.960938 L 0.921875 210.960938 Z M 0.921875 0.5 " clip-rule="nonzero"/></clipPath><clipPath id="6f86bb1a8f"><path d="M 18.171875 0.5 L 195.582031 0.5 C 205.109375 0.5 212.832031 8.222656 212.832031 17.75 L 212.832031 193.710938 C 212.832031 203.238281 205.109375 210.960938 195.582031 210.960938 L 18.171875 210.960938 C 8.644531 210.960938 0.921875 203.238281 0.921875 193.710938 L 0.921875 17.75 C 0.921875 8.222656 8.644531 0.5 18.171875 0.5 Z M 18.171875 0.5 " clip-rule="nonzero"/></clipPath><clipPath id="38028e451f"><rect x="0" width="213" y="0" height="211"/></clipPath><clipPath id="d558c3ce54"><path d="M 31.5 30.351562 L 182.257812 30.351562 L 182.257812 181.109375 L 31.5 181.109375 Z M 31.5 30.351562 " clip-rule="nonzero"/></clipPath><clipPath id="7e106fd38b"><rect x="0" width="299" y="0" height="301"/></clipPath></defs><g transform="matrix(1, 0, 0, 1, 38, 37)"><g clip-path="url(#7e106fd38b)"><g clip-path="url(#5323f1d2f1)"><g clip-path="url(#6e90f28b78)"><g transform="matrix(1, 0, 0, 1, 86, 90)"><g clip-path="url(#7761338b8d)"><g clip-path="url(#cbe91ed46e)"><g clip-path="url(#289a6d490f)"><path fill="#2a7c7c" d="M 0.167969 0.0390625 L 212.273438 0.0390625 L 212.273438 210.5 L 0.167969 210.5 Z M 0.167969 0.0390625 " fill-opacity="1" fill-rule="nonzero"/></g></g></g></g></g></g><g clip-path="url(#0048b8165b)"><path fill="#ffffff" d="M 116.742188 119.890625 L 267.480469 119.890625 L 267.480469 270.628906 L 116.742188 270.628906 Z M 116.742188 119.890625 " fill-opacity="1" fill-rule="nonzero"/></g><g clip-path="url(#8d01c0b620)"><g clip-path="url(#d915d35b65)"><g><g clip-path="url(#38028e451f)"><g clip-path="url(#a826447b3b)"><g clip-path="url(#6f86bb1a8f)"><path fill="#2a7c7c" d="M 0.921875 0.5 L 213.027344 0.5 L 213.027344 210.960938 L 0.921875 210.960938 Z M 0.921875 0.5 " fill-opacity="1" fill-rule="nonzero"/></g></g></g></g></g></g><g clip-path="url(#d558c3ce54)"><path fill="#ffffff" d="M 31.5 30.351562 L 182.238281 30.351562 L 182.238281 181.089844 L 31.5 181.089844 Z M 31.5 30.351562 " fill-opacity="1" fill-rule="nonzero"/></g></g></g></svg>