<svg xmlns="http://www.w3.org/2000/svg" xmlns:xlink="http://www.w3.org/1999/xlink" width="1920" zoomAndPan="magnify" viewBox="0 0 1440 412.499988" height="550" preserveAspectRatio="xMidYMid meet" version="1.0"><defs><g/><clipPath id="535c0c44bb"><rect x="0" width="1014" y="0" height="218"/></clipPath><clipPath id="4bcad60856"><path d="M 135 155 L 302 155 L 302 322.242188 L 135 322.242188 Z M 135 155 " clip-rule="nonzero"/></clipPath><clipPath id="36c20d3d70"><path d="M 154.605469 155.53125 L 282.5 155.53125 C 287.664062 155.53125 292.621094 157.582031 296.273438 161.234375 C 299.925781 164.886719 301.976562 169.84375 301.976562 175.007812 L 301.976562 302.765625 C 301.976562 307.929688 299.925781 312.882812 296.273438 316.535156 C 292.621094 320.1875 287.664062 322.242188 282.5 322.242188 L 154.605469 322.242188 C 149.441406 322.242188 144.484375 320.1875 140.832031 316.535156 C 137.179688 312.882812 135.128906 307.929688 135.128906 302.765625 L 135.128906 175.007812 C 135.128906 169.84375 137.179688 164.886719 140.832031 161.234375 C 144.484375 157.582031 149.441406 155.53125 154.605469 155.53125 Z M 154.605469 155.53125 " clip-rule="nonzero"/></clipPath><clipPath id="fe3df8d738"><path d="M 0.109375 0.332031 L 167 0.332031 L 167 167.242188 L 0.109375 167.242188 Z M 0.109375 0.332031 " clip-rule="nonzero"/></clipPath><clipPath id="4f522a2ff2"><path d="M 19.605469 0.53125 L 147.5 0.53125 C 152.664062 0.53125 157.621094 2.582031 161.273438 6.234375 C 164.925781 9.886719 166.976562 14.84375 166.976562 20.007812 L 166.976562 147.765625 C 166.976562 152.929688 164.925781 157.882812 161.273438 161.535156 C 157.621094 165.1875 152.664062 167.242188 147.5 167.242188 L 19.605469 167.242188 C 14.441406 167.242188 9.484375 165.1875 5.832031 161.535156 C 2.179688 157.882812 0.128906 152.929688 0.128906 147.765625 L 0.128906 20.007812 C 0.128906 14.84375 2.179688 9.886719 5.832031 6.234375 C 9.484375 2.582031 14.441406 0.53125 19.605469 0.53125 Z M 19.605469 0.53125 " clip-rule="nonzero"/></clipPath><clipPath id="49190be1de"><rect x="0" width="167" y="0" height="168"/></clipPath><clipPath id="1d3df180db"><path d="M 79 89.109375 L 246.609375 89.109375 L 246.609375 256.46875 L 79 256.46875 Z M 79 89.109375 " clip-rule="nonzero"/></clipPath><clipPath id="479a63d6e7"><path d="M 98.722656 89.757812 L 226.617188 89.757812 C 231.785156 89.757812 236.738281 91.8125 240.390625 95.464844 C 244.042969 99.117188 246.09375 104.070312 246.09375 109.234375 L 246.09375 236.992188 C 246.09375 242.160156 244.042969 247.113281 240.390625 250.765625 C 236.738281 254.417969 231.785156 256.46875 226.617188 256.46875 L 98.722656 256.46875 C 93.558594 256.46875 88.605469 254.417969 84.949219 250.765625 C 81.296875 247.113281 79.246094 242.160156 79.246094 236.992188 L 79.246094 109.234375 C 79.246094 104.070312 81.296875 99.117188 84.949219 95.464844 C 88.605469 91.8125 93.558594 89.757812 98.722656 89.757812 Z M 98.722656 89.757812 " clip-rule="nonzero"/></clipPath><clipPath id="48ecde36e8"><path d="M 0.015625 0.652344 L 167 0.652344 L 167 167.46875 L 0.015625 167.46875 Z M 0.015625 0.652344 " clip-rule="nonzero"/></clipPath><clipPath id="1ef4552883"><path d="M 19.722656 0.757812 L 147.617188 0.757812 C 152.785156 0.757812 157.738281 2.8125 161.390625 6.464844 C 165.042969 10.117188 167.09375 15.070312 167.09375 20.234375 L 167.09375 147.992188 C 167.09375 153.160156 165.042969 158.113281 161.390625 161.765625 C 157.738281 165.417969 152.785156 167.46875 147.617188 167.46875 L 19.722656 167.46875 C 14.558594 167.46875 9.605469 165.417969 5.949219 161.765625 C 2.296875 158.113281 0.246094 153.160156 0.246094 147.992188 L 0.246094 20.234375 C 0.246094 15.070312 2.296875 10.117188 5.949219 6.464844 C 9.605469 2.8125 14.558594 0.757812 19.722656 0.757812 Z M 19.722656 0.757812 " clip-rule="nonzero"/></clipPath><clipPath id="5df65e6018"><rect x="0" width="168" y="0" height="168"/></clipPath><clipPath id="375863e4c8"><path d="M 93.628906 108.996094 L 228.828125 108.996094 L 228.828125 142.796875 L 93.628906 142.796875 Z M 93.628906 108.996094 " clip-rule="nonzero"/></clipPath><clipPath id="7e9ae2f58d"><path d="M 110.527344 108.996094 L 211.917969 108.996094 C 216.398438 108.996094 220.695312 110.777344 223.867188 113.945312 C 227.035156 117.117188 228.816406 121.414062 228.816406 125.898438 C 228.816406 130.378906 227.035156 134.675781 223.867188 137.847656 C 220.695312 141.015625 216.398438 142.796875 211.917969 142.796875 L 110.527344 142.796875 C 106.046875 142.796875 101.746094 141.015625 98.578125 137.847656 C 95.410156 134.675781 93.628906 130.378906 93.628906 125.898438 C 93.628906 121.414062 95.410156 117.117188 98.578125 113.945312 C 101.746094 110.777344 106.046875 108.996094 110.527344 108.996094 Z M 110.527344 108.996094 " clip-rule="nonzero"/></clipPath><clipPath id="c9de4f4dc0"><path d="M 0.628906 0.996094 L 135.828125 0.996094 L 135.828125 34.796875 L 0.628906 34.796875 Z M 0.628906 0.996094 " clip-rule="nonzero"/></clipPath><clipPath id="fb3f6211da"><path d="M 17.527344 0.996094 L 118.917969 0.996094 C 123.398438 0.996094 127.695312 2.777344 130.867188 5.945312 C 134.035156 9.117188 135.816406 13.414062 135.816406 17.898438 C 135.816406 22.378906 134.035156 26.675781 130.867188 29.847656 C 127.695312 33.015625 123.398438 34.796875 118.917969 34.796875 L 17.527344 34.796875 C 13.046875 34.796875 8.746094 33.015625 5.578125 29.847656 C 2.410156 26.675781 0.628906 22.378906 0.628906 17.898438 C 0.628906 13.414062 2.410156 9.117188 5.578125 5.945312 C 8.746094 2.777344 13.046875 0.996094 17.527344 0.996094 Z M 17.527344 0.996094 " clip-rule="nonzero"/></clipPath><clipPath id="594ee0b37f"><rect x="0" width="136" y="0" height="35"/></clipPath><clipPath id="f2e9973a4e"><path d="M 93.628906 156.214844 L 228.828125 156.214844 L 228.828125 190.015625 L 93.628906 190.015625 Z M 93.628906 156.214844 " clip-rule="nonzero"/></clipPath><clipPath id="bd027b2fe1"><path d="M 110.527344 156.214844 L 211.917969 156.214844 C 216.398438 156.214844 220.695312 157.996094 223.867188 161.164062 C 227.035156 164.332031 228.816406 168.632812 228.816406 173.113281 C 228.816406 177.597656 227.035156 181.894531 223.867188 185.0625 C 220.695312 188.234375 216.398438 190.015625 211.917969 190.015625 L 110.527344 190.015625 C 106.046875 190.015625 101.746094 188.234375 98.578125 185.0625 C 95.410156 181.894531 93.628906 177.597656 93.628906 173.113281 C 93.628906 168.632812 95.410156 164.332031 98.578125 161.164062 C 101.746094 157.996094 106.046875 156.214844 110.527344 156.214844 Z M 110.527344 156.214844 " clip-rule="nonzero"/></clipPath><clipPath id="772a38ff7a"><path d="M 0.628906 0.214844 L 135.828125 0.214844 L 135.828125 34.015625 L 0.628906 34.015625 Z M 0.628906 0.214844 " clip-rule="nonzero"/></clipPath><clipPath id="bfd7ac6fb6"><path d="M 17.527344 0.214844 L 118.917969 0.214844 C 123.398438 0.214844 127.695312 1.996094 130.867188 5.164062 C 134.035156 8.332031 135.816406 12.632812 135.816406 17.113281 C 135.816406 21.597656 134.035156 25.894531 130.867188 29.0625 C 127.695312 32.234375 123.398438 34.015625 118.917969 34.015625 L 17.527344 34.015625 C 13.046875 34.015625 8.746094 32.234375 5.578125 29.0625 C 2.410156 25.894531 0.628906 21.597656 0.628906 17.113281 C 0.628906 12.632812 2.410156 8.332031 5.578125 5.164062 C 8.746094 1.996094 13.046875 0.214844 17.527344 0.214844 Z M 17.527344 0.214844 " clip-rule="nonzero"/></clipPath><clipPath id="38b7984616"><rect x="0" width="136" y="0" height="35"/></clipPath><clipPath id="ec040c8f84"><path d="M 93.628906 206 L 195.625 206 L 195.625 238.886719 L 93.628906 238.886719 Z M 93.628906 206 " clip-rule="nonzero"/></clipPath><clipPath id="980bac412d"><path d="M 110.070312 206 L 179.125 206 C 183.484375 206 187.667969 207.734375 190.75 210.816406 C 193.835938 213.898438 195.566406 218.082031 195.566406 222.441406 C 195.566406 226.804688 193.835938 230.988281 190.75 234.070312 C 187.667969 237.152344 183.484375 238.886719 179.125 238.886719 L 110.070312 238.886719 C 105.710938 238.886719 101.527344 237.152344 98.445312 234.070312 C 95.359375 230.988281 93.628906 226.804688 93.628906 222.441406 C 93.628906 218.082031 95.359375 213.898438 98.445312 210.816406 C 101.527344 207.734375 105.710938 206 110.070312 206 Z M 110.070312 206 " clip-rule="nonzero"/></clipPath><clipPath id="60ce1e43f9"><path d="M 0.628906 0 L 102.625 0 L 102.625 32.886719 L 0.628906 32.886719 Z M 0.628906 0 " clip-rule="nonzero"/></clipPath><clipPath id="3e6c0c7c4e"><path d="M 17.070312 0 L 86.125 0 C 90.484375 0 94.667969 1.734375 97.75 4.816406 C 100.835938 7.898438 102.566406 12.082031 102.566406 16.441406 C 102.566406 20.804688 100.835938 24.988281 97.75 28.070312 C 94.667969 31.152344 90.484375 32.886719 86.125 32.886719 L 17.070312 32.886719 C 12.710938 32.886719 8.527344 31.152344 5.445312 28.070312 C 2.359375 24.988281 0.628906 20.804688 0.628906 16.441406 C 0.628906 12.082031 2.359375 7.898438 5.445312 4.816406 C 8.527344 1.734375 12.710938 0 17.070312 0 Z M 17.070312 0 " clip-rule="nonzero"/></clipPath><clipPath id="47a4f1a6fc"><rect x="0" width="103" y="0" height="33"/></clipPath></defs><g transform="matrix(1, 0, 0, 1, 345, 97)"><g clip-path="url(#535c0c44bb)"><g fill="#243746" fill-opacity="1"><g transform="translate(0.642879, 175.645477)"><g><path d="M 37.09375 0 L 11.890625 0 L 11.890625 -133.484375 L 53.53125 -133.484375 L 81.171875 -30.4375 L 108.640625 -133.484375 L 150.640625 -133.484375 L 150.640625 0 L 125.4375 0 L 125.4375 -114.59375 L 93.59375 0 L 68.9375 0 L 37.09375 -113.890625 Z M 37.09375 0 "/></g></g></g><g fill="#243746" fill-opacity="1"><g transform="translate(163.165561, 175.645477)"><g><path d="M 56.6875 1.921875 C 46.65625 1.921875 37.875 -0.265625 30.34375 -4.640625 C 22.820312 -9.015625 16.988281 -14.988281 12.84375 -22.5625 C 8.707031 -30.144531 6.640625 -38.78125 6.640625 -48.46875 C 6.640625 -54.875 7.628906 -61.164062 9.609375 -67.34375 C 11.597656 -73.53125 14.632812 -79.101562 18.71875 -84.0625 C 22.800781 -89.019531 27.929688 -92.957031 34.109375 -95.875 C 40.296875 -98.789062 47.585938 -100.25 55.984375 -100.25 C 62.285156 -100.25 68.378906 -99.253906 74.265625 -97.265625 C 80.160156 -95.285156 85.4375 -92.222656 90.09375 -88.078125 C 94.757812 -83.941406 98.460938 -78.664062 101.203125 -72.25 C 103.953125 -65.84375 105.328125 -58.207031 105.328125 -49.34375 L 105.328125 -44.265625 L 31.140625 -44.265625 C 31.367188 -42.160156 31.832031 -40.085938 32.53125 -38.046875 C 33.238281 -36.003906 34 -34.226562 34.8125 -32.71875 C 37.144531 -28.164062 40.265625 -24.632812 44.171875 -22.125 C 48.078125 -19.625 52.539062 -18.375 57.5625 -18.375 C 63.15625 -18.375 67.847656 -19.832031 71.640625 -22.75 C 75.429688 -25.664062 78.085938 -29.101562 79.609375 -33.0625 L 103.75 -33.0625 C 101.882812 -26.769531 98.910156 -20.96875 94.828125 -15.65625 C 90.742188 -10.351562 85.550781 -6.097656 79.25 -2.890625 C 72.957031 0.316406 65.4375 1.921875 56.6875 1.921875 Z M 32.1875 -61.9375 L 81.171875 -61.9375 C 81.054688 -63.21875 80.734375 -64.671875 80.203125 -66.296875 C 79.679688 -67.929688 78.78125 -69.507812 77.5 -71.03125 C 75.289062 -74.53125 72.347656 -77.15625 68.671875 -78.90625 C 64.992188 -80.65625 61 -81.53125 56.6875 -81.53125 C 52.375 -81.53125 48.4375 -80.65625 44.875 -78.90625 C 41.320312 -77.15625 38.378906 -74.53125 36.046875 -71.03125 C 34.753906 -69.507812 33.847656 -67.929688 33.328125 -66.296875 C 32.804688 -64.671875 32.425781 -63.21875 32.1875 -61.9375 Z M 32.1875 -61.9375 "/></g></g></g><g fill="#243746" fill-opacity="1"><g transform="translate(275.129506, 175.645477)"><g><path d="M 34.296875 0 L 10.671875 0 L 10.671875 -98.15625 L 34.296875 -98.15625 L 34.296875 -86.421875 C 38.023438 -91.554688 42.191406 -95.144531 46.796875 -97.1875 C 51.398438 -99.226562 56.5625 -100.25 62.28125 -100.25 L 65.078125 -100.25 L 65.078125 -77.5 L 59.65625 -77.5 C 55.6875 -77.5 52.273438 -76.972656 49.421875 -75.921875 C 46.566406 -74.878906 44.144531 -73.425781 42.15625 -71.5625 C 39.59375 -68.988281 37.640625 -65.628906 36.296875 -61.484375 C 34.960938 -57.347656 34.296875 -52.015625 34.296875 -45.484375 Z M 34.296875 0 "/></g></g></g><g fill="#243746" fill-opacity="1"><g transform="translate(342.132917, 175.645477)"><g><path d="M 55.8125 37.265625 C 49.164062 37.265625 42.601562 36.359375 36.125 34.546875 C 29.65625 32.742188 24.085938 29.507812 19.421875 24.84375 C 14.753906 20.175781 11.722656 13.644531 10.328125 5.25 L 34.109375 5.25 C 35.628906 10.03125 38.164062 13.5 41.71875 15.65625 C 45.28125 17.8125 49.921875 18.890625 55.640625 18.890625 C 63.679688 18.890625 69.476562 17.050781 73.03125 13.375 C 76.59375 9.707031 78.375 5.015625 78.375 -0.703125 L 78.375 -14.515625 C 74.414062 -8.921875 70.21875 -5.128906 65.78125 -3.140625 C 61.351562 -1.160156 56.222656 -0.171875 50.390625 -0.171875 C 41.867188 -0.171875 34.367188 -2.328125 27.890625 -6.640625 C 21.421875 -10.960938 16.378906 -16.851562 12.765625 -24.3125 C 9.148438 -31.78125 7.34375 -40.296875 7.34375 -49.859375 C 7.34375 -59.660156 9.148438 -68.347656 12.765625 -75.921875 C 16.378906 -83.503906 21.421875 -89.453125 27.890625 -93.765625 C 34.367188 -98.085938 41.867188 -100.25 50.390625 -100.25 C 56.222656 -100.25 61.351562 -99.195312 65.78125 -97.09375 C 70.21875 -95 74.414062 -91.210938 78.375 -85.734375 L 78.375 -98.15625 L 102 -98.15625 L 102 -6.296875 C 102 4.898438 99.957031 13.675781 95.875 20.03125 C 91.789062 26.382812 86.25 30.84375 79.25 33.40625 C 72.25 35.976562 64.4375 37.265625 55.8125 37.265625 Z M 55.984375 -20.46875 C 61.003906 -20.46875 65.40625 -21.75 69.1875 -24.3125 C 72.976562 -26.882812 75.953125 -30.414062 78.109375 -34.90625 C 80.273438 -39.394531 81.359375 -44.5 81.359375 -50.21875 C 81.359375 -55.925781 80.273438 -61.023438 78.109375 -65.515625 C 75.953125 -70.003906 72.976562 -73.53125 69.1875 -76.09375 C 65.40625 -78.664062 61.003906 -79.953125 55.984375 -79.953125 C 50.972656 -79.953125 46.597656 -78.640625 42.859375 -76.015625 C 39.128906 -73.390625 36.242188 -69.832031 34.203125 -65.34375 C 32.160156 -60.851562 31.140625 -55.8125 31.140625 -50.21875 C 31.140625 -44.613281 32.160156 -39.566406 34.203125 -35.078125 C 36.242188 -30.585938 39.128906 -27.03125 42.859375 -24.40625 C 46.597656 -21.78125 50.972656 -20.46875 55.984375 -20.46875 Z M 55.984375 -20.46875 "/></g></g></g><g fill="#243746" fill-opacity="1"><g transform="translate(454.796678, 175.645477)"><g><path d="M 22.5625 -109 C 18.601562 -109 15.191406 -110.222656 12.328125 -112.671875 C 9.472656 -115.117188 8.046875 -118.382812 8.046875 -122.46875 C 8.046875 -126.4375 9.472656 -129.671875 12.328125 -132.171875 C 15.191406 -134.679688 18.601562 -135.9375 22.5625 -135.9375 C 26.53125 -135.9375 29.941406 -134.679688 32.796875 -132.171875 C 35.660156 -129.671875 37.09375 -126.4375 37.09375 -122.46875 C 37.09375 -118.382812 35.660156 -115.117188 32.796875 -112.671875 C 29.941406 -110.222656 26.53125 -109 22.5625 -109 Z M 34.296875 0 L 10.671875 0 L 10.671875 -98.15625 L 34.296875 -98.15625 Z M 34.296875 0 "/></g></g></g><g fill="#243746" fill-opacity="1"><g transform="translate(499.932136, 175.645477)"><g><path d="M 42.6875 0 L 18.890625 0 L 18.890625 -79.25 L 4.03125 -79.25 L 4.03125 -98.15625 L 18.890625 -98.15625 L 18.890625 -108.125 C 18.890625 -116.289062 21.191406 -122.554688 25.796875 -126.921875 C 30.410156 -131.296875 37.148438 -133.484375 46.015625 -133.484375 L 60.703125 -133.484375 L 60.703125 -114.765625 L 51.609375 -114.765625 C 49.046875 -114.765625 46.914062 -114.035156 45.21875 -112.578125 C 43.53125 -111.117188 42.6875 -108.523438 42.6875 -104.796875 L 42.6875 -98.15625 L 60.703125 -98.15625 L 60.703125 -79.25 L 42.6875 -79.25 Z M 42.6875 0 "/></g></g></g><g fill="#243746" fill-opacity="1"><g transform="translate(564.311405, 175.645477)"><g><path d="M 28.515625 35.34375 L 12.25 35.34375 L 12.25 15.390625 L 22.921875 15.390625 C 25.953125 15.390625 28.457031 14.953125 30.4375 14.078125 C 32.425781 13.203125 34.117188 10.957031 35.515625 7.34375 L 38.140625 0.34375 L 1.921875 -98.15625 L 27.46875 -98.15625 L 50.390625 -26.0625 L 71.03125 -98.15625 L 96.40625 -98.15625 L 58.265625 11.546875 C 55.222656 20.296875 51.515625 26.445312 47.140625 30 C 42.773438 33.5625 36.566406 35.34375 28.515625 35.34375 Z M 28.515625 35.34375 "/></g></g></g><g fill="#243746" fill-opacity="1"><g transform="translate(663.154603, 175.645477)"><g><path d="M 37.09375 0 L 11.890625 0 L 11.890625 -133.484375 L 69.453125 -133.484375 C 77.847656 -133.484375 85.222656 -132.113281 91.578125 -129.375 C 97.941406 -126.632812 102.898438 -122.378906 106.453125 -116.609375 C 110.015625 -110.835938 111.796875 -103.34375 111.796875 -94.125 C 111.796875 -85.613281 110.015625 -78.296875 106.453125 -72.171875 C 102.898438 -66.046875 97.941406 -61.378906 91.578125 -58.171875 C 85.222656 -54.960938 77.847656 -53.359375 69.453125 -53.359375 L 37.09375 -53.359375 Z M 37.09375 -110.921875 L 37.09375 -75.40625 L 65.953125 -75.40625 C 72.722656 -75.40625 77.882812 -76.921875 81.4375 -79.953125 C 85 -82.984375 86.78125 -87.414062 86.78125 -93.25 C 86.78125 -98.96875 84.972656 -103.34375 81.359375 -106.375 C 77.742188 -109.40625 72.609375 -110.921875 65.953125 -110.921875 Z M 37.09375 -110.921875 "/></g></g></g><g fill="#243746" fill-opacity="1"><g transform="translate(779.667094, 175.645477)"><g><path d="M 50.734375 0 L 11.890625 0 L 11.890625 -133.484375 L 50.734375 -133.484375 C 73.359375 -133.484375 90.648438 -127.707031 102.609375 -116.15625 C 114.566406 -104.613281 120.546875 -88.113281 120.546875 -66.65625 C 120.546875 -45.3125 114.535156 -28.863281 102.515625 -17.3125 C 90.503906 -5.769531 73.242188 0 50.734375 0 Z M 37.09375 -110.921875 L 37.09375 -22.5625 L 50.390625 -22.5625 C 59.253906 -22.5625 67.066406 -23.929688 73.828125 -26.671875 C 80.597656 -29.421875 85.875 -34.03125 89.65625 -40.5 C 93.445312 -46.976562 95.34375 -55.695312 95.34375 -66.65625 C 95.34375 -77.039062 93.476562 -85.46875 89.75 -91.9375 C 86.019531 -98.40625 80.800781 -103.1875 74.09375 -106.28125 C 67.382812 -109.375 59.539062 -110.921875 50.5625 -110.921875 Z M 37.09375 -110.921875 "/></g></g></g><g fill="#243746" fill-opacity="1"><g transform="translate(907.02608, 175.645477)"><g><path d="M 37.09375 0 L 11.890625 0 L 11.890625 -133.484375 L 100.953125 -133.484375 L 100.953125 -110.921875 L 37.09375 -110.921875 L 37.09375 -78.03125 L 94.296875 -78.03125 L 94.296875 -55.640625 L 37.09375 -55.640625 Z M 37.09375 0 "/></g></g></g></g></g><g clip-path="url(#4bcad60856)"><g clip-path="url(#36c20d3d70)"><g transform="matrix(1, 0, 0, 1, 135, 155)"><g clip-path="url(#49190be1de)"><g clip-path="url(#fe3df8d738)"><g clip-path="url(#4f522a2ff2)"><path fill="#024d7c" d="M 0.128906 0.53125 L 166.839844 0.53125 L 166.839844 167.242188 L 0.128906 167.242188 Z M 0.128906 0.53125 " fill-opacity="1" fill-rule="nonzero"/></g></g></g></g></g></g><g clip-path="url(#1d3df180db)"><g clip-path="url(#479a63d6e7)"><g transform="matrix(1, 0, 0, 1, 79, 89)"><g clip-path="url(#5df65e6018)"><g clip-path="url(#48ecde36e8)"><g clip-path="url(#1ef4552883)"><path fill="#009dfd" d="M 0.246094 0.757812 L 166.957031 0.757812 L 166.957031 167.46875 L 0.246094 167.46875 Z M 0.246094 0.757812 " fill-opacity="1" fill-rule="nonzero"/></g></g></g></g></g></g><g clip-path="url(#375863e4c8)"><g clip-path="url(#7e9ae2f58d)"><g transform="matrix(1, 0, 0, 1, 93, 108)"><g clip-path="url(#594ee0b37f)"><g clip-path="url(#c9de4f4dc0)"><g clip-path="url(#fb3f6211da)"><path fill="#ffffff" d="M 0.628906 0.996094 L 135.828125 0.996094 L 135.828125 34.796875 L 0.628906 34.796875 Z M 0.628906 0.996094 " fill-opacity="1" fill-rule="nonzero"/></g></g></g></g></g></g><g clip-path="url(#f2e9973a4e)"><g clip-path="url(#bd027b2fe1)"><g transform="matrix(1, 0, 0, 1, 93, 156)"><g clip-path="url(#38b7984616)"><g clip-path="url(#772a38ff7a)"><g clip-path="url(#bfd7ac6fb6)"><path fill="#ffffff" d="M 0.628906 0.214844 L 135.828125 0.214844 L 135.828125 34.015625 L 0.628906 34.015625 Z M 0.628906 0.214844 " fill-opacity="1" fill-rule="nonzero"/></g></g></g></g></g></g><g clip-path="url(#ec040c8f84)"><g clip-path="url(#980bac412d)"><g transform="matrix(1, 0, 0, 1, 93, 206)"><g clip-path="url(#47a4f1a6fc)"><g clip-path="url(#60ce1e43f9)"><g clip-path="url(#3e6c0c7c4e)"><path fill="#ffffff" d="M 0.628906 0 L 102.625 0 L 102.625 32.886719 L 0.628906 32.886719 Z M 0.628906 0 " fill-opacity="1" fill-rule="nonzero"/></g></g></g></g></g></g></svg>