<svg xmlns="http://www.w3.org/2000/svg" xmlns:xlink="http://www.w3.org/1999/xlink" width="1920" zoomAndPan="magnify" viewBox="0 0 1440 412.499988" height="550" preserveAspectRatio="xMidYMid meet" version="1.0"><defs><g/><clipPath id="98d6e5cd88"><rect x="0" width="1096" y="0" height="218"/></clipPath><clipPath id="43b8daf12d"><path d="M 97.300781 155 L 265 155 L 265 322.242188 L 97.300781 322.242188 Z M 97.300781 155 " clip-rule="nonzero"/></clipPath><clipPath id="e4184c99b5"><path d="M 117.429688 155.53125 L 245.324219 155.53125 C 250.492188 155.53125 255.445312 157.582031 259.097656 161.234375 C 262.75 164.886719 264.800781 169.84375 264.800781 175.007812 L 264.800781 302.765625 C 264.800781 307.929688 262.75 312.882812 259.097656 316.535156 C 255.445312 320.1875 250.492188 322.242188 245.324219 322.242188 L 117.429688 322.242188 C 112.265625 322.242188 107.3125 320.1875 103.660156 316.535156 C 100.003906 312.882812 97.953125 307.929688 97.953125 302.765625 L 97.953125 175.007812 C 97.953125 169.84375 100.003906 164.886719 103.660156 161.234375 C 107.3125 157.582031 112.265625 155.53125 117.429688 155.53125 Z M 117.429688 155.53125 " clip-rule="nonzero"/></clipPath><clipPath id="9b4a71d576"><path d="M 0.714844 0.332031 L 168 0.332031 L 168 167.242188 L 0.714844 167.242188 Z M 0.714844 0.332031 " clip-rule="nonzero"/></clipPath><clipPath id="414e39fd07"><path d="M 20.429688 0.53125 L 148.324219 0.53125 C 153.492188 0.53125 158.445312 2.582031 162.097656 6.234375 C 165.75 9.886719 167.800781 14.84375 167.800781 20.007812 L 167.800781 147.765625 C 167.800781 152.929688 165.75 157.882812 162.097656 161.535156 C 158.445312 165.1875 153.492188 167.242188 148.324219 167.242188 L 20.429688 167.242188 C 15.265625 167.242188 10.3125 165.1875 6.660156 161.535156 C 3.003906 157.882812 0.953125 152.929688 0.953125 147.765625 L 0.953125 20.007812 C 0.953125 14.84375 3.003906 9.886719 6.660156 6.234375 C 10.3125 2.582031 15.265625 0.53125 20.429688 0.53125 Z M 20.429688 0.53125 " clip-rule="nonzero"/></clipPath><clipPath id="f78d000e53"><rect x="0" width="168" y="0" height="168"/></clipPath><clipPath id="d3c8964f7e"><path d="M 42 89.109375 L 209 89.109375 L 209 256.46875 L 42 256.46875 Z M 42 89.109375 " clip-rule="nonzero"/></clipPath><clipPath id="81a5c37f30"><path d="M 61.546875 89.757812 L 189.445312 89.757812 C 194.609375 89.757812 199.5625 91.8125 203.214844 95.464844 C 206.867188 99.117188 208.921875 104.070312 208.921875 109.234375 L 208.921875 236.992188 C 208.921875 242.160156 206.867188 247.113281 203.214844 250.765625 C 199.5625 254.417969 194.609375 256.46875 189.445312 256.46875 L 61.546875 256.46875 C 56.382812 256.46875 51.429688 254.417969 47.777344 250.765625 C 44.125 247.113281 42.070312 242.160156 42.070312 236.992188 L 42.070312 109.234375 C 42.070312 104.070312 44.125 99.117188 47.777344 95.464844 C 51.429688 91.8125 56.382812 89.757812 61.546875 89.757812 Z M 61.546875 89.757812 " clip-rule="nonzero"/></clipPath><clipPath id="3851c634f8"><path d="M 0 0.652344 L 166.941406 0.652344 L 166.941406 167.46875 L 0 167.46875 Z M 0 0.652344 " clip-rule="nonzero"/></clipPath><clipPath id="1ac23a25a6"><path d="M 19.546875 0.757812 L 147.445312 0.757812 C 152.609375 0.757812 157.5625 2.8125 161.214844 6.464844 C 164.867188 10.117188 166.921875 15.070312 166.921875 20.234375 L 166.921875 147.992188 C 166.921875 153.160156 164.867188 158.113281 161.214844 161.765625 C 157.5625 165.417969 152.609375 167.46875 147.445312 167.46875 L 19.546875 167.46875 C 14.382812 167.46875 9.429688 165.417969 5.777344 161.765625 C 2.125 158.113281 0.0703125 153.160156 0.0703125 147.992188 L 0.0703125 20.234375 C 0.0703125 15.070312 2.125 10.117188 5.777344 6.464844 C 9.429688 2.8125 14.382812 0.757812 19.546875 0.757812 Z M 19.546875 0.757812 " clip-rule="nonzero"/></clipPath><clipPath id="dc56335e75"><rect x="0" width="167" y="0" height="168"/></clipPath><clipPath id="970728492b"><path d="M 56.453125 108.996094 L 191.652344 108.996094 L 191.652344 142.796875 L 56.453125 142.796875 Z M 56.453125 108.996094 " clip-rule="nonzero"/></clipPath><clipPath id="bb5dcebec9"><path d="M 73.355469 108.996094 L 174.742188 108.996094 C 179.222656 108.996094 183.523438 110.777344 186.691406 113.945312 C 189.859375 117.117188 191.640625 121.414062 191.640625 125.898438 C 191.640625 130.378906 189.859375 134.675781 186.691406 137.847656 C 183.523438 141.015625 179.222656 142.796875 174.742188 142.796875 L 73.355469 142.796875 C 68.871094 142.796875 64.574219 141.015625 61.402344 137.847656 C 58.234375 134.675781 56.453125 130.378906 56.453125 125.898438 C 56.453125 121.414062 58.234375 117.117188 61.402344 113.945312 C 64.574219 110.777344 68.871094 108.996094 73.355469 108.996094 Z M 73.355469 108.996094 " clip-rule="nonzero"/></clipPath><clipPath id="75bf8292f7"><path d="M 0.453125 0.996094 L 135.652344 0.996094 L 135.652344 34.796875 L 0.453125 34.796875 Z M 0.453125 0.996094 " clip-rule="nonzero"/></clipPath><clipPath id="f10244167b"><path d="M 17.355469 0.996094 L 118.742188 0.996094 C 123.222656 0.996094 127.523438 2.777344 130.691406 5.945312 C 133.859375 9.117188 135.640625 13.414062 135.640625 17.898438 C 135.640625 22.378906 133.859375 26.675781 130.691406 29.847656 C 127.523438 33.015625 123.222656 34.796875 118.742188 34.796875 L 17.355469 34.796875 C 12.871094 34.796875 8.574219 33.015625 5.402344 29.847656 C 2.234375 26.675781 0.453125 22.378906 0.453125 17.898438 C 0.453125 13.414062 2.234375 9.117188 5.402344 5.945312 C 8.574219 2.777344 12.871094 0.996094 17.355469 0.996094 Z M 17.355469 0.996094 " clip-rule="nonzero"/></clipPath><clipPath id="7f4f045f5d"><rect x="0" width="136" y="0" height="35"/></clipPath><clipPath id="9dfea7ad1f"><path d="M 56.453125 156.214844 L 191.652344 156.214844 L 191.652344 190.015625 L 56.453125 190.015625 Z M 56.453125 156.214844 " clip-rule="nonzero"/></clipPath><clipPath id="88f2264d28"><path d="M 73.355469 156.214844 L 174.742188 156.214844 C 179.222656 156.214844 183.523438 157.996094 186.691406 161.164062 C 189.859375 164.332031 191.640625 168.632812 191.640625 173.113281 C 191.640625 177.597656 189.859375 181.894531 186.691406 185.0625 C 183.523438 188.234375 179.222656 190.015625 174.742188 190.015625 L 73.355469 190.015625 C 68.871094 190.015625 64.574219 188.234375 61.402344 185.0625 C 58.234375 181.894531 56.453125 177.597656 56.453125 173.113281 C 56.453125 168.632812 58.234375 164.332031 61.402344 161.164062 C 64.574219 157.996094 68.871094 156.214844 73.355469 156.214844 Z M 73.355469 156.214844 " clip-rule="nonzero"/></clipPath><clipPath id="d3aaf7bf87"><path d="M 0.453125 0.214844 L 135.652344 0.214844 L 135.652344 34.015625 L 0.453125 34.015625 Z M 0.453125 0.214844 " clip-rule="nonzero"/></clipPath><clipPath id="2ea50e7372"><path d="M 17.355469 0.214844 L 118.742188 0.214844 C 123.222656 0.214844 127.523438 1.996094 130.691406 5.164062 C 133.859375 8.332031 135.640625 12.632812 135.640625 17.113281 C 135.640625 21.597656 133.859375 25.894531 130.691406 29.0625 C 127.523438 32.234375 123.222656 34.015625 118.742188 34.015625 L 17.355469 34.015625 C 12.871094 34.015625 8.574219 32.234375 5.402344 29.0625 C 2.234375 25.894531 0.453125 21.597656 0.453125 17.113281 C 0.453125 12.632812 2.234375 8.332031 5.402344 5.164062 C 8.574219 1.996094 12.871094 0.214844 17.355469 0.214844 Z M 17.355469 0.214844 " clip-rule="nonzero"/></clipPath><clipPath id="93d6d115de"><rect x="0" width="136" y="0" height="35"/></clipPath><clipPath id="0b0cf62250"><path d="M 56.453125 206 L 158.453125 206 L 158.453125 238.886719 L 56.453125 238.886719 Z M 56.453125 206 " clip-rule="nonzero"/></clipPath><clipPath id="0fa93636a9"><path d="M 72.898438 206 L 141.949219 206 C 146.308594 206 150.492188 207.734375 153.578125 210.816406 C 156.660156 213.898438 158.390625 218.082031 158.390625 222.441406 C 158.390625 226.804688 156.660156 230.988281 153.578125 234.070312 C 150.492188 237.152344 146.308594 238.886719 141.949219 238.886719 L 72.898438 238.886719 C 68.535156 238.886719 64.355469 237.152344 61.269531 234.070312 C 58.1875 230.988281 56.453125 226.804688 56.453125 222.441406 C 56.453125 218.082031 58.1875 213.898438 61.269531 210.816406 C 64.355469 207.734375 68.535156 206 72.898438 206 Z M 72.898438 206 " clip-rule="nonzero"/></clipPath><clipPath id="fd4b40aa57"><path d="M 0.453125 0 L 102.453125 0 L 102.453125 32.886719 L 0.453125 32.886719 Z M 0.453125 0 " clip-rule="nonzero"/></clipPath><clipPath id="c92f23d151"><path d="M 16.898438 0 L 85.949219 0 C 90.308594 0 94.492188 1.734375 97.578125 4.816406 C 100.660156 7.898438 102.390625 12.082031 102.390625 16.441406 C 102.390625 20.804688 100.660156 24.988281 97.578125 28.070312 C 94.492188 31.152344 90.308594 32.886719 85.949219 32.886719 L 16.898438 32.886719 C 12.535156 32.886719 8.355469 31.152344 5.269531 28.070312 C 2.1875 24.988281 0.453125 20.804688 0.453125 16.441406 C 0.453125 12.082031 2.1875 7.898438 5.269531 4.816406 C 8.355469 1.734375 12.535156 0 16.898438 0 Z M 16.898438 0 " clip-rule="nonzero"/></clipPath><clipPath id="dcfd203de3"><rect x="0" width="103" y="0" height="33"/></clipPath></defs><g transform="matrix(1, 0, 0, 1, 304, 97)"><g clip-path="url(#98d6e5cd88)"><g fill="#243746" fill-opacity="1"><g transform="translate(0.262333, 175.645477)"><g><path d="M 37.09375 0 L 11.890625 0 L 11.890625 -133.484375 L 53.53125 -133.484375 L 81.171875 -30.4375 L 108.640625 -133.484375 L 150.640625 -133.484375 L 150.640625 0 L 125.4375 0 L 125.4375 -114.59375 L 93.59375 0 L 68.9375 0 L 37.09375 -113.890625 Z M 37.09375 0 "/></g></g></g><g fill="#243746" fill-opacity="1"><g transform="translate(162.785014, 175.645477)"><g><path d="M 56.6875 1.921875 C 46.65625 1.921875 37.875 -0.265625 30.34375 -4.640625 C 22.820312 -9.015625 16.988281 -14.988281 12.84375 -22.5625 C 8.707031 -30.144531 6.640625 -38.78125 6.640625 -48.46875 C 6.640625 -54.875 7.628906 -61.164062 9.609375 -67.34375 C 11.597656 -73.53125 14.632812 -79.101562 18.71875 -84.0625 C 22.800781 -89.019531 27.929688 -92.957031 34.109375 -95.875 C 40.296875 -98.789062 47.585938 -100.25 55.984375 -100.25 C 62.285156 -100.25 68.378906 -99.253906 74.265625 -97.265625 C 80.160156 -95.285156 85.4375 -92.222656 90.09375 -88.078125 C 94.757812 -83.941406 98.460938 -78.664062 101.203125 -72.25 C 103.953125 -65.84375 105.328125 -58.207031 105.328125 -49.34375 L 105.328125 -44.265625 L 31.140625 -44.265625 C 31.367188 -42.160156 31.832031 -40.085938 32.53125 -38.046875 C 33.238281 -36.003906 34 -34.226562 34.8125 -32.71875 C 37.144531 -28.164062 40.265625 -24.632812 44.171875 -22.125 C 48.078125 -19.625 52.539062 -18.375 57.5625 -18.375 C 63.15625 -18.375 67.847656 -19.832031 71.640625 -22.75 C 75.429688 -25.664062 78.085938 -29.101562 79.609375 -33.0625 L 103.75 -33.0625 C 101.882812 -26.769531 98.910156 -20.96875 94.828125 -15.65625 C 90.742188 -10.351562 85.550781 -6.097656 79.25 -2.890625 C 72.957031 0.316406 65.4375 1.921875 56.6875 1.921875 Z M 32.1875 -61.9375 L 81.171875 -61.9375 C 81.054688 -63.21875 80.734375 -64.671875 80.203125 -66.296875 C 79.679688 -67.929688 78.78125 -69.507812 77.5 -71.03125 C 75.289062 -74.53125 72.347656 -77.15625 68.671875 -78.90625 C 64.992188 -80.65625 61 -81.53125 56.6875 -81.53125 C 52.375 -81.53125 48.4375 -80.65625 44.875 -78.90625 C 41.320312 -77.15625 38.378906 -74.53125 36.046875 -71.03125 C 34.753906 -69.507812 33.847656 -67.929688 33.328125 -66.296875 C 32.804688 -64.671875 32.425781 -63.21875 32.1875 -61.9375 Z M 32.1875 -61.9375 "/></g></g></g><g fill="#243746" fill-opacity="1"><g transform="translate(274.748959, 175.645477)"><g><path d="M 34.296875 0 L 10.671875 0 L 10.671875 -98.15625 L 34.296875 -98.15625 L 34.296875 -86.421875 C 38.023438 -91.554688 42.191406 -95.144531 46.796875 -97.1875 C 51.398438 -99.226562 56.5625 -100.25 62.28125 -100.25 L 65.078125 -100.25 L 65.078125 -77.5 L 59.65625 -77.5 C 55.6875 -77.5 52.273438 -76.972656 49.421875 -75.921875 C 46.566406 -74.878906 44.144531 -73.425781 42.15625 -71.5625 C 39.59375 -68.988281 37.640625 -65.628906 36.296875 -61.484375 C 34.960938 -57.347656 34.296875 -52.015625 34.296875 -45.484375 Z M 34.296875 0 "/></g></g></g><g fill="#243746" fill-opacity="1"><g transform="translate(341.75237, 175.645477)"><g><path d="M 55.8125 37.265625 C 49.164062 37.265625 42.601562 36.359375 36.125 34.546875 C 29.65625 32.742188 24.085938 29.507812 19.421875 24.84375 C 14.753906 20.175781 11.722656 13.644531 10.328125 5.25 L 34.109375 5.25 C 35.628906 10.03125 38.164062 13.5 41.71875 15.65625 C 45.28125 17.8125 49.921875 18.890625 55.640625 18.890625 C 63.679688 18.890625 69.476562 17.050781 73.03125 13.375 C 76.59375 9.707031 78.375 5.015625 78.375 -0.703125 L 78.375 -14.515625 C 74.414062 -8.921875 70.21875 -5.128906 65.78125 -3.140625 C 61.351562 -1.160156 56.222656 -0.171875 50.390625 -0.171875 C 41.867188 -0.171875 34.367188 -2.328125 27.890625 -6.640625 C 21.421875 -10.960938 16.378906 -16.851562 12.765625 -24.3125 C 9.148438 -31.78125 7.34375 -40.296875 7.34375 -49.859375 C 7.34375 -59.660156 9.148438 -68.347656 12.765625 -75.921875 C 16.378906 -83.503906 21.421875 -89.453125 27.890625 -93.765625 C 34.367188 -98.085938 41.867188 -100.25 50.390625 -100.25 C 56.222656 -100.25 61.351562 -99.195312 65.78125 -97.09375 C 70.21875 -95 74.414062 -91.210938 78.375 -85.734375 L 78.375 -98.15625 L 102 -98.15625 L 102 -6.296875 C 102 4.898438 99.957031 13.675781 95.875 20.03125 C 91.789062 26.382812 86.25 30.84375 79.25 33.40625 C 72.25 35.976562 64.4375 37.265625 55.8125 37.265625 Z M 55.984375 -20.46875 C 61.003906 -20.46875 65.40625 -21.75 69.1875 -24.3125 C 72.976562 -26.882812 75.953125 -30.414062 78.109375 -34.90625 C 80.273438 -39.394531 81.359375 -44.5 81.359375 -50.21875 C 81.359375 -55.925781 80.273438 -61.023438 78.109375 -65.515625 C 75.953125 -70.003906 72.976562 -73.53125 69.1875 -76.09375 C 65.40625 -78.664062 61.003906 -79.953125 55.984375 -79.953125 C 50.972656 -79.953125 46.597656 -78.640625 42.859375 -76.015625 C 39.128906 -73.390625 36.242188 -69.832031 34.203125 -65.34375 C 32.160156 -60.851562 31.140625 -55.8125 31.140625 -50.21875 C 31.140625 -44.613281 32.160156 -39.566406 34.203125 -35.078125 C 36.242188 -30.585938 39.128906 -27.03125 42.859375 -24.40625 C 46.597656 -21.78125 50.972656 -20.46875 55.984375 -20.46875 Z M 55.984375 -20.46875 "/></g></g></g><g fill="#243746" fill-opacity="1"><g transform="translate(454.416131, 175.645477)"><g><path d="M 22.5625 -109 C 18.601562 -109 15.191406 -110.222656 12.328125 -112.671875 C 9.472656 -115.117188 8.046875 -118.382812 8.046875 -122.46875 C 8.046875 -126.4375 9.472656 -129.671875 12.328125 -132.171875 C 15.191406 -134.679688 18.601562 -135.9375 22.5625 -135.9375 C 26.53125 -135.9375 29.941406 -134.679688 32.796875 -132.171875 C 35.660156 -129.671875 37.09375 -126.4375 37.09375 -122.46875 C 37.09375 -118.382812 35.660156 -115.117188 32.796875 -112.671875 C 29.941406 -110.222656 26.53125 -109 22.5625 -109 Z M 34.296875 0 L 10.671875 0 L 10.671875 -98.15625 L 34.296875 -98.15625 Z M 34.296875 0 "/></g></g></g><g fill="#243746" fill-opacity="1"><g transform="translate(499.551589, 175.645477)"><g><path d="M 42.6875 0 L 18.890625 0 L 18.890625 -79.25 L 4.03125 -79.25 L 4.03125 -98.15625 L 18.890625 -98.15625 L 18.890625 -108.125 C 18.890625 -116.289062 21.191406 -122.554688 25.796875 -126.921875 C 30.410156 -131.296875 37.148438 -133.484375 46.015625 -133.484375 L 60.703125 -133.484375 L 60.703125 -114.765625 L 51.609375 -114.765625 C 49.046875 -114.765625 46.914062 -114.035156 45.21875 -112.578125 C 43.53125 -111.117188 42.6875 -108.523438 42.6875 -104.796875 L 42.6875 -98.15625 L 60.703125 -98.15625 L 60.703125 -79.25 L 42.6875 -79.25 Z M 42.6875 0 "/></g></g></g><g fill="#243746" fill-opacity="1"><g transform="translate(563.930858, 175.645477)"><g><path d="M 28.515625 35.34375 L 12.25 35.34375 L 12.25 15.390625 L 22.921875 15.390625 C 25.953125 15.390625 28.457031 14.953125 30.4375 14.078125 C 32.425781 13.203125 34.117188 10.957031 35.515625 7.34375 L 38.140625 0.34375 L 1.921875 -98.15625 L 27.46875 -98.15625 L 50.390625 -26.0625 L 71.03125 -98.15625 L 96.40625 -98.15625 L 58.265625 11.546875 C 55.222656 20.296875 51.515625 26.445312 47.140625 30 C 42.773438 33.5625 36.566406 35.34375 28.515625 35.34375 Z M 28.515625 35.34375 "/></g></g></g><g fill="#243746" fill-opacity="1"><g transform="translate(662.774056, 175.645477)"><g/></g></g><g fill="#243746" fill-opacity="1"><g transform="translate(709.658942, 175.645477)"><g><path d="M 64.90625 2.453125 C 58.488281 2.453125 51.984375 1.660156 45.390625 0.078125 C 38.804688 -1.492188 32.710938 -4.023438 27.109375 -7.515625 C 21.515625 -11.015625 16.820312 -15.707031 13.03125 -21.59375 C 9.238281 -27.488281 6.9375 -34.753906 6.125 -43.390625 L 32.1875 -43.390625 C 33.707031 -37.085938 36.15625 -32.15625 39.53125 -28.59375 C 42.914062 -25.039062 46.851562 -22.5625 51.34375 -21.15625 C 55.832031 -19.757812 60.410156 -19.0625 65.078125 -19.0625 C 71.960938 -19.0625 77.738281 -20.519531 82.40625 -23.4375 C 87.070312 -26.351562 89.40625 -31.019531 89.40625 -37.4375 C 89.40625 -42.101562 87.882812 -45.71875 84.84375 -48.28125 C 81.8125 -50.851562 77.875 -52.867188 73.03125 -54.328125 C 68.195312 -55.785156 62.921875 -57.097656 57.203125 -58.265625 C 51.722656 -59.546875 46.242188 -60.941406 40.765625 -62.453125 C 35.285156 -63.972656 30.238281 -66.070312 25.625 -68.75 C 21.019531 -71.4375 17.347656 -75.023438 14.609375 -79.515625 C 11.867188 -84.003906 10.5 -89.75 10.5 -96.75 C 10.5 -105.382812 12.566406 -112.585938 16.703125 -118.359375 C 20.847656 -124.128906 26.476562 -128.5 33.59375 -131.46875 C 40.707031 -134.445312 48.753906 -135.9375 57.734375 -135.9375 C 66.367188 -135.9375 74.472656 -134.421875 82.046875 -131.390625 C 89.628906 -128.359375 96.046875 -123.75 101.296875 -117.5625 C 106.546875 -111.382812 109.867188 -103.457031 111.265625 -93.78125 L 85.546875 -93.78125 C 83.921875 -100.894531 80.507812 -106.113281 75.3125 -109.4375 C 70.125 -112.757812 64.085938 -114.421875 57.203125 -114.421875 C 50.910156 -114.421875 45.722656 -113.109375 41.640625 -110.484375 C 37.554688 -107.859375 35.515625 -103.976562 35.515625 -98.84375 C 35.515625 -94.757812 36.941406 -91.550781 39.796875 -89.21875 C 42.660156 -86.894531 46.421875 -85.0625 51.078125 -83.71875 C 55.742188 -82.375 60.757812 -81.0625 66.125 -79.78125 C 71.726562 -78.613281 77.359375 -77.179688 83.015625 -75.484375 C 88.671875 -73.796875 93.914062 -71.519531 98.75 -68.65625 C 103.59375 -65.800781 107.472656 -61.984375 110.390625 -57.203125 C 113.304688 -52.421875 114.765625 -46.242188 114.765625 -38.671875 C 114.765625 -26.066406 110.390625 -16.0625 101.640625 -8.65625 C 92.898438 -1.25 80.65625 2.453125 64.90625 2.453125 Z M 64.90625 2.453125 "/></g></g></g><g fill="#243746" fill-opacity="1"><g transform="translate(831.41977, 175.645477)"><g><path d="M 22.5625 -109 C 18.601562 -109 15.191406 -110.222656 12.328125 -112.671875 C 9.472656 -115.117188 8.046875 -118.382812 8.046875 -122.46875 C 8.046875 -126.4375 9.472656 -129.671875 12.328125 -132.171875 C 15.191406 -134.679688 18.601562 -135.9375 22.5625 -135.9375 C 26.53125 -135.9375 29.941406 -134.679688 32.796875 -132.171875 C 35.660156 -129.671875 37.09375 -126.4375 37.09375 -122.46875 C 37.09375 -118.382812 35.660156 -115.117188 32.796875 -112.671875 C 29.941406 -110.222656 26.53125 -109 22.5625 -109 Z M 34.296875 0 L 10.671875 0 L 10.671875 -98.15625 L 34.296875 -98.15625 Z M 34.296875 0 "/></g></g></g><g fill="#243746" fill-opacity="1"><g transform="translate(876.555228, 175.645477)"><g><path d="M 55.8125 37.265625 C 49.164062 37.265625 42.601562 36.359375 36.125 34.546875 C 29.65625 32.742188 24.085938 29.507812 19.421875 24.84375 C 14.753906 20.175781 11.722656 13.644531 10.328125 5.25 L 34.109375 5.25 C 35.628906 10.03125 38.164062 13.5 41.71875 15.65625 C 45.28125 17.8125 49.921875 18.890625 55.640625 18.890625 C 63.679688 18.890625 69.476562 17.050781 73.03125 13.375 C 76.59375 9.707031 78.375 5.015625 78.375 -0.703125 L 78.375 -14.515625 C 74.414062 -8.921875 70.21875 -5.128906 65.78125 -3.140625 C 61.351562 -1.160156 56.222656 -0.171875 50.390625 -0.171875 C 41.867188 -0.171875 34.367188 -2.328125 27.890625 -6.640625 C 21.421875 -10.960938 16.378906 -16.851562 12.765625 -24.3125 C 9.148438 -31.78125 7.34375 -40.296875 7.34375 -49.859375 C 7.34375 -59.660156 9.148438 -68.347656 12.765625 -75.921875 C 16.378906 -83.503906 21.421875 -89.453125 27.890625 -93.765625 C 34.367188 -98.085938 41.867188 -100.25 50.390625 -100.25 C 56.222656 -100.25 61.351562 -99.195312 65.78125 -97.09375 C 70.21875 -95 74.414062 -91.210938 78.375 -85.734375 L 78.375 -98.15625 L 102 -98.15625 L 102 -6.296875 C 102 4.898438 99.957031 13.675781 95.875 20.03125 C 91.789062 26.382812 86.25 30.84375 79.25 33.40625 C 72.25 35.976562 64.4375 37.265625 55.8125 37.265625 Z M 55.984375 -20.46875 C 61.003906 -20.46875 65.40625 -21.75 69.1875 -24.3125 C 72.976562 -26.882812 75.953125 -30.414062 78.109375 -34.90625 C 80.273438 -39.394531 81.359375 -44.5 81.359375 -50.21875 C 81.359375 -55.925781 80.273438 -61.023438 78.109375 -65.515625 C 75.953125 -70.003906 72.976562 -73.53125 69.1875 -76.09375 C 65.40625 -78.664062 61.003906 -79.953125 55.984375 -79.953125 C 50.972656 -79.953125 46.597656 -78.640625 42.859375 -76.015625 C 39.128906 -73.390625 36.242188 -69.832031 34.203125 -65.34375 C 32.160156 -60.851562 31.140625 -55.8125 31.140625 -50.21875 C 31.140625 -44.613281 32.160156 -39.566406 34.203125 -35.078125 C 36.242188 -30.585938 39.128906 -27.03125 42.859375 -24.40625 C 46.597656 -21.78125 50.972656 -20.46875 55.984375 -20.46875 Z M 55.984375 -20.46875 "/></g></g></g><g fill="#243746" fill-opacity="1"><g transform="translate(989.218989, 175.645477)"><g><path d="M 34.296875 0 L 10.671875 0 L 10.671875 -98.15625 L 34.296875 -98.15625 L 34.296875 -85.734375 C 38.253906 -91.210938 42.390625 -95 46.703125 -97.09375 C 51.023438 -99.195312 55.8125 -100.25 61.0625 -100.25 C 70.039062 -100.25 76.832031 -98.644531 81.4375 -95.4375 C 86.039062 -92.226562 89.453125 -88.347656 91.671875 -83.796875 C 93.660156 -79.484375 94.828125 -75.082031 95.171875 -70.59375 C 95.523438 -66.101562 95.703125 -61.410156 95.703125 -56.515625 L 95.703125 0 L 72.25 0 L 72.25 -56.859375 C 72.25 -61.867188 71.84375 -65.921875 71.03125 -69.015625 C 70.21875 -72.109375 68.992188 -74.585938 67.359375 -76.453125 C 64.554688 -79.367188 60.414062 -80.828125 54.9375 -80.828125 C 48.289062 -80.828125 43.332031 -78.84375 40.0625 -74.875 C 38.082031 -72.539062 36.625 -69.445312 35.6875 -65.59375 C 34.757812 -61.75 34.296875 -56.5625 34.296875 -50.03125 Z M 34.296875 0 "/></g></g></g></g></g><g clip-path="url(#43b8daf12d)"><g clip-path="url(#e4184c99b5)"><g transform="matrix(1, 0, 0, 1, 97, 155)"><g clip-path="url(#f78d000e53)"><g clip-path="url(#9b4a71d576)"><g clip-path="url(#414e39fd07)"><path fill="#024d7c" d="M 0.953125 0.53125 L 167.664062 0.53125 L 167.664062 167.242188 L 0.953125 167.242188 Z M 0.953125 0.53125 " fill-opacity="1" fill-rule="nonzero"/></g></g></g></g></g></g><g clip-path="url(#d3c8964f7e)"><g clip-path="url(#81a5c37f30)"><g transform="matrix(1, 0, 0, 1, 42, 89)"><g clip-path="url(#dc56335e75)"><g clip-path="url(#3851c634f8)"><g clip-path="url(#1ac23a25a6)"><path fill="#009dfd" d="M 0.0703125 0.757812 L 166.78125 0.757812 L 166.78125 167.46875 L 0.0703125 167.46875 Z M 0.0703125 0.757812 " fill-opacity="1" fill-rule="nonzero"/></g></g></g></g></g></g><g clip-path="url(#970728492b)"><g clip-path="url(#bb5dcebec9)"><g transform="matrix(1, 0, 0, 1, 56, 108)"><g clip-path="url(#7f4f045f5d)"><g clip-path="url(#75bf8292f7)"><g clip-path="url(#f10244167b)"><path fill="#ffffff" d="M 0.453125 0.996094 L 135.652344 0.996094 L 135.652344 34.796875 L 0.453125 34.796875 Z M 0.453125 0.996094 " fill-opacity="1" fill-rule="nonzero"/></g></g></g></g></g></g><g clip-path="url(#9dfea7ad1f)"><g clip-path="url(#88f2264d28)"><g transform="matrix(1, 0, 0, 1, 56, 156)"><g clip-path="url(#93d6d115de)"><g clip-path="url(#d3aaf7bf87)"><g clip-path="url(#2ea50e7372)"><path fill="#ffffff" d="M 0.453125 0.214844 L 135.652344 0.214844 L 135.652344 34.015625 L 0.453125 34.015625 Z M 0.453125 0.214844 " fill-opacity="1" fill-rule="nonzero"/></g></g></g></g></g></g><g clip-path="url(#0b0cf62250)"><g clip-path="url(#0fa93636a9)"><g transform="matrix(1, 0, 0, 1, 56, 206)"><g clip-path="url(#dcfd203de3)"><g clip-path="url(#fd4b40aa57)"><g clip-path="url(#c92f23d151)"><path fill="#ffffff" d="M 0.453125 0 L 102.453125 0 L 102.453125 32.886719 L 0.453125 32.886719 Z M 0.453125 0 " fill-opacity="1" fill-rule="nonzero"/></g></g></g></g></g></g></svg>