<svg xmlns="http://www.w3.org/2000/svg" xmlns:xlink="http://www.w3.org/1999/xlink" width="180" zoomAndPan="magnify" viewBox="0 0 135 135.000003" height="180" preserveAspectRatio="xMidYMid meet" version="1.0"><defs><clipPath id="8c511d017a"><path d="M 2.503906 0 L 132.492188 0 L 132.492188 134.007812 L 2.503906 134.007812 Z M 2.503906 0 " clip-rule="nonzero"/></clipPath><clipPath id="328aec6a66"><path d="M 132.492188 21.441406 L 132.492188 112.566406 C 132.492188 118.253906 130.234375 123.707031 126.210938 127.726562 C 122.191406 131.75 116.738281 134.007812 111.050781 134.007812 L 23.945312 134.007812 C 18.257812 134.007812 12.804688 131.75 8.785156 127.726562 C 4.765625 123.707031 2.503906 118.253906 2.503906 112.566406 L 2.503906 21.441406 C 2.503906 15.753906 4.765625 10.300781 8.785156 6.28125 C 12.804688 2.257812 18.257812 0 23.945312 0 L 111.050781 0 C 116.738281 0 122.191406 2.257812 126.210938 6.28125 C 130.234375 10.300781 132.492188 15.753906 132.492188 21.441406 Z M 132.492188 21.441406 " clip-rule="nonzero"/></clipPath><clipPath id="334946d790"><path d="M 0.503906 0 L 130.492188 0 L 130.492188 134.007812 L 0.503906 134.007812 Z M 0.503906 0 " clip-rule="nonzero"/></clipPath><clipPath id="55e07fb765"><path d="M 130.492188 21.441406 L 130.492188 112.566406 C 130.492188 118.253906 128.234375 123.707031 124.210938 127.726562 C 120.191406 131.75 114.738281 134.007812 109.050781 134.007812 L 21.945312 134.007812 C 16.257812 134.007812 10.804688 131.75 6.785156 127.726562 C 2.765625 123.707031 0.503906 118.253906 0.503906 112.566406 L 0.503906 21.441406 C 0.503906 15.753906 2.765625 10.300781 6.785156 6.28125 C 10.804688 2.257812 16.257812 0 21.945312 0 L 109.050781 0 C 114.738281 0 120.191406 2.257812 124.210938 6.28125 C 128.234375 10.300781 130.492188 15.753906 130.492188 21.441406 Z M 130.492188 21.441406 " clip-rule="nonzero"/></clipPath><clipPath id="713dbe0d4b"><rect x="0" width="131" y="0" height="135"/></clipPath><clipPath id="4d6313f7a7"><path d="M 36.632812 36.136719 L 108.101562 36.136719 L 108.101562 107.605469 L 36.632812 107.605469 Z M 36.632812 36.136719 " clip-rule="nonzero"/></clipPath><clipPath id="f2bf072569"><path d="M 53.753906 36.136719 L 90.980469 36.136719 C 95.519531 36.136719 99.875 37.941406 103.085938 41.152344 C 106.300781 44.363281 108.101562 48.71875 108.101562 53.257812 L 108.101562 90.484375 C 108.101562 95.023438 106.300781 99.378906 103.085938 102.589844 C 99.875 105.800781 95.519531 107.605469 90.980469 107.605469 L 53.753906 107.605469 C 49.214844 107.605469 44.859375 105.800781 41.648438 102.589844 C 38.4375 99.378906 36.632812 95.023438 36.632812 90.484375 L 36.632812 53.257812 C 36.632812 48.71875 38.4375 44.363281 41.648438 41.152344 C 44.859375 37.941406 49.214844 36.136719 53.753906 36.136719 Z M 53.753906 36.136719 " clip-rule="nonzero"/></clipPath><clipPath id="81ac0285b1"><path d="M 0.632812 0.136719 L 72.101562 0.136719 L 72.101562 71.605469 L 0.632812 71.605469 Z M 0.632812 0.136719 " clip-rule="nonzero"/></clipPath><clipPath id="aefb6ee388"><path d="M 17.753906 0.136719 L 54.980469 0.136719 C 59.519531 0.136719 63.875 1.941406 67.085938 5.152344 C 70.300781 8.363281 72.101562 12.71875 72.101562 17.257812 L 72.101562 54.484375 C 72.101562 59.023438 70.300781 63.378906 67.085938 66.589844 C 63.875 69.800781 59.519531 71.605469 54.980469 71.605469 L 17.753906 71.605469 C 13.214844 71.605469 8.859375 69.800781 5.648438 66.589844 C 2.4375 63.378906 0.632812 59.023438 0.632812 54.484375 L 0.632812 17.257812 C 0.632812 12.71875 2.4375 8.363281 5.648438 5.152344 C 8.859375 1.941406 13.214844 0.136719 17.753906 0.136719 Z M 17.753906 0.136719 " clip-rule="nonzero"/></clipPath><clipPath id="63142a385e"><rect x="0" width="73" y="0" height="72"/></clipPath><clipPath id="a45be0f193"><path d="M 0.898438 0.402344 L 72.367188 0.402344 L 72.367188 71.871094 L 0.898438 71.871094 Z M 0.898438 0.402344 " clip-rule="nonzero"/></clipPath><clipPath id="111b45160b"><path d="M 18.019531 0.402344 L 55.246094 0.402344 C 59.785156 0.402344 64.140625 2.203125 67.351562 5.414062 C 70.5625 8.628906 72.367188 12.984375 72.367188 17.523438 L 72.367188 54.75 C 72.367188 59.289062 70.5625 63.644531 67.351562 66.855469 C 64.140625 70.066406 59.785156 71.871094 55.246094 71.871094 L 18.019531 71.871094 C 13.480469 71.871094 9.125 70.066406 5.914062 66.855469 C 2.699219 63.644531 0.898438 59.289062 0.898438 54.75 L 0.898438 17.523438 C 0.898438 12.984375 2.699219 8.628906 5.914062 5.414062 C 9.125 2.203125 13.480469 0.402344 18.019531 0.402344 Z M 18.019531 0.402344 " clip-rule="nonzero"/></clipPath><clipPath id="bc566e1b21"><path d="M 0.898438 0.402344 L 72.367188 0.402344 L 72.367188 71.871094 L 0.898438 71.871094 Z M 0.898438 0.402344 " clip-rule="nonzero"/></clipPath><clipPath id="f7dc0169ec"><path d="M 18.019531 0.402344 L 55.246094 0.402344 C 59.785156 0.402344 64.140625 2.203125 67.351562 5.414062 C 70.5625 8.628906 72.367188 12.984375 72.367188 17.523438 L 72.367188 54.75 C 72.367188 59.289062 70.5625 63.644531 67.351562 66.855469 C 64.140625 70.066406 59.785156 71.871094 55.246094 71.871094 L 18.019531 71.871094 C 13.480469 71.871094 9.125 70.066406 5.914062 66.855469 C 2.699219 63.644531 0.898438 59.289062 0.898438 54.75 L 0.898438 17.523438 C 0.898438 12.984375 2.699219 8.628906 5.914062 5.414062 C 9.125 2.203125 13.480469 0.402344 18.019531 0.402344 Z M 18.019531 0.402344 " clip-rule="nonzero"/></clipPath><clipPath id="71101b4d1b"><rect x="0" width="73" y="0" height="72"/></clipPath><clipPath id="c897923d37"><rect x="0" width="109" y="0" height="108"/></clipPath></defs><g clip-path="url(#8c511d017a)"><g clip-path="url(#328aec6a66)"><g transform="matrix(1, 0, 0, 1, 2, -0.000000000000003367)"><g clip-path="url(#713dbe0d4b)"><g clip-path="url(#334946d790)"><g clip-path="url(#55e07fb765)"><path fill="#1b2a32" d="M 0.503906 0 L 130.492188 0 L 130.492188 134.050781 L 0.503906 134.050781 Z M 0.503906 0 " fill-opacity="1" fill-rule="nonzero"/></g></g></g></g></g></g><g transform="matrix(1, 0, 0, 1, 13, 13)"><g clip-path="url(#c897923d37)"><g clip-path="url(#4d6313f7a7)"><g clip-path="url(#f2bf072569)"><g transform="matrix(1, 0, 0, 1, 36, 36)"><g clip-path="url(#63142a385e)"><g clip-path="url(#81ac0285b1)"><g clip-path="url(#aefb6ee388)"><path fill="#2e9b9b" d="M 0.632812 0.136719 L 72.101562 0.136719 L 72.101562 71.605469 L 0.632812 71.605469 Z M 0.632812 0.136719 " fill-opacity="1" fill-rule="nonzero"/></g></g></g></g></g></g><g clip-path="url(#a45be0f193)"><g clip-path="url(#111b45160b)"><g transform="matrix(1, 0, 0, 1, -0.000000000000003553, -0.000000000000007105)"><g clip-path="url(#71101b4d1b)"><g clip-path="url(#bc566e1b21)"><g clip-path="url(#f7dc0169ec)"><path fill="#ffffff" d="M 0.898438 0.402344 L 72.367188 0.402344 L 72.367188 71.871094 L 0.898438 71.871094 Z M 0.898438 0.402344 " fill-opacity="1" fill-rule="nonzero"/></g></g></g></g></g></g></g></g></svg>